<svg width="211" height="139" viewBox="0 0 211 139" fill="none" xmlns="http://www.w3.org/2000/svg">
<g clip-path="url(#clip0_20_240)">
<path d="M62.0757 12.1191V12.9587C55.349 13.8968 48.9831 16.0412 43.1756 19.1781C24.148 29.456 11.1184 50.3966 11.1184 74.5561H10.832V12.1191H62.0757Z" fill="#1F4366"/>
<path d="M104.373 63.1006L111.382 62.2578L112.395 66.4285L104.955 67.0404C104.796 67.2137 104.612 67.3658 104.402 67.4887C103.261 68.157 101.824 67.7198 101.193 66.5122C100.561 65.3046 100.974 63.7839 102.115 63.1156C102.843 62.6894 103.69 62.7144 104.373 63.1006Z" fill="#FFB6B6"/>
<path d="M107.96 67.6086C107.777 67.6086 107.663 67.5967 107.629 67.5713C107.145 67.2116 107.17 63.134 107.18 62.3201L107.181 62.2372L124.588 59.0329L137.68 35.5675L137.687 35.5595C139.388 33.6442 141.782 32.684 144.255 32.9253C146.727 33.1663 148.915 34.5732 150.257 36.7851C152.549 40.5648 151.653 45.5896 148.216 48.2242L127.14 65.215L127.115 65.2186C124.173 65.6405 110.32 67.6084 107.96 67.6086Z" fill="#D3F279"/>
<path d="M127.667 129.982L124.678 130.65L120.769 118.495L125.179 117.51L127.667 129.982Z" fill="#FFB6B6"/>
<path d="M119.154 137.226C119.311 138.006 120.035 138.506 120.773 138.342L126.714 137.014L127.29 134.545L128.136 136.695L130.379 136.196L128.155 128.342L127.365 128.468L124.141 128.976L123.101 129.141L123.553 131.405L119.499 135.934C119.191 136.279 119.062 136.761 119.154 137.226Z" fill="#2F2E41"/>
<path d="M185.675 129.246L186.18 132.435L174.542 136.06L173.797 131.354L185.675 129.246Z" fill="#FFB6B6"/>
<path d="M192.157 138.551C192.901 138.419 193.402 137.674 193.279 136.887L192.274 130.548L189.967 129.836L192.032 129.031L191.655 126.639L184.147 128.662L184.234 129.503L184.578 132.933L184.691 134.039L186.846 133.657L190.952 138.133C191.265 138.474 191.715 138.63 192.157 138.551Z" fill="#2F2E41"/>
<path d="M141.62 73.594L140.971 80.7688C140.971 80.7688 120.628 75.9856 111.056 78.8897L109.225 79.5835C107.709 80.1583 106.52 81.4549 106.094 83.0913L106.085 83.1242C105.631 84.8981 105.863 86.789 106.728 88.384L109.635 94.3002L119.852 122.882H127.92C127.92 122.882 125.308 102.695 122.519 92.5561L146.325 100.243C146.325 100.243 158.656 99.9018 156.385 86.9187C154.113 73.9356 154.438 71.7148 154.438 71.7148L141.62 73.594Z" fill="#2F2E41"/>
<path d="M138.134 93.1249L144.909 94.1546C144.909 94.1546 139.898 118.859 142.189 129.067L142.103 130.783C142.575 132.406 142.425 135.917 143.957 136.445L143.988 136.455C145.649 137.018 148.775 138.066 150.331 137.232L154.956 138.472L180.559 137.803L178.67 130.208C178.67 130.208 166.694 128.965 153.257 126.279L162.716 92.1736C163.722 89.2357 163.587 85.9669 162.226 83.1939C160.741 80.1679 157.702 77.3619 151.489 78.2423C139.063 80.0029 136.972 79.5542 136.972 79.5542L138.134 93.1249Z" fill="#2F2E41"/>
<path d="M161.566 81.7085C152.836 94.0503 147.72 89.3008 137.016 80.1095C137.016 80.1095 137.281 83.5622 136.45 77.1114C136.167 74.9196 133.851 69.9986 133.995 67.7175C134.561 58.7234 130.029 56.7247 130.029 56.7247C130.029 56.7247 126.064 46.1316 132.295 41.9343L136.828 33.9395L135.6 29.6084L145.325 26.1445L148.134 30.1659C152.591 36.548 155.247 44.1368 155.794 52.0519C155.99 54.8932 155.913 57.7483 155.563 60.5731L154.578 68.517C159.159 72.7195 161.46 77.1191 161.566 81.7085Z" fill="#D3F279"/>
<path d="M45.398 41.8152L31.5398 48.1955C30.6793 48.5917 29.6749 48.1731 29.3006 47.2624C25.1387 42.4376 22.8922 36.8667 22.4498 30.5931C22.0755 29.6824 22.471 28.6192 23.3315 28.2231L37.1897 21.8428C38.0502 21.4467 39.0546 21.8653 39.4289 22.776L46.2797 39.4453C46.654 40.356 46.2585 41.4191 45.398 41.8152Z" fill="#323F4B"/>
<path d="M26.5031 27.3483C24.2582 28.3819 23.2299 31.1459 24.2064 33.5219L29.6203 46.6949C29.9637 47.5305 30.8822 47.9133 31.6718 47.5498L39.3354 44.0215C43.1771 42.2528 44.9367 37.5228 43.2656 33.4567L39.1094 23.3439C38.766 22.5082 37.8475 22.1254 37.0579 22.4889L26.5031 27.3483Z" fill="#D3F279"/>
<path d="M35.6811 28.8829L29.1928 31.8701C29.0292 31.9454 28.8382 31.8658 28.7671 31.6927C28.6959 31.5195 28.7712 31.3175 28.9347 31.2421L35.423 28.255C35.5866 28.1797 35.7775 28.2592 35.8486 28.4324C35.9198 28.6055 35.8446 28.8076 35.6811 28.8829Z" fill="#85CCA2"/>
<path d="M38.4325 35.5782L31.9443 38.5654C31.7807 38.6407 31.5897 38.5611 31.5185 38.388C31.4474 38.2149 31.5226 38.0128 31.6862 37.9375L38.1744 34.9503C38.338 34.875 38.5289 34.9545 38.6001 35.1277C38.6712 35.3008 38.5961 35.5029 38.4325 35.5782Z" fill="#85CCA2"/>
<path d="M40.5394 30.629L27.0878 36.8221C26.9242 36.8974 26.7332 36.8178 26.6621 36.6447C26.5909 36.4715 26.6662 36.2694 26.8297 36.1941L40.2813 30.0011C40.4449 29.9258 40.6358 30.0053 40.707 30.1785C40.7781 30.3516 40.703 30.5537 40.5394 30.629Z" fill="#85CCA2"/>
<path d="M43.1919 36.6251L37.579 39.2092C37.4154 39.2846 37.2245 39.205 37.1533 39.0318C37.0822 38.8587 37.1574 38.6566 37.321 38.5813L42.9338 35.9972C43.0974 35.9219 43.2883 36.0014 43.3595 36.1745C43.4306 36.3477 43.3555 36.5498 43.1919 36.6251Z" fill="#85CCA2"/>
<path d="M32.4719 88.6766H17.3593C16.421 88.6766 15.6577 87.8687 15.6577 86.8756C13.6595 80.6942 13.699 74.6372 15.6577 68.6975C15.6577 67.7044 16.421 66.8965 17.3593 66.8965H32.4719C33.4102 66.8965 34.1736 67.7044 34.1736 68.6975V86.8756C34.1736 87.8687 33.4102 88.6766 32.4719 88.6766Z" fill="#323F4B"/>
<path d="M20.5972 67.4336C18.1491 67.4336 16.1646 69.5341 16.1646 72.1252V86.4904C16.1646 87.4017 16.8626 88.1405 17.7236 88.1405H26.0809C30.2703 88.1405 33.6664 84.546 33.6664 80.1119V69.0837C33.6664 68.1724 32.9684 67.4336 32.1074 67.4336H20.5972Z" fill="#D3F279"/>
<path d="M28.4352 72.716H21.3597C21.1813 72.716 21.0361 72.5624 21.0361 72.3736C21.0361 72.1848 21.1813 72.0312 21.3597 72.0312H28.4352C28.6136 72.0312 28.7586 72.1848 28.7586 72.3736C28.7586 72.5624 28.6136 72.716 28.4352 72.716Z" fill="#85CCA2"/>
<path d="M28.4352 80.0168H21.3597C21.1813 80.0168 21.0361 79.8632 21.0361 79.6744C21.0361 79.4856 21.1813 79.332 21.3597 79.332H28.4352C28.6136 79.332 28.7586 79.4856 28.7586 79.6744C28.7586 79.8632 28.6136 80.0168 28.4352 80.0168Z" fill="#85CCA2"/>
<path d="M32.2319 76.3684H17.5628C17.3844 76.3684 17.2393 76.2147 17.2393 76.0259C17.2393 75.8371 17.3844 75.6836 17.5628 75.6836H32.2319C32.4103 75.6836 32.5554 75.8371 32.5554 76.0259C32.5554 76.2147 32.4103 76.3684 32.2319 76.3684Z" fill="#85CCA2"/>
<path d="M32.4049 82.9855H26.284C26.1056 82.9855 25.9604 82.8319 25.9604 82.6431C25.9604 82.4543 26.1056 82.3008 26.284 82.3008H32.4049C32.5833 82.3008 32.7283 82.4543 32.7283 82.6431C32.7283 82.8319 32.5832 82.9855 32.4049 82.9855Z" fill="#85CCA2"/>
<path d="M132.712 118.224L120.085 112.324C119.301 111.958 118.945 110.985 119.291 110.155C119.776 104.21 121.92 99.165 125.626 94.9669C125.972 94.1371 126.892 93.7601 127.676 94.1264L140.303 100.026C141.087 100.393 141.443 101.366 141.097 102.196L134.762 117.384C134.415 118.214 133.496 118.591 132.712 118.224Z" fill="#323F4B"/>
<path d="M130.194 95.8387C128.149 94.883 125.759 95.8632 124.856 98.0281L119.849 110.031C119.532 110.792 119.857 111.682 120.577 112.018L127.559 115.281C131.06 116.916 135.15 115.239 136.695 111.534L140.539 102.32C140.856 101.558 140.531 100.669 139.811 100.332L130.194 95.8387Z" fill="#D3F279"/>
<path d="M134.901 103.312L128.99 100.55C128.841 100.48 128.773 100.295 128.839 100.138C128.904 99.9798 129.079 99.9082 129.228 99.9778L135.14 102.74C135.289 102.81 135.357 102.995 135.291 103.152C135.225 103.31 135.05 103.382 134.901 103.312Z" fill="#1F2933"/>
<path d="M132.357 109.412L126.445 106.65C126.296 106.58 126.228 106.395 126.294 106.237C126.36 106.079 126.535 106.008 126.684 106.077L132.596 108.84C132.745 108.909 132.812 109.094 132.747 109.252C132.681 109.41 132.506 109.482 132.357 109.412Z" fill="#1F2933"/>
<path d="M136.801 107.847L124.544 102.12C124.395 102.051 124.328 101.866 124.393 101.708C124.459 101.55 124.634 101.478 124.783 101.548L137.039 107.275C137.188 107.345 137.256 107.53 137.19 107.687C137.124 107.845 136.95 107.917 136.801 107.847Z" fill="#1F2933"/>
<path d="M134.639 113.443L129.525 111.054C129.376 110.984 129.308 110.799 129.374 110.641C129.44 110.484 129.615 110.412 129.764 110.482L134.878 112.871C135.027 112.941 135.095 113.126 135.029 113.284C134.963 113.441 134.788 113.513 134.639 113.443Z" fill="#1F2933"/>
<path d="M33.7122 42.5008H18.5995C17.6612 42.5008 16.8979 41.6929 16.8979 40.6998C14.8998 34.5184 14.9392 28.4615 16.8979 22.5217C16.8979 21.5286 17.6612 20.7207 18.5995 20.7207H33.7122C34.6505 20.7207 35.4138 21.5286 35.4138 22.5217V40.6998C35.4138 41.6929 34.6505 42.5008 33.7122 42.5008Z" fill="#323F4B"/>
<path d="M21.8374 21.2578C19.3894 21.2578 17.4048 23.3583 17.4048 25.9494V40.3146C17.4048 41.2259 18.1028 41.9647 18.9638 41.9647H27.3211C31.5105 41.9647 34.9067 38.3702 34.9067 33.9361V22.9079C34.9067 21.9966 34.2087 21.2578 33.3476 21.2578H21.8374Z" fill="#D3F279"/>
<path d="M29.6754 26.5402H22.5999C22.4215 26.5402 22.2764 26.3866 22.2764 26.1978C22.2764 26.009 22.4215 25.8555 22.5999 25.8555H29.6754C29.8538 25.8555 29.9989 26.009 29.9989 26.1978C29.9989 26.3866 29.8538 26.5402 29.6754 26.5402Z" fill="#3F3D56"/>
<path d="M29.6754 33.841H22.5999C22.4215 33.841 22.2764 33.6874 22.2764 33.4986C22.2764 33.3098 22.4215 33.1562 22.5999 33.1562H29.6754C29.8538 33.1562 29.9989 33.3098 29.9989 33.4986C29.9989 33.6874 29.8538 33.841 29.6754 33.841Z" fill="#3F3D56"/>
<path d="M33.4721 30.1926H18.803C18.6246 30.1926 18.4795 30.039 18.4795 29.8502C18.4795 29.6614 18.6246 29.5078 18.803 29.5078H33.4721C33.6505 29.5078 33.7956 29.6614 33.7956 29.8502C33.7956 30.039 33.6505 30.1926 33.4721 30.1926Z" fill="#3F3D56"/>
<path d="M33.6451 36.8098H27.5242C27.3458 36.8098 27.2007 36.6561 27.2007 36.4673C27.2007 36.2785 27.3458 36.125 27.5242 36.125H33.6451C33.8235 36.125 33.9686 36.2786 33.9686 36.4674C33.9686 36.6562 33.8235 36.8098 33.6451 36.8098Z" fill="#3F3D56"/>
<path d="M121.972 63.458L110.771 71.9947C110.076 72.5247 109.103 72.357 108.602 71.621C104.004 68.1682 100.979 63.6567 99.436 58.148C98.9352 57.412 99.0936 56.382 99.789 55.852L110.99 47.3153C111.685 46.7853 112.659 46.953 113.159 47.689L122.325 61.162C122.826 61.898 122.668 62.928 121.972 63.458Z" fill="#323F4B"/>
<path d="M102.459 54.4207C100.645 55.8035 100.233 58.4813 101.54 60.4018L108.783 71.0488C109.243 71.7242 110.133 71.8775 110.771 71.3911L116.965 66.6704C120.07 64.3039 120.775 59.7214 118.539 56.435L112.978 48.2613C112.518 47.5859 111.629 47.4326 110.99 47.919L102.459 54.4207Z" fill="#D3F279"/>
<path d="M110.932 53.9082L105.688 57.9049C105.556 58.0057 105.371 57.9738 105.276 57.8339C105.181 57.6939 105.211 57.4981 105.343 57.3974L110.587 53.4006C110.719 53.2999 110.904 53.3317 110.999 53.4717C111.095 53.6116 111.065 53.8074 110.932 53.9082Z" fill="#3F3D56"/>
<path d="M114.614 59.3203L109.37 63.317C109.238 63.4178 109.053 63.3859 108.957 63.246C108.862 63.106 108.892 62.9102 109.025 62.8095L114.269 58.8127C114.401 58.712 114.586 58.7438 114.681 58.8838C114.776 59.0237 114.746 59.2195 114.614 59.3203Z" fill="#3F3D56"/>
<path d="M115.588 54.4707L104.716 62.7568C104.584 62.8575 104.399 62.8257 104.304 62.6857C104.208 62.5458 104.239 62.35 104.371 62.2492L115.243 53.9631C115.375 53.8624 115.56 53.8942 115.655 54.0342C115.751 54.1741 115.721 54.3699 115.588 54.4707Z" fill="#3F3D56"/>
<path d="M119.053 59.2773L114.516 62.7348C114.384 62.8356 114.199 62.8037 114.104 62.6638C114.009 62.5238 114.039 62.328 114.171 62.2273L118.708 58.7698C118.84 58.669 119.025 58.7009 119.12 58.8408C119.215 58.9807 119.185 59.1765 119.053 59.2773Z" fill="#3F3D56"/>
<path d="M51.4615 133.657V138.071C51.4615 138.345 50.5405 138.568 49.4085 138.568C42.3623 139.151 35.458 139.14 28.6873 138.568C27.5552 138.568 26.6343 138.345 26.6343 138.071V133.657C26.6343 133.383 27.5552 133.16 28.6873 133.16H49.4084C50.5405 133.16 51.4615 133.383 51.4615 133.657Z" fill="#D3F279"/>
<path d="M27.2461 137.125C27.2461 137.84 29.6404 138.42 32.594 138.42H48.9689C50.0078 138.42 50.8499 138.216 50.8499 137.965V135.524C50.8499 134.3 46.7525 133.309 41.6981 133.309H29.127C28.0882 133.309 27.2461 133.512 27.2461 133.764L27.2461 137.125Z" fill="#BAEB2F"/>
<path d="M33.2679 134.837V136.903C33.2679 136.955 33.0928 136.997 32.8775 136.997C32.6623 136.997 32.4873 136.955 32.4873 136.903V134.837C32.4873 134.785 32.6623 134.742 32.8775 134.742C33.0928 134.742 33.2679 134.785 33.2679 134.837Z" fill="#D3F279"/>
<path d="M41.5906 134.837V136.903C41.5906 136.955 41.4155 136.997 41.2003 136.997C40.9851 136.997 40.8101 136.955 40.8101 136.903V134.837C40.8101 134.785 40.9851 134.742 41.2003 134.742C41.4155 134.742 41.5906 134.785 41.5906 134.837Z" fill="#D3F279"/>
<path d="M37.4319 133.727V138.011C37.4319 138.063 37.2568 138.106 37.0416 138.106C36.8264 138.106 36.6514 138.063 36.6514 138.011V133.727C36.6514 133.675 36.8264 133.633 37.0416 133.633C37.2568 133.633 37.4319 133.675 37.4319 133.727Z" fill="#D3F279"/>
<path d="M44.9744 133.676V135.464C44.9744 135.516 44.7993 135.559 44.5841 135.559C44.3689 135.559 44.1938 135.516 44.1938 135.464V133.676C44.1938 133.624 44.3689 133.582 44.5841 133.582C44.7993 133.582 44.9744 133.624 44.9744 133.676Z" fill="#D3F279"/>
<path d="M82.1441 133.657V138.071C82.1441 138.345 81.2231 138.568 80.0911 138.568C73.0449 139.151 66.1406 139.14 59.3699 138.568C58.2379 138.568 57.3169 138.345 57.3169 138.071V133.657C57.3169 133.383 58.2379 133.16 59.3699 133.16H80.0911C81.2231 133.16 82.1441 133.383 82.1441 133.657Z" fill="#D3F279"/>
<path d="M57.9287 137.125C57.9287 137.84 60.3231 138.42 63.2766 138.42H79.6516C80.6904 138.42 81.5325 138.216 81.5325 137.965V135.524C81.5325 134.3 77.4351 133.309 72.3807 133.309H59.8097C58.7708 133.309 57.9287 133.512 57.9287 133.764L57.9287 137.125Z" fill="#BAEB2F"/>
<path d="M63.9505 134.837V136.903C63.9505 136.955 63.7754 136.997 63.5602 136.997C63.345 136.997 63.1699 136.955 63.1699 136.903V134.837C63.1699 134.785 63.345 134.742 63.5602 134.742C63.7754 134.742 63.9505 134.785 63.9505 134.837Z" fill="#E6E6E6"/>
<path d="M72.2732 134.837V136.903C72.2732 136.955 72.0981 136.997 71.8829 136.997C71.6677 136.997 71.4927 136.955 71.4927 136.903V134.837C71.4927 134.785 71.6677 134.742 71.8829 134.742C72.0981 134.742 72.2732 134.785 72.2732 134.837Z" fill="#E6E6E6"/>
<path d="M68.1145 133.727V138.011C68.1145 138.063 67.9394 138.106 67.7242 138.106C67.509 138.106 67.334 138.063 67.334 138.011V133.727C67.334 133.675 67.509 133.633 67.7242 133.633C67.9394 133.633 68.1145 133.675 68.1145 133.727Z" fill="#D3F279"/>
<path d="M75.657 133.676V135.464C75.657 135.516 75.4819 135.559 75.2667 135.559C75.0515 135.559 74.8765 135.516 74.8765 135.464V133.676C74.8765 133.624 75.0515 133.582 75.2667 133.582C75.4819 133.582 75.657 133.624 75.657 133.676Z" fill="#E6E6E6"/>
<path d="M132.002 76.2883V79.6294C132.002 79.8368 131.305 80.0056 130.448 80.0056C125.114 80.4473 119.888 80.4386 114.762 80.0056C113.905 80.0056 113.208 79.8368 113.208 79.6294V76.2883C113.208 76.0809 113.905 75.9121 114.762 75.9121H130.448C131.305 75.9121 132.002 76.0809 132.002 76.2883Z" fill="#335B80"/>
<path d="M113.671 78.9127C113.671 79.454 115.483 79.8927 117.719 79.8927H130.115C130.902 79.8927 131.539 79.7384 131.539 79.548V77.7004C131.539 76.7742 128.437 76.0234 124.611 76.0234H115.095C114.308 76.0234 113.671 76.1777 113.671 76.3681V78.9127Z" fill="#1F4366"/>
<path d="M118.23 77.1809V78.7451C118.23 78.7846 118.097 78.8167 117.934 78.8167C117.771 78.8167 117.639 78.7846 117.639 78.7451V77.1809C117.639 77.1414 117.771 77.1094 117.934 77.1094C118.097 77.1094 118.23 77.1414 118.23 77.1809Z" fill="#335B80"/>
<path d="M124.53 77.1809V78.7451C124.53 78.7846 124.397 78.8167 124.234 78.8167C124.071 78.8167 123.939 78.7846 123.939 78.7451V77.1809C123.939 77.1414 124.071 77.1094 124.234 77.1094C124.397 77.1094 124.53 77.1414 124.53 77.1809Z" fill="#335B80"/>
<path d="M121.382 76.341V79.5841C121.382 79.6235 121.249 79.6556 121.086 79.6556C120.924 79.6556 120.791 79.6235 120.791 79.5841V76.341C120.791 76.3016 120.924 76.2695 121.086 76.2695C121.249 76.2695 121.382 76.3016 121.382 76.341Z" fill="#335B80"/>
<path d="M127.092 76.3039V77.6571C127.092 77.6966 126.959 77.7287 126.796 77.7287C126.633 77.7287 126.501 77.6966 126.501 77.6571V76.3039C126.501 76.2645 126.633 76.2324 126.796 76.2324C126.959 76.2324 127.092 76.2645 127.092 76.3039Z" fill="#335B80"/>
<path d="M126.65 91.5565L131.757 86.4062L134.944 89.0837L129.361 94.3255C129.334 94.5649 129.273 94.8042 129.176 95.0362C128.648 96.298 127.253 96.8675 126.061 96.3082C124.869 95.7489 124.33 94.2726 124.859 93.0108C125.196 92.2061 125.886 91.6848 126.65 91.5565Z" fill="#FFB6B6"/>
<path d="M132.081 92.8577C131.935 92.9748 131.837 93.038 131.796 93.0396C131.205 93.0619 128.899 89.7954 128.443 89.1403L128.396 89.0735L140.446 75.3965L137.5 48.3243L137.501 48.3133C137.764 45.6997 139.125 43.4047 141.234 42.0171C143.343 40.6293 145.889 40.3532 148.22 41.2593C152.204 42.8078 154.355 47.3864 153.118 51.6829L146.006 78.6949L145.989 78.7135C143.884 80.9298 133.963 91.3495 132.081 92.8577Z" fill="#D3F279"/>
<path d="M211 138.176H0V138.704H211V138.176Z" fill="#D3F279"/>
<path d="M26.7192 22.6914C27.9753 22.6914 28.9936 21.6137 28.9936 20.2842C28.9936 18.9547 27.9753 17.877 26.7192 17.877C25.4631 17.877 24.4448 18.9547 24.4448 20.2842C24.4448 21.6137 25.4631 22.6914 26.7192 22.6914Z" fill="#3F3D56"/>
<path d="M25.0654 69.3047C26.3215 69.3047 27.3398 68.2269 27.3398 66.8975C27.3398 65.568 26.3215 64.4902 25.0654 64.4902C23.8093 64.4902 22.791 65.568 22.791 66.8975C22.791 68.2269 23.8093 69.3047 25.0654 69.3047Z" fill="#335B80"/>
<path d="M68.8109 34.9414C70.3264 34.9414 71.5549 33.6411 71.5549 32.0371C71.5549 30.4331 70.3264 29.1328 68.8109 29.1328C67.2954 29.1328 66.0669 30.4331 66.0669 32.0371C66.0669 33.6411 67.2954 34.9414 68.8109 34.9414Z" fill="#335B80"/>
<path d="M99.0516 46.8385C98.8282 44.1323 97.7666 41.5471 96.0677 39.5127C94.4127 37.5308 92.1506 36.1713 89.7112 35.6175C88.3494 35.3083 86.9388 35.248 85.5597 35.4563C85.2296 35.5061 85.2384 36.0609 85.572 36.0105C87.9191 35.6561 90.345 36.0891 92.454 37.2362C94.6157 38.4119 96.3459 40.3243 97.4147 42.6303C98.0259 43.949 98.4072 45.3883 98.528 46.8515C98.5572 47.2057 99.081 47.1947 99.0516 46.8385Z" fill="#335B80"/>
<path d="M86.1407 33.2306L82.1089 35.3359C81.9623 35.4125 81.9382 35.6653 82.0628 35.7743L85.8795 39.1136C86.1378 39.3396 86.5014 38.9403 86.2411 38.7125L82.4243 35.3732L82.3782 35.8116L86.41 33.7062C86.7128 33.5481 86.441 33.0737 86.1407 33.2306Z" fill="#335B80"/>
<path d="M41.9635 72.4946C44.3183 71.4141 46.2995 69.5304 47.5855 67.181C48.8382 64.8923 49.341 62.191 49.0657 59.5665C48.912 58.1014 48.5198 56.6659 47.8968 55.3472C47.7477 55.0315 47.2533 55.2158 47.404 55.5349C48.4642 57.7793 48.8435 60.3521 48.4826 62.8325C48.1127 65.3749 46.946 67.7171 45.2173 69.5198C44.2287 70.5506 43.0594 71.3888 41.7861 71.973C41.4779 72.1144 41.6535 72.6369 41.9635 72.4946Z" fill="#335B80"/>
<path d="M50.0748 55.2263L46.9123 51.8443C46.7973 51.7212 46.5631 51.777 46.5048 51.9366L44.7193 56.8252C44.5984 57.1561 45.0714 57.3949 45.1932 57.0614L46.9787 52.1728L46.5712 52.2651L49.7337 55.6472C49.9712 55.9012 50.3104 55.4782 50.0748 55.2263Z" fill="#335B80"/>
<path d="M129.884 21.2973C129.923 20.5024 129.523 25.3997 130.211 25.3195C133.342 24.9497 137.947 25.862 140.267 26.2461C140.36 26.2111 140.453 26.1761 140.543 26.1389C140.765 26.0571 140.979 25.9649 141.189 25.8676C145.923 23.6762 146.083 15.1703 146.067 15.0968C145.989 14.7352 143.017 5.00169 141.694 5.16813C141.35 5.21117 141.005 5.27322 140.659 5.35721L137.454 6.13503C136.739 6.14739 136.041 6.20545 135.374 6.31458L135.369 6.31595C128.803 7.36141 124.616 12.7593 126.189 17.7097C126.193 17.7149 126.2 17.7194 126.204 17.7246C126.389 17.9087 126.554 18.0852 126.704 18.2562C126.848 18.4162 126.974 18.5714 127.086 18.7205C127.954 19.8715 126.795 21.8662 127.863 21.9267C129.284 22.0073 126.441 36.3383 132.599 35.1833C127.574 33.3402 129.774 23.4902 129.884 21.2973Z" fill="#2F2E41"/>
<path d="M135.593 27.9008C139.893 27.9008 143.379 24.211 143.379 19.6594C143.379 15.1078 139.893 11.418 135.593 11.418C131.292 11.418 127.806 15.1078 127.806 19.6594C127.806 24.211 131.292 27.9008 135.593 27.9008Z" fill="#FFB6B6"/>
<path d="M148.158 16.7509C148.126 17.5184 145.899 24.346 142.871 24.346C142.304 24.346 141.549 21.348 140.982 18.5498C140.934 18.3133 141.855 36.3142 141.634 36.3962C141.738 33.7399 138.35 24.9216 138.491 23.1268C138.998 16.685 137.167 17.3883 134.168 16.1911L134.169 16.2353C133.508 15.5717 133.059 14.6743 132.921 13.7209C132.754 14.6523 132.758 15.6117 132.923 16.5371C132.379 17.8162 131.363 18.4418 129.997 18.5857C129.803 17.8142 129.412 16.9888 129.053 16.8269C129.123 17.4105 129.125 18.0241 129.015 18.6117C128.436 18.5877 127.864 20.0928 127.197 19.9489C127.052 19.9209 127.229 22.4892 127.082 22.4532C126.942 22.4193 126.804 22.3853 126.661 22.3453C126.63 22.2034 125.709 21.8916 125.686 21.7477C125.004 17.6184 124.946 10.3651 128.832 9.2498C128.934 9.21782 129.038 9.18984 129.142 9.16586L134.977 7.68282C134.909 7.36302 134.945 7.04323 135.07 6.76541C135.14 6.59753 135.243 6.44562 135.37 6.3197C135.372 6.3177 135.372 6.3157 135.374 6.3137C135.547 6.14182 135.763 6.0139 136.01 5.95394C136.05 5.94395 136.093 5.93596 136.135 5.92795C136.752 5.84001 137.366 5.79404 137.976 5.78205C138.274 5.77605 138.573 5.78005 138.869 5.79205C138.894 5.79205 138.914 5.79205 138.937 5.79405C139.913 5.83801 140.873 5.97392 141.806 6.20178C143.424 6.76541 144.861 7.81073 145.934 9.20583C146.761 10.2791 147.371 11.5583 147.68 12.9934C147.811 14.7642 148.283 13.7349 148.158 16.7509Z" fill="#2F2E41"/>
<path d="M148.551 10.6086C148.345 10.2571 148.05 9.90277 147.706 9.60724C147.824 9.54477 147.939 9.47632 148.046 9.3972C148.998 8.69489 149.269 7.15822 147.552 6.33178C146.759 5.94975 146.26 4.92958 145.522 4.2294C145.522 4.2294 143.135 2.08063 143.202 2.24231C142.534 1.56895 142.333 0.734935 141.822 0C141.666 0.887816 141.866 2.04449 142.3 2.86854C141.876 2.8435 141.377 2.73171 141.146 2.55884C139.36 1.22114 138.039 1.56263 136.466 3.00713C135.44 3.94939 134.816 4.84106 135.219 6.0467C135.44 6.70957 135.895 7.15161 136.624 7.44C137.397 7.74563 138.928 8.21133 139.735 7.9494L144.303 9.86714C144.657 9.95043 145.075 10.0102 145.513 10.026C146.315 10.2764 147.204 10.8514 147.734 11.4255C148.391 12.1379 148.551 12.9935 149.033 13.7636C149.251 12.789 149.048 11.4603 148.551 10.6086Z" fill="#2F2E41"/>
</g>
<defs>
<clipPath id="clip0_20_240">
<rect width="211" height="139" fill="white"/>
</clipPath>
</defs>
</svg>
