<svg width="404" height="297" viewBox="0 0 404 297" fill="none" xmlns="http://www.w3.org/2000/svg">
<g clip-path="url(#clip0_20_988)">
<path d="M176.318 261.866L176.93 247.824C183.315 244.344 190.436 242.505 197.675 242.469C187.712 250.775 188.957 266.787 182.202 277.958C180.069 281.425 177.198 284.359 173.802 286.541C170.406 288.723 166.572 290.098 162.584 290.564L154.246 295.77C153.102 289.266 153.354 282.586 154.985 276.192C156.616 269.797 159.588 263.838 163.695 258.727C166.026 255.883 168.7 253.35 171.653 251.187C173.65 256.556 176.318 261.866 176.318 261.866Z" fill="#D3F279"/>
<path d="M229.321 66.4936C229.54 69.686 230.463 72.7869 232.019 75.5657C235.3 81.441 240.926 85.6949 246.986 88.2233C254.557 91.3823 262.996 91.4796 271.03 90.7752C278.492 90.121 285.878 88.6045 293.368 88.292C299.16 88.103 304.958 88.244 310.735 88.7144C321.943 89.5255 333.104 91.0306 344.193 92.8551C347.196 93.3432 350.193 93.8676 353.184 94.4283C353.466 94.4538 353.746 94.5068 354.019 94.5865C354.073 94.6092 354.16 94.5915 354.21 94.6234C354.3 94.6814 353.845 94.4764 354.121 94.7091C354.506 95.1207 354.849 95.5708 355.145 96.0527L359.24 101.427C360.415 102.968 361.505 104.841 363.022 106.055C364.093 106.899 365.384 107.4 366.733 107.496C368.082 107.591 369.429 107.278 370.604 106.594C371.831 105.804 372.81 104.67 373.423 103.329C374.365 101.567 375.489 99.9127 376.776 98.3943C381.648 92.5982 388.42 89.0332 394.084 84.1564C396.827 81.8909 399.169 79.1616 401.006 76.0878C402.573 73.3062 403.548 70.2188 403.866 67.0272C404.544 60.5456 402.594 53.9357 399.313 48.4217C395.745 42.4979 390.618 37.7134 384.517 34.6118C377.662 31.0507 370.077 29.3162 362.474 28.4518C354.401 27.534 346.235 27.5369 338.123 27.6296C329.019 27.7329 319.932 28.1411 310.861 28.8542C301.778 29.5711 292.731 30.5902 283.719 31.9113C275.072 33.179 266.32 34.5003 257.855 36.7434C250.378 38.725 242.922 41.8223 237.338 47.4343C232.374 52.4242 228.921 59.2525 229.321 66.4936Z" fill="#C3D5E6"/>
<path d="M268.827 40.4419C260.755 41.9605 252.307 43.8199 245.534 48.3233C238.835 52.7774 234.763 59.78 235.159 66.1633C235.738 75.4872 245.459 82.4597 254.313 84.2866C262.794 86.0356 271.627 84.8511 280.98 83.5963C283.05 83.3187 285.19 83.0315 287.307 82.7818C310.329 80.0683 353.557 88.4267 355.386 88.7837L357.287 89.1549L367.35 102.359C369.641 97.159 373.623 92.5344 377.852 89.0884C379.787 87.5109 381.808 86.0461 383.761 84.6295C388.744 81.016 393.451 77.6026 396.049 72.9132C401.707 62.7008 395.022 48.4608 385.483 42.0679C374.736 34.8656 360.575 33.7359 346.872 33.5876C345.445 33.5722 344.017 33.5645 342.588 33.5645C317.847 33.5683 293.158 35.8703 268.827 40.4419Z" fill="#A3B8CC"/>
<path d="M262.387 51.7285C262.387 51.4454 262.441 51.165 262.547 50.9033C262.653 50.6416 262.809 50.4038 263.005 50.2034C263.201 50.003 263.434 49.8439 263.69 49.7353C263.947 49.6267 264.221 49.5706 264.499 49.5703H361.672C362.233 49.5703 362.771 49.7975 363.167 50.2018C363.564 50.6061 363.786 51.1544 363.786 51.7262C363.786 52.298 363.564 52.8464 363.167 53.2507C362.771 53.655 362.233 53.8822 361.672 53.8822H264.499C263.939 53.8816 263.402 53.6545 263.006 53.2507C262.61 52.8469 262.388 52.2995 262.387 51.7285Z" fill="#466A8C"/>
<path d="M262.387 64.9609C262.387 64.6778 262.441 64.3974 262.547 64.1357C262.653 63.874 262.809 63.6362 263.005 63.4358C263.201 63.2354 263.434 63.0763 263.69 62.9677C263.947 62.8591 264.221 62.803 264.499 62.8027H361.677C361.954 62.803 362.229 62.8591 362.486 62.9677C362.742 63.0763 362.975 63.2354 363.171 63.4358C363.367 63.6362 363.523 63.874 363.629 64.1357C363.735 64.3974 363.789 64.6778 363.789 64.9609C363.788 65.244 363.733 65.5243 363.627 65.7858C363.52 66.0472 363.364 66.2847 363.168 66.4847C362.971 66.6847 362.738 66.8433 362.481 66.9514C362.225 67.0594 361.95 67.1149 361.672 67.1146H264.499C263.939 67.114 263.402 66.8869 263.006 66.4832C262.61 66.0794 262.388 65.5319 262.387 64.9609Z" fill="#466A8C"/>
<path d="M348.236 78.1953C348.236 77.9122 348.29 77.6318 348.396 77.3701C348.502 77.1084 348.658 76.8706 348.854 76.6702C349.05 76.4698 349.283 76.3107 349.539 76.2021C349.796 76.0935 350.07 76.0374 350.348 76.0371H361.672C362.233 76.0371 362.771 76.2643 363.167 76.6686C363.564 77.0729 363.787 77.6213 363.787 78.1931C363.787 78.7648 363.564 79.3132 363.167 79.7175C362.771 80.1218 362.233 80.349 361.672 80.349H350.348C349.788 80.3484 349.251 80.1213 348.855 79.7175C348.459 79.3138 348.237 78.7663 348.236 78.1953Z" fill="#466A8C"/>
<path d="M135.7 41.2155C134.69 38.8347 133.156 36.7225 131.218 35.0421C129.279 33.3617 126.988 32.158 124.521 31.5239C119.044 30.0711 111.024 32.2842 106.906 35.4617C99.374 41.274 97.5358 61.2413 102.711 67.5512C103.74 67.509 107.292 67.4778 108.333 67.4476L109.807 63.6445V67.4102C117.938 67.2156 126.404 67.3374 134.874 67.4634C135.633 62.9959 137.442 45.513 135.7 41.2155Z" fill="#2F2E41"/>
<path d="M134.319 281.991H141.736L145.264 252.82L134.318 252.821L134.319 281.991Z" fill="#9E616A"/>
<path d="M69.396 277.288L76.5725 279.195L87.2025 251.875L76.61 249.061L69.396 277.288Z" fill="#9E616A"/>
<path d="M110.267 102.83L108.586 107.285L108.923 111.741L141.811 123.356L140.179 103.858L136.482 99.4023L110.267 102.83Z" fill="#FFB6B6"/>
<path d="M124.376 62.7354C130.864 62.7354 136.123 57.3727 136.123 50.7574C136.123 44.1421 130.864 38.7793 124.376 38.7793C117.889 38.7793 112.63 44.1421 112.63 50.7574C112.63 57.3727 117.889 62.7354 124.376 62.7354Z" fill="#9E616A"/>
<path d="M132.448 35.1599C130.19 33.7568 127.605 32.9978 124.962 32.9622C122.319 32.9267 119.715 33.6159 117.422 34.9579C115.13 36.2998 113.233 38.2451 111.93 40.5905C110.627 42.9358 109.966 45.595 110.016 48.29C116.419 49.9588 123.243 50.6568 130.474 48.6919L132.127 44.5668L133.101 48.695C135.313 50.2818 137.448 50.2789 139.507 48.6864C139.594 45.999 138.988 43.3353 137.749 40.9616C136.51 38.5879 134.682 36.5873 132.448 35.1599Z" fill="#2F2E41"/>
<path d="M132.48 278.258L144.204 277.545V282.667L155.351 290.517C155.901 290.904 156.316 291.461 156.534 292.106C156.752 292.751 156.762 293.45 156.563 294.102C156.364 294.753 155.966 295.322 155.427 295.727C154.888 296.131 154.237 296.349 153.568 296.349H139.61L137.204 291.282L136.265 296.349H131.002L132.48 278.258Z" fill="#2F2E41"/>
<path d="M67.8883 273.031L79.4097 275.356L78.1427 280.313L86.9869 290.775C87.4238 291.292 87.6872 291.938 87.7388 292.618C87.7904 293.298 87.6274 293.977 87.2736 294.556C86.9199 295.135 86.3938 295.584 85.7723 295.837C85.1508 296.089 84.4664 296.133 83.819 295.961L70.3125 292.371L69.2376 286.849L67.0754 291.51L61.9829 290.157L67.8883 273.031Z" fill="#2F2E41"/>
<path d="M70.3059 258.943L92.0453 213.382L98.8698 157.928C94.1645 149.018 102.903 130.886 102.903 130.886V123.273L136.754 129.785C143.677 149.041 147.035 169.441 146.655 189.946L145.291 263.66H145.719C146.429 263.66 147.11 263.948 147.612 264.46C148.114 264.972 148.396 265.666 148.396 266.39C148.396 267.114 148.114 267.808 147.612 268.32C147.11 268.832 146.429 269.12 145.719 269.12H132.333C131.623 269.12 130.942 268.832 130.44 268.32C129.938 267.808 129.656 267.114 129.656 266.39C129.656 265.666 129.938 264.972 130.44 264.46C130.942 263.948 131.623 263.66 132.333 263.66H132.678L123.069 169.883L111.895 216.16L84.8933 258.768C85.5821 258.823 86.2232 259.148 86.6821 259.674C87.141 260.201 87.3819 260.888 87.3542 261.592C87.3264 262.296 87.0323 262.962 86.5334 263.449C86.0346 263.937 85.37 264.208 84.6791 264.206H71.2932C70.6706 264.207 70.0673 263.986 69.5873 263.582C69.1072 263.177 68.7806 262.615 68.6636 261.991C68.5466 261.368 68.6466 260.722 68.9464 260.166C69.2462 259.609 69.727 259.177 70.3059 258.943Z" fill="#2F2E41"/>
<path d="M99.8426 135.553C99.9538 135.108 100.2 134.709 100.547 134.416C100.894 134.122 101.323 133.948 101.773 133.918C102.219 128.716 105.167 95.3555 105.279 94.3768L105.284 94.3354L106.137 75.7403C106.168 75.065 106.442 74.425 106.907 73.9425C107.371 73.4601 107.994 73.169 108.655 73.1249L113.164 72.8243C113.226 72.8222 113.285 72.7957 113.328 72.7503C113.371 72.705 113.395 72.6443 113.395 72.5812C113.395 72.0735 113.493 71.5707 113.683 71.1016C113.874 70.6325 114.153 70.2063 114.505 69.8473C114.857 69.4883 115.275 69.2035 115.735 69.0092C116.195 68.8149 116.688 68.7148 117.186 68.7148H130.535C131.4 68.7152 132.235 69.0373 132.883 69.6208C133.531 70.2042 133.949 71.0089 134.056 71.8837C134.062 71.9439 134.09 71.9996 134.135 72.0397C134.179 72.0798 134.237 72.1013 134.296 72.0999L134.298 72.0999C135.815 72.068 137.292 72.5917 138.463 73.5759C139.633 74.56 140.419 75.9394 140.678 77.4639C142.503 88.2914 146.16 112.866 144.352 126.528C143.722 131.283 144.008 138.436 144.247 142.416C144.27 142.8 144.219 143.186 144.096 143.55C143.974 143.915 143.782 144.251 143.531 144.539C144.064 144.696 144.516 145.057 144.792 145.547C145.068 146.036 145.147 146.616 145.013 147.164C144.874 147.726 144.522 148.208 144.034 148.505C143.546 148.802 142.963 148.89 142.412 148.748L101.396 138.205C100.845 138.063 100.372 137.704 100.081 137.207C99.7894 136.71 99.7037 136.115 99.8426 135.553Z" fill="#D3F279"/>
<path d="M224.12 296.999H0.637532C0.468447 296.999 0.30629 296.931 0.186728 296.809C0.0671674 296.687 0 296.522 0 296.349C0 296.177 0.0671674 296.012 0.186728 295.89C0.30629 295.768 0.468447 295.699 0.637532 295.699H224.12C224.289 295.699 224.451 295.768 224.571 295.89C224.69 296.012 224.757 296.177 224.757 296.349C224.757 296.522 224.69 296.687 224.571 296.809C224.451 296.931 224.289 296.999 224.12 296.999Z" fill="#D3F279"/>
<path d="M101.733 166.923C102.272 166.371 102.685 165.705 102.945 164.972C103.204 164.239 103.302 163.457 103.233 162.681C103.163 161.905 102.928 161.155 102.543 160.481C102.159 159.808 101.634 159.229 101.006 158.785L109.327 116.643L100.138 119.651L93.4779 160.414C92.8165 161.539 92.5827 162.872 92.8208 164.161C93.059 165.45 93.7525 166.605 94.7701 167.407C95.7876 168.21 97.0584 168.603 98.3417 168.514C99.625 168.425 100.832 167.859 101.733 166.923Z" fill="#9E616A"/>
<path d="M114.019 77.7613L108.318 73.373C108.318 73.373 103.289 73.0098 102.398 82.2583C101.507 91.5068 99.6782 109.53 99.6782 109.53L90.9543 150.732L103.031 153.435L112.375 108.971L117.98 95.767L114.019 77.7613Z" fill="#D3F279"/>
<path d="M188.065 89.6914C187.354 89.4079 186.59 89.287 185.827 89.3372C185.065 89.3875 184.322 89.6075 183.652 89.9819C182.982 90.3563 182.401 90.876 181.949 91.5043C181.498 92.1326 181.186 92.8542 181.038 93.6184L139.822 102.657L146.194 110.048L185.506 100.007C186.782 100.177 188.074 99.8635 189.138 99.1264C190.202 98.3893 190.964 97.2799 191.279 96.0083C191.595 94.7368 191.442 93.3914 190.849 92.2271C190.257 91.0628 189.266 90.1606 188.065 89.6914Z" fill="#9E616A"/>
<path d="M133.345 112.513C132.028 111.215 131.038 109.613 130.458 107.841L122.932 84.7668C122.383 83.0812 122.297 81.2742 122.684 79.5423C123.071 77.8104 123.917 76.2199 125.129 74.9439C126.341 73.6679 127.873 72.7553 129.558 72.3052C131.243 71.8552 133.017 71.8849 134.687 72.3913C136.572 72.9656 138.237 74.1202 139.454 75.697C140.671 77.2737 141.38 79.1956 141.484 81.1992L142.406 99.3574L172.819 94.8161L180.724 102.226L180.297 102.374C178.618 102.958 140.178 116.245 133.814 112.849C133.643 112.76 133.485 112.647 133.345 112.513Z" fill="#D3F279"/>
<path d="M189.269 74.9944C189.216 74.9944 189.163 74.9933 189.109 74.9912C188.484 74.9681 187.874 74.7913 187.33 74.476C186.786 74.1607 186.325 73.7162 185.986 73.1802C183.447 69.3105 180.331 65.8687 176.751 62.9792C174.584 61.2127 172.319 59.5702 170.129 57.9816C164.478 53.8848 159.157 50.0264 156.203 44.695C149.763 33.0696 157.347 16.8771 168.182 9.6153C180.335 1.4708 196.32 0.193274 211.784 0.0258521C213.391 0.0085225 214.999 -9.02844e-05 216.608 7.13535e-07C244.47 0.0108945 272.274 2.60327 299.676 7.74516C308.787 9.45937 318.325 11.5593 325.99 16.6556C333.609 21.7217 338.24 29.6996 337.788 36.9808C337.128 47.6102 326.078 55.5527 316.016 57.6292C306.425 59.6068 296.462 58.2703 285.914 56.855C283.585 56.5428 281.177 56.2197 278.796 55.9389C252.92 52.8891 204.31 62.2895 202.254 62.6913L200.213 63.0896L192.297 73.4777C191.941 73.9513 191.482 74.3345 190.957 74.5976C190.432 74.8607 189.854 74.9965 189.269 74.9944Z" fill="#1F4366"/>
<path d="M304.498 23.1402H195.129C194.498 23.1392 193.894 22.8831 193.448 22.4282C193.003 21.9732 192.752 21.3566 192.752 20.7136C192.752 20.0707 193.003 19.4541 193.448 18.9991C193.894 18.5442 194.498 18.2881 195.129 18.2871H304.498C305.129 18.2881 305.733 18.5442 306.179 18.9991C306.624 19.4541 306.874 20.0707 306.874 20.7136C306.874 21.3566 306.624 21.9732 306.179 22.4282C305.733 22.8831 305.129 23.1392 304.498 23.1402Z" fill="#6C8AA6"/>
<path d="M304.498 38.0347H195.129C194.816 38.0354 194.506 37.9732 194.217 37.8517C193.928 37.7302 193.665 37.5518 193.444 37.3267C193.222 37.1016 193.046 36.8342 192.926 36.5397C192.806 36.2453 192.744 35.9296 192.744 35.6107C192.744 35.2918 192.805 34.976 192.924 34.6813C193.044 34.3866 193.219 34.1188 193.44 33.8932C193.661 33.6676 193.923 33.4887 194.212 33.3666C194.501 33.2445 194.811 33.1816 195.124 33.1816H304.498C305.129 33.1826 305.733 33.4387 306.179 33.8936C306.624 34.3486 306.875 34.9652 306.875 35.6082C306.875 36.2511 306.624 36.8677 306.179 37.3227C305.733 37.7777 305.129 38.0337 304.498 38.0347Z" fill="#6C8AA6"/>
<path d="M207.874 52.9292H195.128C194.497 52.9292 193.892 52.6736 193.446 52.2185C193 51.7635 192.749 51.1463 192.749 50.5027C192.749 49.8592 193 49.2419 193.446 48.7869C193.892 48.3318 194.497 48.0762 195.128 48.0762H207.874C208.505 48.0762 209.11 48.3318 209.557 48.7869C210.003 49.2419 210.254 49.8592 210.254 50.5027C210.254 51.1463 210.003 51.7635 209.557 52.2185C209.11 52.6736 208.505 52.9292 207.874 52.9292Z" fill="#6C8AA6"/>
</g>
<defs>
<clipPath id="clip0_20_988">
<rect width="404" height="297" fill="white"/>
</clipPath>
</defs>
</svg>
