<svg width="347" height="302" viewBox="0 0 347 302" fill="none" xmlns="http://www.w3.org/2000/svg">
<g clip-path="url(#clip0_20_359)">
<path d="M298.911 76.4007H256.28C252.697 76.4007 249.782 73.4863 249.782 69.904V27.2857C249.782 23.7034 252.697 20.7891 256.28 20.7891H298.911C302.494 20.7891 305.409 23.7034 305.409 27.2857V69.904C305.409 73.4863 302.494 76.4007 298.911 76.4007ZM256.28 21.8285C253.265 21.8285 250.822 24.2718 250.822 27.2857V69.904C250.822 72.918 253.265 75.3612 256.28 75.3612H286.142C296.209 75.3612 304.37 67.2028 304.37 57.1388V27.2857C304.37 24.2718 301.926 21.8285 298.911 21.8285H256.28Z" fill="#F2F2F2"/>
<path d="M298.911 76.4007H256.28C252.697 76.4007 249.782 73.4863 249.782 69.904V27.2857C249.782 23.7034 252.697 20.7891 256.28 20.7891H298.911C302.494 20.7891 305.409 23.7034 305.409 27.2857V69.904C305.409 73.4863 302.494 76.4007 298.911 76.4007Z" fill="#ACD92B"/>
<path d="M277.335 11.4342C280.494 11.4342 283.054 8.87454 283.054 5.71708C283.054 2.55963 280.494 0 277.335 0C274.177 0 271.617 2.55963 271.617 5.71708C271.617 8.87454 274.177 11.4342 277.335 11.4342Z" fill="#A5CC33"/>
<path d="M243.038 160.45H200.407C196.824 160.45 193.909 157.535 193.909 153.953V111.335C193.909 107.752 196.824 104.838 200.407 104.838H243.038C246.621 104.838 249.536 107.752 249.536 111.335V153.953C249.536 157.535 246.621 160.45 243.038 160.45ZM200.407 105.877C197.392 105.877 194.948 108.321 194.948 111.335V153.953C194.948 156.967 197.392 159.41 200.407 159.41C226.966 159.41 248.497 137.886 248.497 111.335C248.497 108.321 246.053 105.877 243.038 105.877H200.407Z" fill="#A5CC33"/>
<path d="M221.462 95.482C224.621 95.482 227.181 92.9224 227.181 89.7649C227.181 86.6075 224.621 84.0479 221.462 84.0479C218.304 84.0479 215.744 86.6075 215.744 89.7649C215.744 92.9224 218.304 95.482 221.462 95.482Z" fill="#A5CC33"/>
<path d="M223.206 129.773C221.289 130.283 219.059 128.984 218.654 127.011C218.234 124.96 220.049 122.732 222.138 122.717C224.257 122.702 226.09 124.836 225.745 126.921C225.527 128.244 224.71 129.396 223.968 130.478C223.142 131.683 222.278 132.863 221.388 134.021C219.374 136.642 217.224 139.156 215.08 141.67C214.624 142.205 214.944 142.938 215.632 143.001L227.83 144.117C228.83 144.208 228.823 142.648 227.83 142.558L215.632 141.442L216.183 142.773C218.545 140.002 220.905 137.227 223.104 134.324C224.156 132.935 225.218 131.526 226.123 130.035C226.919 128.723 227.523 127.227 227.293 125.668C226.897 122.98 224.224 120.821 221.498 121.213C218.79 121.602 216.702 124.371 217.092 127.079C217.52 130.051 220.768 132.035 223.62 131.277C224.589 131.019 224.178 129.515 223.206 129.773Z" fill="#9FBF43"/>
<path d="M340.502 212.572H297.871C294.288 212.572 291.373 209.657 291.373 206.075V163.457C291.373 159.874 294.288 156.96 297.871 156.96H340.502C344.085 156.96 347 159.874 347 163.457V206.075C347 209.657 344.085 212.572 340.502 212.572ZM297.871 157.999C294.856 157.999 292.412 160.443 292.412 163.457V206.075C292.412 209.089 294.856 211.532 297.871 211.532C324.43 211.532 345.96 190.008 345.96 163.457C345.96 160.443 343.516 157.999 340.502 157.999H297.871Z" fill="#A5CC33"/>
<path d="M318.926 147.605C322.085 147.605 324.645 145.045 324.645 141.888C324.645 138.731 322.085 136.171 318.926 136.171C315.768 136.171 313.208 138.731 313.208 141.888C313.208 145.045 315.768 147.605 318.926 147.605Z" fill="#A5CC33"/>
<path d="M314.45 175.651C317.119 174.295 320.668 175.287 321.643 178.28C322.061 179.563 321.923 180.984 321.081 182.069C320.218 183.181 318.873 183.78 317.475 183.641V185.2C319.22 185.313 320.97 185.942 322.197 187.225C323.313 188.391 323.875 190.162 323.424 191.739C322.986 193.268 321.521 194.404 319.934 194.487C318.353 194.569 316.786 193.556 316.192 192.088C315.821 191.169 314.312 191.571 314.689 192.502C316.017 195.789 320.066 197.133 322.976 194.948C325.944 192.719 325.643 188.333 323.083 185.905C321.566 184.466 319.532 183.774 317.475 183.641C316.463 183.575 316.492 185.102 317.475 185.2C319.333 185.386 321.165 184.485 322.295 183.027C323.431 181.562 323.717 179.622 323.147 177.865C321.855 173.88 317.247 172.483 313.663 174.305C312.768 174.76 313.557 176.106 314.45 175.651Z" fill="#9FBF43"/>
<path d="M82.1188 216.209H39.4883C35.905 216.209 32.9897 213.295 32.9897 209.713V167.094C32.9897 163.512 35.905 160.598 39.4883 160.598H82.1188C85.7022 160.598 88.6174 163.512 88.6174 167.094V209.713C88.6174 213.295 85.7022 216.209 82.1188 216.209Z" fill="#466A8C"/>
<path d="M66.0293 167.642C68.6307 166.283 69.6377 163.073 68.2784 160.473C68.1416 160.211 67.9815 159.97 67.8097 159.741L74.8756 112.263L64.4299 112.33L60.071 158.939C58.265 160.516 57.6976 163.175 58.8576 165.394C60.2169 167.995 63.4278 169.001 66.0293 167.642Z" fill="#FFB6B6"/>
<path d="M67.74 79.1235C67.74 79.1235 64.618 78.2743 64.1642 85.1124C63.8009 90.5868 58.3444 123.941 59.87 131.404C57.9206 132.302 56.7452 134.429 57.1498 136.636L72.9229 135.219C75.0866 132.358 75.0979 129.152 73.858 128.483L75.1246 118.655L82.446 86.639L70.0077 79.6972L67.74 79.1235Z" fill="#9FBF43"/>
<path d="M78.0855 289.335L84.0796 289.335L86.9311 266.222L78.0845 266.222L78.0855 289.335Z" fill="#FFB6B6"/>
<path d="M86.0739 289.875V285.812L84.4981 285.909L78.0836 286.289L76.5991 286.38L75.4641 299.985L75.4033 300.715H79.6594L79.7962 299.99L80.4143 296.698L82.0104 299.99L82.36 300.715H93.6436C94.3175 300.715 94.9306 300.451 95.3815 300.016C95.873 299.555 96.177 298.901 96.177 298.177C96.6533 295.953 87.2697 291.146 86.0739 289.875Z" fill="#2F2E41"/>
<path d="M51.7666 282.452L58.4638 283.775L64.7024 262.466L57.9798 260.189L51.7666 282.452Z" fill="#FFB6B6"/>
<path d="M59.3163 285.118L60.4085 281.206L58.8649 280.875L52.5843 279.517L51.1298 279.206L46.3787 292.006L46.124 292.692L50.2235 293.836L50.55 293.175L52.0306 290.17L52.6827 293.77L52.8247 294.561L63.6931 297.593C64.3422 297.774 65.0035 297.685 65.555 297.387C66.1523 297.075 66.6208 296.527 66.8155 295.83C67.8721 293.816 60.1262 286.664 59.3163 285.118Z" fill="#2F2E41"/>
<path d="M107.772 159.075L107.926 157.454L101.26 139.182L72.8475 144.659C72.8475 144.659 58.2042 162.692 61.4605 174.629C62.3436 177.866 64.2311 216.022 63.6628 217.249C50.5753 245.508 54.2315 265.441 54.2315 265.441C54.2315 265.441 58.3679 269.048 65.4533 270.835C67.302 271.302 81.36 207.906 81.36 207.906C81.36 207.906 80.7407 211.862 79.8772 217.877C77.2093 236.46 73.0186 273.87 76.7419 275.807C81.6705 278.371 86.3854 277.895 86.3854 277.895C86.3854 277.895 101.751 231.738 98.4951 220.887" fill="#2F2E41"/>
<path d="M93.8165 80.5588L85.0413 71.1241L78.3707 70.7363L69.3819 80.039L66.049 89.4366C62.3181 98.4966 61.4648 108.485 63.6047 118.046L68.7243 140.921C68.7243 140.921 69.5128 143.616 67.4465 143.94C65.3802 144.264 65.628 148.237 65.628 148.237C65.628 148.237 66.0487 151.681 64.0423 151.984C62.0358 152.287 56.6856 152.287 61.3673 158.305C66.049 164.323 103.079 141.563 103.079 141.563L103.258 113.351C103.258 113.351 113.688 99.3457 102.456 91.3246L93.8165 80.5588Z" fill="#9FBF43"/>
<path d="M115.911 179.828H73.2808C69.6974 179.828 66.7822 176.914 66.7822 173.332V130.713C66.7822 127.131 69.6974 124.217 73.2808 124.217H115.911C119.495 124.217 122.41 127.131 122.41 130.713V173.332C122.41 176.914 119.495 179.828 115.911 179.828Z" fill="#ACD92B"/>
<path d="M109.437 158.87C111.401 156.689 111.225 153.329 109.044 151.366C108.824 151.168 108.59 150.998 108.349 150.844L98.4076 103.883L88.6411 107.588L100.816 152.79C99.6741 154.898 100.07 157.588 101.931 159.263C104.112 161.226 107.473 161.05 109.437 158.87Z" fill="#FFB6B6"/>
<path d="M89.7186 80.3128C89.7186 80.3128 92.6662 78.9788 94.2001 85.6582C95.4282 91.0055 106.112 123.071 105.791 130.681C107.859 131.258 109.357 133.171 109.308 135.416L93.5098 136.52C90.9191 134.038 90.3989 130.875 91.5168 130.017L88.7054 120.515L76.3926 90.067L87.5708 81.2392L89.7186 80.3128Z" fill="#9FBF43"/>
<path d="M105.662 292.599C106.736 292.666 107.329 291.332 106.517 290.554L106.436 290.233C106.446 290.207 106.457 290.182 106.468 290.156C107.554 287.567 111.235 287.585 112.312 290.178C113.268 292.479 114.485 294.784 114.785 297.218C114.919 298.292 114.858 299.386 114.62 300.44C116.86 295.549 118.038 290.209 118.038 284.838C118.038 283.488 117.964 282.139 117.813 280.793C117.689 279.692 117.518 278.597 117.296 277.513C116.097 271.652 113.502 266.069 109.758 261.406C107.958 260.423 106.457 258.885 105.55 257.043C105.225 256.378 104.97 255.663 104.849 254.934C105.053 254.961 105.621 251.843 105.466 251.651C105.752 251.218 106.263 251.003 106.575 250.581C108.125 248.479 110.261 248.846 111.376 251.702C113.759 252.904 113.782 254.897 112.32 256.814C111.39 258.034 111.262 259.684 110.446 260.99C110.53 261.098 110.617 261.202 110.701 261.309C112.241 263.283 113.572 265.405 114.695 267.634C114.377 265.156 114.846 262.172 115.644 260.248C116.553 258.056 118.257 256.21 119.757 254.316C121.559 252.04 125.254 253.033 125.571 255.918C125.574 255.946 125.577 255.974 125.58 256.002C125.357 256.128 125.139 256.261 124.926 256.402C123.709 257.206 124.13 259.091 125.571 259.313L125.604 259.318C125.523 260.121 125.385 260.916 125.184 261.699C127.108 269.139 122.954 271.849 117.021 271.971C116.89 272.038 116.762 272.105 116.631 272.169C117.232 273.861 117.713 275.596 118.069 277.355C118.388 278.909 118.609 280.48 118.733 282.058C118.888 284.049 118.874 286.049 118.707 288.037L118.717 287.966C119.143 285.778 120.332 283.733 122.058 282.317C124.629 280.205 128.261 279.428 131.035 277.73C132.37 276.913 134.081 277.969 133.848 279.517L133.837 279.591C133.424 279.759 133.021 279.953 132.632 280.172C132.409 280.297 132.19 280.431 131.977 280.572C130.761 281.376 131.181 283.261 132.622 283.483L132.655 283.488C132.679 283.491 132.699 283.495 132.722 283.498C132.014 285.18 131.027 286.741 129.791 288.087C128.588 294.582 123.419 295.199 117.891 293.307H117.887C117.283 295.939 116.4 298.51 115.265 300.961H105.896C105.863 300.857 105.832 300.749 105.802 300.645C106.669 300.699 107.542 300.649 108.395 300.491C107.699 299.638 107.004 298.779 106.309 297.926C106.293 297.909 106.279 297.893 106.266 297.876C105.913 297.439 105.557 297.006 105.205 296.57L105.204 296.569C105.182 295.23 105.343 293.894 105.662 292.599Z" fill="#A5CC33"/>
<path d="M32.0204 293.638C30.9463 293.705 30.3527 292.371 31.1653 291.593L31.2462 291.272C31.2355 291.246 31.2248 291.221 31.214 291.195C30.1279 288.606 26.4467 288.624 25.3698 291.217C24.414 293.518 23.197 295.824 22.8974 298.257C22.763 299.331 22.8235 300.425 23.0619 301.48C20.8222 296.589 19.6436 291.248 19.6436 285.877C19.6436 284.527 19.7175 283.178 19.8685 281.832C19.9928 280.731 20.164 279.636 20.3857 278.552C21.5844 272.691 24.1801 267.108 27.9241 262.446C29.7239 261.462 31.2248 259.925 32.1315 258.082C32.4572 257.417 32.7124 256.702 32.8333 255.973C32.6284 256 32.0609 252.882 32.2154 252.69C31.93 252.257 31.4191 252.042 31.1073 251.62C29.5569 249.518 27.4207 249.885 26.3056 252.741C23.9233 253.943 23.9003 255.936 25.362 257.853C26.292 259.073 26.4197 260.723 27.2357 262.029C27.1517 262.137 27.0644 262.241 26.9805 262.348C25.4411 264.322 24.1096 266.444 22.9872 268.673C23.3045 266.195 22.8361 263.211 22.0377 261.287C21.1289 259.096 19.4253 257.25 17.9252 255.355C16.1233 253.079 12.4283 254.072 12.1108 256.957C12.1077 256.985 12.1047 257.013 12.1018 257.041C12.3246 257.167 12.5429 257.3 12.7562 257.441C13.9724 258.245 13.5521 260.13 12.1109 260.353L12.0783 260.358C12.1589 261.16 12.2966 261.955 12.498 262.738C10.5735 270.178 14.7284 272.888 20.661 273.01C20.7919 273.077 20.9196 273.144 21.0505 273.208C20.4495 274.9 19.9693 276.635 19.6134 278.394C19.2944 279.948 19.0727 281.519 18.9485 283.097C18.794 285.088 18.8075 287.089 18.9754 289.076L18.9653 289.005C18.5389 286.817 17.3502 284.772 15.6242 283.356C13.053 281.244 9.42051 280.467 6.64669 278.769C5.31146 277.952 3.60046 279.008 3.83349 280.556L3.84483 280.63C4.25785 280.798 4.66078 280.992 5.0503 281.211C5.27312 281.336 5.49141 281.47 5.70464 281.611C6.92091 282.415 6.50057 284.3 5.05943 284.522L5.02677 284.527C5.00327 284.531 4.98312 284.534 4.95965 284.537C5.66816 286.219 6.65535 287.78 7.89104 289.126C9.09438 295.621 14.2628 296.238 19.7913 294.346H19.7947C20.3991 296.978 21.2822 299.549 22.4172 302H31.7856C31.8192 301.896 31.8494 301.788 31.8796 301.684C31.0133 301.738 30.1403 301.688 29.2873 301.53C29.9824 300.677 30.6775 299.818 31.3726 298.965C31.3894 298.948 31.4028 298.932 31.4162 298.915C31.7688 298.479 32.1248 298.045 32.4773 297.609L32.4775 297.609C32.4996 296.269 32.3387 294.933 32.0204 293.638Z" fill="#A5CC33"/>
<path d="M0 301.172C0 301.515 0.275554 301.791 0.618694 301.791H132.3C132.643 301.791 132.919 301.515 132.919 301.172C132.919 300.829 132.643 300.554 132.3 300.554H0.618694C0.275554 300.554 0 300.829 0 301.172Z" fill="#CCCCCC"/>
<path d="M84.9945 64.5687C92.0108 64.5687 97.6985 58.8825 97.6985 51.8683C97.6985 44.8541 92.0108 39.168 84.9945 39.168C77.9783 39.168 72.2905 44.8541 72.2905 51.8683C72.2905 58.8825 77.9783 64.5687 84.9945 64.5687Z" fill="#FFB6B6"/>
<path d="M96.8774 51.373C96.9138 51.373 97.0022 51.373 97.1686 51.3782C97.6521 51.4094 96.997 51.3834 96.8774 51.373Z" fill="#2F2E41"/>
<path d="M103.641 50.1616C103.547 50.3903 103.241 50.5774 102.809 50.7281C101.988 49.6834 100.922 48.8363 99.7055 48.3113C100.251 49.2001 100.698 50.146 101.031 51.1335C99.851 51.305 98.5357 51.3778 97.6883 51.383C97.4856 51.383 97.3088 51.383 97.1684 51.3778C96.9605 51.0088 96.6278 50.4111 96.3418 49.7926C96.3158 51.4817 93.9607 56.4608 94.1531 60.6706C94.387 65.7068 94.6522 71.2005 94.6522 71.2005C93.8048 71.4136 92.7806 71.5643 91.6109 71.6578C90.3215 69.293 89.3649 66.6476 88.8503 63.9657C88.7931 63.6799 88.7463 63.394 88.6995 63.1082C88.5903 63.4356 88.4863 63.7682 88.398 64.1061C88.008 65.5093 87.7793 67.0218 87.7065 68.5914C87.6545 69.6257 87.6753 70.6755 87.7533 71.741C81.3379 73.0455 73.4045 72.9104 67.665 69.7244C67.8573 69.1995 68.0029 68.659 68.0965 68.108C68.4084 66.2993 65.8922 66.0447 64.2181 67.1517C62.5441 65.473 61.2756 63.342 60.5894 60.6758C71.5277 55.8787 60.0123 49.9745 68.4604 41.4664C67.4414 34.0758 87.8521 31.9397 91.8032 38.5091C92.6662 37.8543 95.354 37.8854 96.4978 38.3636C97.6415 38.8417 98.5253 39.6474 99.3883 40.427C99.9654 40.9571 99.6951 42.0121 99.3259 42.8022C101.14 41.9342 105.19 46.4455 103.641 50.1616Z" fill="#2F2E41"/>
</g>
<defs>
<clipPath id="clip0_20_359">
<rect width="347" height="302" fill="white"/>
</clipPath>
</defs>
</svg>
