<svg width="407" height="306" viewBox="0 0 407 306" fill="none" xmlns="http://www.w3.org/2000/svg">
<g clip-path="url(#clip0_20_392)">
<path d="M349.689 227.303V263.068H57.311V42.9316H349.689V227.303Z" fill="#D3F279"/>
<path d="M57.311 262.734V263.402H349.689V262.734H57.311ZM57.311 42.5977V43.2649H349.689V42.5977H57.311Z" fill="#F2F2F2"/>
<path d="M311.82 239.067C311.904 239.04 311.978 239.007 312.062 238.98C312.397 238.86 312.751 238.753 313.113 238.66H313.123C313.121 238.626 313.124 238.593 313.132 238.56C312.695 238.727 312.258 238.9 311.82 239.067ZM307.587 242.11C307.606 242.09 307.615 242.07 307.634 242.05C307.727 241.923 307.839 241.79 307.95 241.663C308.836 240.675 309.924 239.89 311.141 239.361C311.228 239.315 311.319 239.275 311.411 239.241C311.52 239.188 311.632 239.141 311.746 239.1C311.774 239.087 311.792 239.08 311.82 239.067C309.094 240.115 306.341 241.136 303.55 242.11H307.587ZM0 42.2646L2.07511 76.7354L407 43.5992V42.2646H0ZM407 227.303V263.736H0V262.401L24.1293 226.87L181.549 262.401C214.162 262.479 246.645 258.295 278.171 249.957C278.804 249.797 279.427 249.623 280.05 249.45C282.785 248.702 285.474 247.928 288.163 247.114H288.19C293.4 245.56 298.52 243.891 303.55 242.11C306.313 241.142 309.045 240.139 311.746 239.1C311.769 239.087 311.794 239.075 311.82 239.067C312.258 238.9 312.695 238.727 313.132 238.56L314.779 237.919H314.807C320.686 235.597 326.398 233.128 331.999 230.519C332.408 230.333 332.808 230.146 333.208 229.952C336.455 228.424 339.652 226.847 342.799 225.221C346.744 223.193 350.605 221.093 354.382 218.922C362.122 214.478 369.506 209.75 376.532 204.736C383.766 199.598 390.711 194.064 397.334 188.162C400.013 185.773 402.615 183.337 405.139 180.855C405.763 180.241 406.386 179.627 407 179.007V227.303Z" fill="#A5CC33"/>
<path d="M113.843 225.055H57.311V228.104H113.843C114.248 228.104 114.637 227.943 114.923 227.658C115.209 227.372 115.37 226.984 115.37 226.579C115.37 226.175 115.209 225.787 114.923 225.501C114.637 225.215 114.248 225.055 113.843 225.055Z" fill="#ACD92B"/>
<path d="M113.843 214.378H57.311V217.427H113.843C114.248 217.427 114.637 217.267 114.923 216.981C115.209 216.695 115.37 216.307 115.37 215.903C115.37 215.498 115.209 215.11 114.923 214.824C114.637 214.539 114.248 214.378 113.843 214.378Z" fill="#ACD92B"/>
<path d="M114.298 203.769C114.225 203.748 114.152 203.733 114.077 203.722C114 203.709 113.922 203.702 113.843 203.702H57.311V206.752H113.843C114.203 206.749 114.55 206.622 114.826 206.391C115.035 206.215 115.192 205.986 115.282 205.728C115.372 205.47 115.391 205.192 115.337 204.924C115.283 204.657 115.158 204.408 114.975 204.205C114.793 204.002 114.559 203.851 114.298 203.769Z" fill="#ACD92B"/>
<path d="M134.507 199.611L129.528 177.552L127.905 170.365C127.77 169.772 127.405 169.257 126.89 168.933C126.374 168.609 125.752 168.502 125.158 168.637L122.705 169.191L103.037 173.621C102.743 173.687 102.465 173.811 102.219 173.984C101.974 174.157 101.764 174.377 101.603 174.631C101.443 174.885 101.334 175.168 101.283 175.465C101.232 175.761 101.239 176.064 101.306 176.357C100.25 186.173 102.335 195.227 106.859 203.702C107.194 204.335 107.548 204.969 107.915 205.603C108.013 206.042 108.238 206.441 108.564 206.751C108.837 207.012 109.172 207.202 109.537 207.303C109.901 207.404 110.286 207.414 110.655 207.331L113.235 206.751L114.826 206.391L132.776 202.347C133.369 202.213 133.885 201.85 134.209 201.337C134.534 200.824 134.641 200.203 134.507 199.611Z" fill="#BAEB2F"/>
<path d="M132.449 198.384L127.704 177.399L126.568 172.361C126.443 171.806 126.102 171.324 125.621 171.02C125.14 170.716 124.557 170.615 124.002 170.74L122.491 171.08L104.988 175.023C104.433 175.148 103.95 175.488 103.645 175.969C103.34 176.449 103.239 177.031 103.364 177.586C103.518 185.226 104.32 192.159 107.615 196.389C107.99 198.035 108.794 199.552 109.947 200.786C111.1 202.02 112.559 202.927 114.177 203.415C114.217 203.429 114.251 203.442 114.291 203.455C114.318 203.462 114.351 203.475 114.378 203.482C115.901 203.91 117.506 203.951 119.049 203.602L130.825 200.947C131.38 200.822 131.864 200.481 132.168 200.001C132.473 199.521 132.574 198.939 132.449 198.384Z" fill="#B1E322"/>
<path d="M115.011 182.02C115.398 181.574 115.92 181.265 116.497 181.139C117.075 181.013 117.678 181.078 118.216 181.322C118.754 181.608 119.185 182.06 119.444 182.61C119.703 183.161 119.775 183.781 119.651 184.376C119.442 185.753 118.722 187.006 118.657 188.416C118.598 189.033 118.706 189.655 118.969 190.216C119.233 190.778 119.642 191.259 120.155 191.609C120.94 192.085 121.748 190.907 120.959 190.428C119.661 189.641 120.097 187.91 120.474 186.73C120.944 185.257 121.434 183.754 120.852 182.236C120.595 181.6 120.182 181.039 119.651 180.604C119.12 180.168 118.489 179.873 117.814 179.745C117.139 179.616 116.443 179.658 115.789 179.868C115.135 180.077 114.544 180.447 114.07 180.944C113.451 181.611 114.384 182.695 115.011 182.02Z" fill="#9FBF43"/>
<path d="M121.311 195.726C122.101 195.726 122.742 195.086 122.742 194.297C122.742 193.509 122.101 192.869 121.311 192.869C120.521 192.869 119.881 193.509 119.881 194.297C119.881 195.086 120.521 195.726 121.311 195.726Z" fill="#9FBF43"/>
<path d="M291.875 140.015C290.428 139.074 288.778 138.491 287.06 138.315C285.343 138.138 283.608 138.373 282 139C280.391 139.627 278.956 140.628 277.813 141.92C276.67 143.211 275.851 144.757 275.426 146.427L255.504 198.253L221.262 178.843C221.111 176.612 220.257 174.486 218.822 172.77C217.386 171.053 215.443 169.835 213.271 169.289C211.1 168.743 208.81 168.899 206.732 169.732C204.654 170.566 202.894 172.035 201.704 173.929C200.514 175.824 199.955 178.046 200.108 180.276C200.261 182.507 201.117 184.633 202.555 186.347C203.992 188.062 205.936 189.278 208.109 189.822C210.281 190.365 212.57 190.207 214.648 189.371C221.859 197.056 253.122 228.562 266.065 216.251C276.944 205.904 292.644 165.802 296.423 151.954C297.028 149.739 296.914 147.39 296.097 145.245C295.279 143.099 293.801 141.268 291.875 140.015Z" fill="#A0616A"/>
<path d="M254.468 218.423L260.754 246.793L306.723 250.945L310.949 226.242L254.468 218.423Z" fill="#A0616A"/>
<path d="M318.823 262.736H253.562L256.951 252.573L258.06 237.493L258.695 237.507L308.885 238.341L309.794 238.354L311.338 251.299C314.281 254.799 316.794 258.639 318.823 262.736Z" fill="#2F2E41"/>
<path d="M283.159 126.267L306.04 125.09L316.668 141.857C316.668 141.857 326.922 143.957 325.536 167.483C324.15 191.01 310.949 212.892 310.949 212.892L311.929 209.535L310.226 214.394L310.444 217.123L312.768 220.012L313.007 223.001L310.949 227.729L313.748 232.256L254.886 226.563L252.733 218.734L255.873 214.53L254.119 209.046L256.756 203.772L258.131 202.628C258.131 202.628 243.089 180.065 260.357 163.071L267.287 151.308L275.042 141.862L283.159 126.267Z" fill="#9FBF43"/>
<path d="M208.073 159.246C201.883 157.038 193.867 157.899 189.523 163.281C185.632 168.102 185.165 175.777 190.116 180.079C196.142 185.316 204.489 183.39 211.069 180.435C217.09 177.732 223.718 173.373 223.625 165.975C223.611 164.074 223.143 162.203 222.26 160.518C221.378 158.833 220.106 157.383 218.55 156.287C216.971 155.221 215.163 154.541 213.272 154.302C211.381 154.063 209.46 154.272 207.665 154.911C206.076 155.49 206.762 158.049 208.37 157.462C209.664 156.971 211.052 156.774 212.432 156.885C213.812 156.997 215.15 157.414 216.348 158.107C217.546 158.8 218.575 159.751 219.358 160.891C220.142 162.03 220.661 163.33 220.879 164.696C221.808 170.838 216.552 174.816 211.668 177.239C206.309 179.898 199.489 182.441 193.752 179.387C188.845 176.774 187.948 170.815 190.668 166.238C194.041 160.565 201.635 159.753 207.368 161.798C208.977 162.372 209.67 159.816 208.073 159.246Z" fill="#1F4366"/>
<path d="M89.6027 107.885C85.157 106.299 79.3995 106.917 76.2794 110.783C73.4848 114.245 73.1496 119.758 76.7053 122.848C81.0338 126.609 87.0286 125.226 91.7548 123.104C96.0795 121.162 100.84 118.031 100.773 112.718C100.763 111.352 100.427 110.009 99.7929 108.798C99.1591 107.588 98.2455 106.546 97.128 105.759C95.9938 104.994 94.6952 104.505 93.3371 104.334C91.979 104.162 90.5995 104.312 89.3101 104.771C88.1687 105.187 88.6617 107.025 89.8161 106.603C90.7457 106.25 91.7424 106.109 92.7337 106.189C93.725 106.269 94.6859 106.569 95.5465 107.067C96.4071 107.564 97.1458 108.247 97.7087 109.066C98.2716 109.884 98.6446 110.818 98.8005 111.799C99.4682 116.21 95.6932 119.067 92.1849 120.808C88.3362 122.717 83.4376 124.545 79.3173 122.351C75.7928 120.474 75.1483 116.194 77.1023 112.907C79.5248 108.832 84.9787 108.248 89.0966 109.717C90.2524 110.129 90.7499 108.294 89.6027 107.885Z" fill="#ACD92B"/>
<path d="M143.626 120.471C150.032 118.731 154.267 113.808 153.087 109.474C151.906 105.141 145.756 103.038 139.351 104.777C132.946 106.517 128.71 111.44 129.891 115.774C131.071 120.107 137.221 122.21 143.626 120.471Z" fill="#ACD92B"/>
<path d="M113.844 105.361L113.868 120.304C113.877 120.563 113.986 120.809 114.173 120.989C114.36 121.17 114.61 121.271 114.87 121.271C115.13 121.271 115.38 121.17 115.567 120.989C115.754 120.809 115.864 120.563 115.873 120.304L115.849 105.361C115.84 105.102 115.731 104.856 115.544 104.676C115.357 104.495 115.107 104.395 114.847 104.395C114.587 104.395 114.337 104.495 114.15 104.676C113.963 104.856 113.853 105.102 113.844 105.361Z" fill="#ACD92B"/>
<path d="M106.852 113.399L121.439 113.435C121.699 113.426 121.945 113.317 122.126 113.13C122.306 112.943 122.407 112.694 122.407 112.434C122.407 112.174 122.306 111.925 122.126 111.738C121.945 111.551 121.699 111.442 121.439 111.433L106.852 111.397C106.592 111.406 106.346 111.516 106.165 111.703C105.985 111.889 105.884 112.139 105.884 112.398C105.884 112.658 105.985 112.907 106.165 113.094C106.346 113.281 106.592 113.39 106.852 113.399Z" fill="#ACD92B"/>
<path d="M58.0929 120.688C58.1112 120.914 58.0394 121.138 57.893 121.312C57.7466 121.485 57.5374 121.594 57.311 121.615V119.653C57.5414 119.708 57.7454 119.841 57.8881 120.03C58.0308 120.219 58.1032 120.451 58.0929 120.688Z" fill="#F2F2F2"/>
<path d="M61.6779 122.003C62.4161 122.003 63.0145 121.406 63.0145 120.669C63.0145 119.931 62.4161 119.334 61.6779 119.334C60.9397 119.334 60.3413 119.931 60.3413 120.669C60.3413 121.406 60.9397 122.003 61.6779 122.003Z" fill="#ACD92B"/>
<path d="M106.358 242.109C103.925 242.109 101.94 243.758 101.94 245.779C101.94 247.801 103.925 249.449 106.358 249.449H349.689V242.109H106.358Z" fill="#D3F279"/>
<path d="M291.453 242.109V249.449H106.358C103.925 249.449 101.94 247.801 101.94 245.779C101.94 243.758 103.925 242.109 106.358 242.109H291.453Z" fill="#466A8C"/>
<path d="M284.77 252.893C288.83 252.893 292.121 249.606 292.121 245.553C292.121 241.499 288.83 238.213 284.77 238.213C280.71 238.213 277.418 241.499 277.418 245.553C277.418 249.606 280.71 252.893 284.77 252.893Z" fill="#335B80"/>
<path d="M97.9442 137.249H57.311V140.305H97.9442C98.3501 140.305 98.7394 140.144 99.0264 139.858C99.3134 139.571 99.4746 139.182 99.4746 138.777C99.4746 138.372 99.3134 137.983 99.0264 137.697C98.7394 137.41 98.3501 137.249 97.9442 137.249Z" fill="#B1E322"/>
<path d="M199.77 112.947C201.096 109.546 206.003 108.426 208.719 110.788C210.339 112.198 211.547 114.135 213.69 114.827C216.002 115.574 218.196 114.341 220.171 113.272C221.188 112.648 222.31 112.215 223.483 111.992C224.545 111.875 225.619 111.967 226.645 112.262C228.926 112.861 231.02 114.005 233.187 114.906C235.517 115.895 238.03 116.382 240.562 116.333C243.573 116.288 246.585 116.169 249.596 116.085C252.968 115.99 256.34 115.895 259.711 115.801C263.036 115.783 266.353 115.499 269.632 114.952C270.898 114.712 270.362 112.782 269.099 113.022C266.101 113.519 263.068 113.775 260.029 113.79C256.939 113.878 253.848 113.965 250.758 114.05C247.614 114.138 244.47 114.233 241.326 114.315C239.926 114.404 238.52 114.33 237.137 114.095C235.965 113.831 234.821 113.456 233.72 112.975C231.482 112.037 229.314 110.848 226.941 110.272C224.681 109.694 222.287 109.953 220.203 111.001C218.291 111.932 215.938 113.859 213.735 112.685C211.821 111.665 210.77 109.533 208.877 108.446C204.914 106.171 199.468 108.231 197.837 112.415C197.369 113.616 199.307 114.137 199.77 112.947Z" fill="#ACD92B"/>
<path d="M204.91 128.952C206.332 126.849 207.933 124.432 210.529 123.717C211.09 123.537 211.684 123.483 212.269 123.558C212.854 123.633 213.415 123.836 213.913 124.152C214.833 124.77 215.536 125.672 216.416 126.345C218.274 127.765 220.328 127.544 222.326 126.562C224.015 125.733 225.919 124.093 227.922 124.75C229.321 125.209 230.411 126.33 231.765 126.902C232.391 127.213 233.083 127.37 233.782 127.361C234.481 127.352 235.168 127.176 235.785 126.848C236.005 126.709 236.163 126.491 236.224 126.239C236.286 125.986 236.247 125.72 236.116 125.496C235.985 125.271 235.771 125.107 235.521 125.037C235.27 124.967 235.002 124.996 234.773 125.12C233.618 125.795 232.268 124.997 231.28 124.358C230.251 123.564 229.07 122.989 227.809 122.669C225.572 122.291 223.67 123.585 221.792 124.587C220.968 125.135 219.996 125.416 219.006 125.393C217.913 125.246 217.12 124.333 216.365 123.618C215.563 122.77 214.566 122.128 213.461 121.748C212.194 121.41 210.854 121.465 209.618 121.905C206.675 122.912 204.848 125.474 203.179 127.941C202.455 129.012 204.191 130.015 204.91 128.952Z" fill="#ACD92B"/>
<path d="M179.99 106.59C179.666 106.76 179.299 106.829 178.936 106.787C178.573 106.745 178.231 106.595 177.955 106.356C177.679 106.117 177.481 105.801 177.388 105.448C177.295 105.095 177.311 104.722 177.434 104.379C178.017 102.904 180.139 103.245 180.942 104.282C182.089 105.762 181.559 107.814 180.509 109.174C179.208 110.86 177.204 111.817 175.342 112.744C175.176 112.847 175.042 112.995 174.958 113.171C174.874 113.347 174.843 113.543 174.868 113.736C174.894 113.93 174.974 114.112 175.101 114.26C175.228 114.409 175.394 114.518 175.581 114.574L182.944 116.169C184.202 116.442 184.739 114.513 183.477 114.239L176.115 112.643L176.354 114.473C178.447 113.431 180.58 112.315 182.046 110.437C182.744 109.622 183.222 108.642 183.435 107.591C183.648 106.54 183.589 105.452 183.263 104.43C182.944 103.465 182.302 102.64 181.444 102.094C180.586 101.548 179.566 101.314 178.555 101.432C178.05 101.491 177.563 101.653 177.125 101.91C176.686 102.167 176.306 102.512 176.009 102.924C175.711 103.335 175.503 103.805 175.398 104.301C175.292 104.798 175.292 105.311 175.396 105.807C175.888 108.365 178.794 109.422 181.002 108.318C182.156 107.742 181.141 106.014 179.99 106.59Z" fill="#ACD92B"/>
<path d="M186.986 116.999C187.724 116.999 188.322 116.402 188.322 115.665C188.322 114.928 187.724 114.33 186.986 114.33C186.247 114.33 185.649 114.928 185.649 115.665C185.649 116.402 186.247 116.999 186.986 116.999Z" fill="#F2F2F2"/>
<path d="M219.576 137.362H175.367C174.962 137.362 174.574 137.523 174.288 137.809C174.001 138.095 173.84 138.483 173.84 138.887C173.84 139.291 174.001 139.679 174.288 139.965C174.574 140.251 174.962 140.412 175.367 140.412H219.576C219.981 140.412 220.369 140.251 220.656 139.965C220.942 139.679 221.103 139.291 221.103 138.887C221.103 138.483 220.942 138.095 220.656 137.809C220.369 137.523 219.981 137.362 219.576 137.362Z" fill="#ACD92B"/>
<path d="M187.365 168.887H132.943C132.765 168.887 132.595 168.817 132.47 168.692C132.345 168.567 132.274 168.397 132.274 168.22C132.274 168.043 132.345 167.873 132.47 167.748C132.595 167.623 132.765 167.553 132.943 167.553H187.365C187.542 167.553 187.712 167.623 187.838 167.748C187.963 167.873 188.033 168.043 188.033 168.22C188.033 168.397 187.963 168.567 187.838 168.692C187.712 168.817 187.542 168.887 187.365 168.887Z" fill="#1F4366"/>
<path d="M129.166 177.561C132.856 177.561 135.849 174.574 135.849 170.888C135.849 167.203 132.856 164.216 129.166 164.216C125.475 164.216 122.482 167.203 122.482 170.888C122.482 174.574 125.475 177.561 129.166 177.561Z" fill="#9FBF43"/>
<path d="M86.4827 73.839C85.2797 75.5539 83.3216 76.5481 81.437 77.4823C75.2484 80.5517 69.0577 83.6189 62.8647 86.6838L63.1988 87.0842L63.4327 87.3711L63.7602 87.7581C62.056 90.0402 60.3518 92.32 58.6477 94.5976C58.1999 95.1914 57.7588 95.792 57.311 96.3858V59.1926C57.7588 59.0125 58.1999 58.8323 58.6477 58.6588C62.9048 56.9506 67.1597 55.2469 71.4124 53.5476C73.6245 52.6668 75.9769 51.7659 78.316 52.173C83.0275 52.9871 85.2196 58.3452 86.5829 62.9226C87.6589 66.5392 88.648 70.7429 86.4827 73.839Z" fill="#B1E322"/>
<path d="M64.1679 88.0591C62.33 90.5213 60.49 92.9857 58.6477 95.4524C58.1999 96.0462 57.7588 96.6468 57.311 97.2406V95.5391C57.7588 94.9453 58.2066 94.3447 58.6477 93.7508C60.2182 91.6556 61.7842 89.5604 63.3459 87.4652C63.3713 87.431 63.4004 87.3996 63.4327 87.3718C63.8471 87.0248 64.5355 87.5653 64.1679 88.0591Z" fill="#CCCCCC"/>
<path d="M87.2914 73.4922C86.2622 75.3606 84.431 76.5149 82.5865 77.4691C80.4813 78.5568 78.336 79.5843 76.2108 80.6386C71.8668 82.7872 67.5295 84.9358 63.1988 87.0844C63.1587 87.1044 63.112 87.1244 63.0719 87.1444C62.4837 87.438 61.8823 85.543 62.5305 84.6289C65.1035 80.999 73.8383 80.6853 77.915 78.6636C78.9442 78.1498 79.9734 77.6427 81.0093 77.1289C81.9576 76.6872 82.8793 76.1903 83.7694 75.6409C85.3782 74.7012 86.5521 73.1672 87.0374 71.3704C87.3708 69.6853 87.332 67.9478 86.9238 66.2792C86.5495 64.4709 86.047 62.6915 85.4201 60.9544C84.2439 57.6314 82.3392 53.5812 78.5432 52.7271C76.7521 52.3267 74.921 52.7871 73.2368 53.3876C71.272 54.0949 69.3406 54.9223 67.4025 55.6964C64.482 56.8641 61.5637 58.0318 58.6477 59.1995C58.1999 59.3797 57.7588 59.5532 57.311 59.7333V58.6457C57.7588 58.4655 58.1999 58.2854 58.6477 58.1052C62.3634 56.6238 66.0815 55.1381 69.8017 53.6478C71.6325 52.8087 73.5451 52.1603 75.5091 51.7128C77.3836 51.347 79.3275 51.6768 80.9758 52.6403C82.6224 53.7367 83.9484 55.2494 84.8186 57.0242C85.7719 58.8786 86.5311 60.8262 87.0842 62.836C88.0866 66.2124 89.1025 70.2026 87.2914 73.4922Z" fill="#BDF222"/>
<path d="M63.0533 65.1391C63.0478 65.1516 63.0432 65.1643 63.0379 65.1769C62.0911 64.7833 61.0275 64.7765 60.0757 65.1579C59.124 65.5392 58.3601 66.2783 57.9485 67.2161C57.5356 68.1573 57.5106 69.2229 57.8787 70.1824C58.2469 71.1419 58.9787 71.918 59.9157 72.3428L59.9152 72.344L59.9634 72.3651L67.0871 75.4812L70.2292 68.3205L70.2087 68.3115C70.214 68.2997 70.2199 68.2883 70.2252 68.2763C70.6419 67.3267 70.6637 66.2508 70.2858 65.2852C69.9079 64.3196 69.1614 63.5434 68.2103 63.1274C67.7394 62.9214 67.2325 62.81 66.7184 62.7996C66.2044 62.7892 65.6934 62.88 65.2145 63.0669C64.7357 63.2537 64.2983 63.5328 63.9275 63.8884C63.5567 64.2439 63.2596 64.6689 63.0533 65.1391Z" fill="#9FBF43"/>
<path d="M349.689 201.387C349.262 200.479 348.821 199.558 348.353 198.631C346.675 195.248 344.771 191.711 342.746 188.162C337.179 178.353 330.716 168.411 325.63 161.258V161.251C323.578 158.362 321.747 155.939 320.29 154.151C319.387 153.04 318.271 152.118 317.009 151.44C315.747 150.761 314.362 150.339 312.935 150.198C311.509 150.056 310.068 150.198 308.697 150.616C307.325 151.033 306.05 151.718 304.945 152.63C303.84 153.542 302.927 154.663 302.259 155.93C301.59 157.196 301.179 158.582 301.05 160.008C300.921 161.433 301.076 162.87 301.506 164.236C301.936 165.601 302.633 166.868 303.556 167.964L320.043 192.966L327.802 204.736L334.124 214.332L312.431 224.321L308.882 225.955L298.423 230.773L298.363 230.8C298.343 230.786 298.316 230.773 298.296 230.76C297.781 230.446 297.24 230.176 296.679 229.952C295.296 229.407 293.814 229.159 292.328 229.225C291.229 229.271 290.145 229.489 289.114 229.872C287.386 230.509 285.855 231.584 284.67 232.992C283.485 234.399 282.688 236.091 282.357 237.899C282.31 238.113 282.284 238.333 282.257 238.56C282.251 238.593 282.249 238.627 282.25 238.66H282.244C282.017 240.802 282.447 242.963 283.479 244.856C284.51 246.748 286.093 248.283 288.018 249.256C288.151 249.323 288.285 249.39 288.425 249.45C289.093 249.754 289.792 249.985 290.511 250.137C291.408 250.333 292.327 250.412 293.244 250.37C294.097 250.333 294.943 250.194 295.763 249.957H295.77C296.24 249.819 296.7 249.649 297.147 249.45C298.613 248.784 299.909 247.795 300.937 246.557C301.965 245.32 302.698 243.865 303.081 242.303C303.509 242.25 303.99 242.183 304.518 242.11C305.601 241.956 306.884 241.763 308.334 241.529C308.909 241.436 309.511 241.336 310.132 241.229C320.999 239.361 338.756 235.384 348.353 228.351C348.821 228.004 349.268 227.657 349.689 227.303V201.387Z" fill="#A0616A"/>
<path d="M331.144 0H75.8566C70.9398 0.00586447 66.2261 1.95859 62.7494 5.42985C59.2727 8.9011 57.3169 13.6074 57.311 18.5165V287.49C57.3172 292.399 59.2732 297.104 62.7501 300.574C66.2269 304.044 70.9405 305.996 75.8566 306H331.144C336.06 305.996 340.773 304.044 344.25 300.574C347.727 297.104 349.683 292.399 349.689 287.49V18.5165C349.684 13.6075 347.728 8.9011 344.251 5.42985C340.774 1.9586 336.061 0.00587152 331.144 0ZM348.353 287.49C348.347 292.045 346.531 296.411 343.305 299.63C340.079 302.85 335.705 304.661 331.144 304.665H75.8566C71.295 304.661 66.9215 302.85 63.6953 299.63C60.4692 296.411 58.6539 292.045 58.6477 287.49V18.5165C58.6525 13.9611 60.4671 9.59356 63.6934 6.37235C66.9196 3.15114 71.294 1.33935 75.8566 1.33453H331.144C335.706 1.33935 340.081 3.15114 343.307 6.37235C346.533 9.59356 348.348 13.9611 348.353 18.5165V287.49ZM57.311 43.2653V262.401H58.6477V43.2653H57.311Z" fill="#9FBF43"/>
<path d="M81.6036 255.561C87.5091 255.561 92.2965 250.781 92.2965 244.885C92.2965 238.989 87.5091 234.209 81.6036 234.209C75.698 234.209 70.9106 238.989 70.9106 244.885C70.9106 250.781 75.698 255.561 81.6036 255.561Z" fill="#466A8C"/>
<path d="M79.9812 250.638C79.888 250.638 79.7958 250.619 79.7097 250.583C79.5815 250.532 79.4718 250.443 79.395 250.328C79.3182 250.213 79.2779 250.078 79.2793 249.94V240.112C79.2793 239.975 79.3202 239.84 79.3969 239.725C79.4735 239.611 79.5824 239.522 79.7098 239.469C79.8372 239.416 79.9775 239.403 80.1127 239.429C80.248 239.456 80.3722 239.523 80.4698 239.62L85.3913 244.534C85.5219 244.664 85.5952 244.841 85.5952 245.026C85.5952 245.211 85.5219 245.388 85.3913 245.518L80.4698 250.432C80.406 250.497 80.3301 250.549 80.2462 250.584C80.1623 250.619 80.0723 250.638 79.9812 250.638Z" fill="white"/>
<path d="M299.538 86.1084C306.182 86.1084 311.568 80.731 311.568 74.0976C311.568 67.4643 306.182 62.0869 299.538 62.0869C292.895 62.0869 287.509 67.4643 287.509 74.0976C287.509 80.731 292.895 86.1084 299.538 86.1084Z" fill="#2F2E41"/>
<path d="M299.636 91.4971C293.892 88.1635 292.317 80.5529 295.852 74.9367C296.693 73.6013 297.789 72.4443 299.077 71.5317C300.366 70.6192 301.822 69.969 303.362 69.6182C304.902 69.2674 306.496 69.2229 308.054 69.4873C309.611 69.7517 311.101 70.3198 312.439 71.1592C318.064 74.689 313.84 81.5272 316.222 87.7195C319.592 96.4795 307.382 95.9927 299.636 91.4971Z" fill="#2F2E41"/>
<path d="M271.705 87.7803C271.287 88.753 258.396 88.6488 257.806 89.5149C253.254 96.202 269.663 124.654 265.111 131.35L264.477 132.104C265.962 131.421 267.388 130.617 268.742 129.702C268.863 126.961 268.985 124.211 269.115 121.471C270.479 123.212 271.579 125.144 272.382 127.204C273.441 126.458 274.311 125.075 278.853 122.355C280.692 120.338 282.812 118.596 285.148 117.182L271.705 87.7803Z" fill="#2F2E41"/>
<path d="M278.095 119.332C289.878 119.332 299.43 109.795 299.43 98.0298C299.43 86.2649 289.878 76.7275 278.095 76.7275C266.312 76.7275 256.759 86.2649 256.759 98.0298C256.759 109.795 266.312 119.332 278.095 119.332Z" fill="#A0616A"/>
<path d="M294.299 128.718C292.562 127.268 291.352 125.287 290.859 123.08C290.465 125.759 290.568 128.487 291.163 131.129C290.008 131.996 288.887 132.82 287.828 133.566C287.025 131.506 285.925 129.575 284.561 127.833C284.431 130.574 284.309 133.323 284.188 136.064C282.834 136.98 281.408 137.783 279.923 138.466L280.557 137.712C285.109 131.016 273.329 118.692 277.881 112.005C279.158 110.131 273.39 95.3259 268.995 94.6581C265.085 94.0683 265.251 95.1958 261.463 96.0198C261.07 94.382 260.459 92.804 259.648 91.3275C259.864 92.9727 259.814 94.6419 259.5 96.2713C258.153 96.3234 257.094 95.4667 255.66 95.2479C246.513 93.8515 247.443 83.9727 249.988 80.8417C252.542 77.7193 261.02 76.7826 264.929 75.7678C265.285 75.4209 266.093 75.6377 266.449 75.3081C273.941 68.4628 283.96 67.3291 292.977 70.3631C302.592 73.5987 308.587 79.8609 311.664 89.5149L312.547 97.2405C313.338 99.7246 312.342 111.283 311.664 113.8C309.028 123.585 303.413 118.7 294.299 128.718Z" fill="#2F2E41"/>
</g>
<defs>
<clipPath id="clip0_20_392">
<rect width="407" height="306" fill="white"/>
</clipPath>
</defs>
</svg>
