<svg width="650" height="504" viewBox="0 0 650 504" fill="none" xmlns="http://www.w3.org/2000/svg">
<g clip-path="url(#clip0_20_438)">
<path d="M532.849 5.7983C532.837 5.8451 532.824 5.88622 532.811 5.93302C532.781 6.02276 532.758 6.11451 532.74 6.20765C532.583 6.8051 532.498 7.42132 532.485 8.04169C532.478 8.30638 532.484 8.5713 532.504 8.83524C532.528 9.17388 532.573 9.51039 532.64 9.84243C532.71 10.2121 532.807 10.5752 532.93 10.9285C532.985 11.0964 533.049 11.2612 533.12 11.4222C533.577 12.521 534.266 13.4911 535.133 14.2563C535.999 15.0215 537.02 15.5609 538.113 15.8321L538.119 15.8317C538.226 15.8614 538.335 15.885 538.444 15.9024C539.054 16.0212 539.675 16.0552 540.293 16.0036L540.303 16.0028C541.81 15.8803 543.242 15.2535 544.398 14.2108C545.106 13.5811 545.184 12.9161 546.068 13.2112C548.887 14.1524 550.771 9.17261 549.362 6.4449C549.363 6.34208 549.36 6.23925 549.351 6.13688C549.216 4.23162 546.539 3.74592 544.978 2.73465L544.971 2.76836C544.898 3.06384 544.74 3.32751 544.521 3.52252C544.301 3.71753 544.03 3.83414 543.746 3.85601C543.461 3.87788 543.178 3.80393 542.934 3.64451C542.691 3.48508 542.5 3.24815 542.389 2.96685C542.104 2.23007 541.845 1.4832 541.612 0.726255C538.62 -1.58317 530.627 2.02523 532.849 5.7983Z" fill="#2F2E41"/>
<path d="M514.09 23.0879C513.683 24.1051 501.124 23.9961 500.549 24.9019C496.114 31.8949 512.101 61.6486 507.666 68.6507L507.048 69.4398C508.495 68.7252 509.885 67.8849 511.204 66.9274C511.322 64.0612 511.441 61.186 511.568 58.3199C512.896 60.141 513.968 62.1609 514.75 64.3152C515.782 63.5352 516.629 62.0892 521.055 59.245C522.847 57.1357 524.912 55.3136 527.188 53.8345L514.09 23.0879Z" fill="#2F2E41"/>
<path d="M523.21 80.3998C521.825 79.4322 520.243 78.8329 518.598 78.6514C516.953 78.4699 515.291 78.7115 513.75 79.3562C512.209 80.0009 510.834 81.03 509.739 82.3583C508.643 83.6866 507.859 85.2756 507.452 86.9936L488.366 140.286L455.561 120.327C455.417 118.033 454.599 115.846 453.223 114.081C451.848 112.316 449.987 111.063 447.906 110.502C445.825 109.941 443.632 110.101 441.641 110.958C439.65 111.815 437.964 113.326 436.824 115.274C435.683 117.222 435.148 119.506 435.295 121.8C435.441 124.094 436.262 126.28 437.639 128.043C439.016 129.806 440.879 131.057 442.96 131.616C445.041 132.174 447.234 132.012 449.224 131.153C456.133 139.054 486.084 171.452 498.484 158.793C508.906 148.153 523.947 106.916 527.567 92.6762C528.147 90.3991 528.038 87.9835 527.255 85.7773C526.472 83.5712 525.056 81.6883 523.21 80.3998Z" fill="#A0616A"/>
<path d="M374.355 116.083C365.329 90.4372 363.207 64.2526 370.23 37.3535C370.148 35.76 370.659 34.1967 371.652 33.0067C372.644 31.8166 374.036 31.0971 375.523 31.0058L431.005 27.6673C432.492 27.5796 433.95 28.1277 435.061 29.1912C436.171 30.2547 436.843 31.7468 436.928 33.3401L441.053 112.069C441.135 113.663 440.623 115.226 439.631 116.416C438.639 117.606 437.246 118.326 435.759 118.417L380.278 121.755C378.791 121.843 377.332 121.295 376.222 120.232C375.111 119.168 374.44 117.676 374.355 116.083Z" fill="#BDF222"/>
<path d="M377.364 92.0471C371.11 79.6567 371.982 61.32 374.713 41.4329C374.636 39.9405 375.115 38.4764 376.044 37.3619C376.974 36.2474 378.278 35.5735 379.67 35.488L427.352 32.6189C428.744 32.5367 430.111 33.05 431.151 34.0459C432.191 35.0419 432.82 36.4394 432.899 37.9316L436.57 107.99C436.647 109.482 436.168 110.946 435.238 112.061C434.309 113.175 433.005 113.849 431.612 113.935L402.074 115.712C395.871 116.078 389.786 113.792 385.153 109.355C380.521 104.919 377.72 98.6941 377.364 92.0471Z" fill="#ACD92B"/>
<path d="M401.387 101.571C404.1 101.571 406.3 99.2144 406.3 96.3067C406.3 93.3991 404.1 91.042 401.387 91.042C398.674 91.042 396.475 93.3991 396.475 96.3067C396.475 99.2144 398.674 101.571 401.387 101.571Z" fill="#D3F279"/>
<path d="M414.878 48.0287C413.379 45.3509 409.909 45.1116 406.996 45.1818C403.991 45.1125 400.991 45.4727 398.075 46.2527C395.199 47.1693 392.458 49.0451 391.07 51.8955C389.363 55.3994 389.962 59.6469 390.879 63.475C392.644 70.8389 395.414 77.8833 399.099 84.3806L401.23 85.9412C405.589 81.6798 409.108 76.5268 411.581 70.7856C414.054 65.0444 415.43 58.831 415.628 52.5113C415.778 50.9712 415.518 49.417 414.878 48.0287Z" fill="#D3F279"/>
<path d="M100.641 319.123C82.6056 246.956 85.5108 166.07 100.641 80.0953C100.643 77.9664 101.434 75.9254 102.838 74.4201C104.243 72.9147 106.148 72.0679 108.134 72.0654H331.084C333.07 72.0679 334.975 72.9147 336.38 74.4201C337.784 75.9254 338.575 77.9664 338.577 80.0953V319.123C338.575 321.252 337.784 323.293 336.38 324.798C334.975 326.303 333.07 327.15 331.084 327.153H108.134C106.148 327.15 104.243 326.303 102.838 324.798C101.434 323.293 100.643 321.252 100.641 319.123Z" fill="#BDF222"/>
<path d="M102.069 259.304C97.4894 201.402 98.7051 143.14 105.695 85.5152C105.697 83.3863 106.488 81.3453 107.892 79.84C109.297 78.3346 111.201 77.4878 113.188 77.4854H326.029C327.013 77.4854 327.987 77.6931 328.896 78.0966C329.805 78.5001 330.631 79.0916 331.327 79.8372C332.023 80.5829 332.574 81.4681 332.951 82.4423C333.328 83.4166 333.521 84.4607 333.521 85.5152V313.706C333.521 315.835 332.732 317.878 331.327 319.384C329.922 320.89 328.016 321.736 326.029 321.736H165.508C149.556 321.746 134.182 315.334 122.433 303.772C110.684 292.209 103.416 276.338 102.069 259.304Z" fill="#ACD92B"/>
<path d="M238.348 122.547H148.739C148.485 122.548 148.233 122.495 147.998 122.391C147.763 122.287 147.55 122.134 147.37 121.942C147.19 121.75 147.047 121.521 146.95 121.27C146.852 121.018 146.802 120.749 146.802 120.476C146.802 120.204 146.852 119.934 146.95 119.683C147.047 119.431 147.19 119.203 147.37 119.01C147.55 118.818 147.763 118.665 147.998 118.562C148.233 118.458 148.485 118.405 148.739 118.405H238.348C238.859 118.406 239.35 118.625 239.711 119.013C240.073 119.402 240.276 119.928 240.276 120.476C240.276 121.025 240.073 121.551 239.711 121.939C239.35 122.327 238.859 122.546 238.348 122.547Z" fill="#D3F279"/>
<path d="M283.709 141.48H148.739C148.485 141.48 148.233 141.427 147.998 141.323C147.763 141.22 147.55 141.067 147.37 140.875C147.19 140.682 147.047 140.454 146.95 140.202C146.852 139.951 146.802 139.681 146.802 139.409C146.802 139.136 146.852 138.867 146.95 138.615C147.047 138.364 147.19 138.135 147.37 137.943C147.55 137.751 147.763 137.598 147.998 137.494C148.233 137.39 148.485 137.337 148.739 137.338H283.709C284.221 137.339 284.711 137.558 285.073 137.946C285.434 138.334 285.638 138.86 285.638 139.409C285.638 139.957 285.434 140.483 285.073 140.872C284.711 141.26 284.221 141.479 283.709 141.48Z" fill="#D3F279"/>
<path d="M283.712 156.269H148.736C148.223 156.269 147.731 156.487 147.368 156.876C147.006 157.264 146.802 157.791 146.802 158.341C146.802 158.891 147.006 159.418 147.368 159.807C147.731 160.195 148.223 160.414 148.736 160.414H283.712C284.225 160.414 284.717 160.195 285.079 159.807C285.442 159.418 285.646 158.891 285.646 158.341C285.646 157.791 285.442 157.264 285.079 156.876C284.717 156.487 284.225 156.269 283.712 156.269Z" fill="#D3F279"/>
<path d="M283.709 179.346H148.739C148.226 179.346 147.735 179.128 147.372 178.739C147.01 178.351 146.806 177.824 146.806 177.275C146.806 176.726 147.01 176.199 147.372 175.811C147.735 175.422 148.226 175.204 148.739 175.204H283.709C284.221 175.204 284.713 175.422 285.075 175.811C285.438 176.199 285.641 176.726 285.641 177.275C285.641 177.824 285.438 178.351 285.075 178.739C284.713 179.128 284.221 179.346 283.709 179.346Z" fill="#D3F279"/>
<path d="M283.709 198.279H148.739C148.485 198.279 148.233 198.226 147.998 198.122C147.763 198.018 147.55 197.866 147.37 197.674C147.19 197.481 147.047 197.253 146.95 197.001C146.852 196.75 146.802 196.48 146.802 196.208C146.802 195.935 146.852 195.666 146.95 195.414C147.047 195.163 147.19 194.934 147.37 194.742C147.55 194.549 147.763 194.397 147.998 194.293C148.233 194.189 148.485 194.136 148.739 194.137H283.709C284.221 194.138 284.711 194.357 285.073 194.745C285.434 195.133 285.638 195.659 285.638 196.208C285.638 196.756 285.434 197.282 285.073 197.67C284.711 198.059 284.221 198.277 283.709 198.279Z" fill="#D3F279"/>
<path d="M283.709 217.326H148.739C148.485 217.327 148.233 217.274 147.998 217.17C147.763 217.066 147.55 216.914 147.37 216.721C147.19 216.529 147.047 216.301 146.95 216.049C146.852 215.797 146.802 215.528 146.802 215.255C146.802 214.983 146.852 214.714 146.95 214.462C147.047 214.21 147.19 213.982 147.37 213.79C147.55 213.597 147.763 213.445 147.998 213.341C148.233 213.237 148.485 213.184 148.739 213.185H283.709C284.221 213.186 284.711 213.404 285.073 213.793C285.434 214.181 285.638 214.707 285.638 215.255C285.638 215.804 285.434 216.33 285.073 216.718C284.711 217.107 284.221 217.325 283.709 217.326Z" fill="#D3F279"/>
<path d="M283.709 236.373H148.739C148.485 236.374 148.233 236.321 147.998 236.217C147.763 236.113 147.55 235.961 147.37 235.768C147.19 235.576 147.047 235.347 146.95 235.096C146.852 234.844 146.802 234.575 146.802 234.302C146.802 234.03 146.852 233.76 146.95 233.509C147.047 233.257 147.19 233.029 147.37 232.836C147.55 232.644 147.763 232.492 147.998 232.388C148.233 232.284 148.485 232.231 148.739 232.231H283.709C284.221 232.233 284.711 232.451 285.073 232.84C285.434 233.228 285.638 233.754 285.638 234.302C285.638 234.851 285.434 235.377 285.073 235.765C284.711 236.153 284.221 236.372 283.709 236.373Z" fill="#D3F279"/>
<path d="M283.709 255.42H148.739C148.485 255.421 148.233 255.368 147.998 255.264C147.763 255.16 147.55 255.007 147.37 254.815C147.19 254.623 147.047 254.394 146.95 254.143C146.852 253.891 146.802 253.622 146.802 253.349C146.802 253.077 146.852 252.807 146.95 252.556C147.047 252.304 147.19 252.076 147.37 251.883C147.55 251.691 147.763 251.539 147.998 251.435C148.233 251.331 148.485 251.278 148.739 251.278H283.709C284.221 251.279 284.711 251.498 285.073 251.886C285.434 252.275 285.638 252.801 285.638 253.349C285.638 253.898 285.434 254.424 285.073 254.812C284.711 255.2 284.221 255.419 283.709 255.42Z" fill="#D3F279"/>
<path d="M283.709 274.467H148.739C148.485 274.468 148.233 274.414 147.998 274.311C147.763 274.207 147.55 274.054 147.37 273.862C147.19 273.67 147.047 273.441 146.95 273.19C146.852 272.938 146.802 272.668 146.802 272.396C146.802 272.124 146.852 271.854 146.95 271.603C147.047 271.351 147.19 271.123 147.37 270.93C147.55 270.738 147.763 270.585 147.998 270.482C148.233 270.378 148.485 270.325 148.739 270.325H283.709C284.221 270.326 284.711 270.545 285.073 270.933C285.434 271.322 285.638 271.848 285.638 272.396C285.638 272.945 285.434 273.471 285.073 273.859C284.711 274.247 284.221 274.466 283.709 274.467Z" fill="#D3F279"/>
<path d="M251.681 148.353C245.751 146.083 238.071 146.969 233.91 152.503C230.182 157.46 229.735 165.353 234.478 169.776C240.251 175.162 248.247 173.181 254.552 170.142C260.32 167.362 266.67 162.88 266.581 155.273C266.567 153.318 266.119 151.394 265.273 149.662C264.428 147.929 263.209 146.438 261.719 145.31C260.206 144.214 258.474 143.515 256.662 143.27C254.851 143.024 253.011 143.238 251.291 143.896C249.768 144.492 250.426 147.122 251.966 146.519C253.206 146.014 254.535 145.811 255.857 145.926C257.179 146.041 258.461 146.47 259.609 147.182C260.757 147.895 261.742 148.873 262.493 150.045C263.244 151.217 263.742 152.553 263.95 153.957C264.84 160.273 259.805 164.364 255.125 166.856C249.992 169.59 243.458 172.205 237.962 169.064C233.261 166.378 232.401 160.25 235.007 155.544C238.238 149.709 245.513 148.874 251.006 150.977C252.548 151.567 253.211 148.939 251.681 148.353Z" fill="#466A8C"/>
<path d="M172.124 186.448C166.194 184.178 158.514 185.063 154.352 190.598C150.625 195.555 150.178 203.447 154.921 207.871C160.694 213.256 168.69 211.275 174.994 208.237C180.763 205.457 187.113 200.975 187.023 193.368C187.01 191.413 186.562 189.489 185.716 187.757C184.871 186.024 183.652 184.532 182.161 183.405C180.649 182.309 178.917 181.61 177.105 181.364C175.293 181.119 173.453 181.333 171.734 181.99C170.211 182.586 170.869 185.217 172.409 184.614C173.648 184.109 174.978 183.906 176.3 184.021C177.622 184.135 178.904 184.565 180.052 185.277C181.2 185.99 182.185 186.967 182.936 188.139C183.687 189.311 184.184 190.648 184.392 192.052C185.283 198.368 180.248 202.458 175.568 204.95C170.435 207.684 163.901 210.3 158.405 207.159C153.703 204.472 152.844 198.345 155.45 193.639C158.681 187.804 165.956 186.969 171.449 189.072C172.99 189.662 173.654 187.034 172.124 186.448Z" fill="#5B7A97"/>
<path d="M250.835 262.637C244.905 260.366 237.225 261.252 233.063 266.786C229.336 271.743 228.889 279.636 233.632 284.06C239.405 289.445 247.401 287.464 253.705 284.426C259.474 281.645 265.824 277.163 265.734 269.556C265.721 267.601 265.273 265.678 264.427 263.945C263.582 262.212 262.363 260.721 260.872 259.593C259.36 258.498 257.627 257.799 255.816 257.553C254.004 257.307 252.164 257.522 250.444 258.179C248.922 258.775 249.58 261.406 251.119 260.803C252.359 260.297 253.689 260.095 255.011 260.209C256.333 260.324 257.615 260.753 258.763 261.466C259.911 262.178 260.896 263.156 261.647 264.328C262.398 265.5 262.895 266.837 263.103 268.241C263.994 274.556 258.959 278.647 254.279 281.139C249.145 283.873 242.612 286.489 237.116 283.348C232.414 280.661 231.555 274.533 234.161 269.827C237.392 263.993 244.667 263.158 250.16 265.26C251.701 265.851 252.365 263.222 250.835 262.637Z" fill="#5B7A97"/>
<path d="M247.963 288.377C249.881 301.603 255.692 313.827 264.549 323.265C271.31 330.344 279.589 335.538 288.658 338.392C297.728 341.245 307.312 341.672 316.572 339.634C318.154 339.28 317.949 336.566 316.35 336.923C305.044 339.433 293.29 338.136 282.698 333.212C274.238 329.189 266.856 322.954 261.229 315.079C255.602 307.204 251.91 297.94 250.492 288.139C250.247 286.413 247.716 286.641 247.963 288.377Z" fill="#5B7A97"/>
<path d="M320.401 357.14L339.287 345.485C339.447 345.365 339.579 345.208 339.673 345.025C339.767 344.841 339.821 344.638 339.83 344.429C339.839 344.22 339.803 344.012 339.725 343.82C339.648 343.628 339.53 343.458 339.381 343.323L319.937 328.238C318.621 327.217 316.98 329.294 318.306 330.323C324.787 335.351 331.269 340.379 337.75 345.408L337.844 343.245L318.959 354.9C317.541 355.775 318.994 358.008 320.401 357.14Z" fill="#5B7A97"/>
<path d="M264.044 142.524C265.963 129.298 271.774 117.074 280.63 107.635C287.391 100.556 295.67 95.3627 304.739 92.509C313.809 89.6552 323.394 89.2286 332.653 91.2665C334.235 91.6206 334.03 94.3349 332.431 93.9771C321.125 91.4679 309.371 92.7641 298.779 97.6885C290.319 101.711 282.937 107.946 277.31 115.822C271.683 123.697 267.991 132.96 266.573 142.762C266.328 144.487 263.797 144.259 264.044 142.524Z" fill="#466A8C"/>
<path d="M336.482 73.7603L355.367 85.4154C355.527 85.5353 355.659 85.6929 355.753 85.876C355.847 86.0591 355.901 86.263 355.91 86.4718C355.919 86.6807 355.884 86.889 355.806 87.0807C355.728 87.2725 355.61 87.4426 355.462 87.578L336.018 102.663C334.702 103.684 333.06 101.607 334.387 100.578L353.83 85.4929L353.925 87.6555L335.039 76.0005C333.621 75.1252 335.075 72.8921 336.482 73.7603Z" fill="#466A8C"/>
<path d="M163.325 215.816C161.407 229.042 155.596 241.266 146.739 250.705C139.978 257.783 131.699 262.977 122.63 265.831C113.56 268.685 103.976 269.111 94.7162 267.073C93.1339 266.719 93.3393 264.005 94.9384 264.363C106.244 266.872 117.998 265.576 128.59 260.651C137.05 256.628 144.432 250.393 150.059 242.518C155.686 234.643 159.378 225.38 160.796 215.578C161.041 213.853 163.572 214.081 163.325 215.816Z" fill="#5B7A97"/>
<path d="M90.8873 284.58L72.0018 272.925C71.842 272.805 71.7099 272.647 71.6158 272.464C71.5217 272.281 71.468 272.077 71.4589 271.868C71.4498 271.659 71.4855 271.451 71.5632 271.259C71.641 271.068 71.7587 270.898 71.9074 270.762L91.3513 255.677C92.6673 254.656 94.3089 256.733 92.9826 257.762L73.5387 272.847L73.4443 270.685L92.3297 282.34C93.7479 283.215 92.2941 285.448 90.8873 284.58Z" fill="#466A8C"/>
<path d="M12.4101 313.251C2.94724 295.802 -1.56321 277.062 0.486727 256.613C0.24661 255.466 0.440703 254.264 1.02644 253.271C1.61218 252.277 2.54172 251.573 3.61113 251.313L43.5248 241.663C44.5948 241.406 45.7163 241.614 46.6433 242.242C47.5703 242.869 48.2272 243.866 48.4697 245.012L60.3931 301.65C60.6332 302.796 60.4391 303.998 59.8534 304.992C59.2676 305.985 58.3381 306.689 57.2687 306.949L17.355 316.599C16.2851 316.856 15.1636 316.648 14.2365 316.021C13.3095 315.393 12.6527 314.397 12.4101 313.251Z" fill="#BDF222"/>
<path d="M11.8704 295.404C5.923 287.22 4.47713 273.79 4.20498 258.992C3.98008 257.918 4.16186 256.793 4.71042 255.862C5.25899 254.932 6.12954 254.273 7.13109 254.029L41.4335 245.736C42.4356 245.495 43.4859 245.689 44.3541 246.277C45.2224 246.865 45.8375 247.798 46.0647 248.871L56.6749 299.271C56.8997 300.345 56.7179 301.471 56.1693 302.401C55.6207 303.332 54.7502 303.991 53.7486 304.234L32.4989 309.372C28.0354 310.446 23.3568 309.578 19.4896 306.959C15.6223 304.341 12.8822 300.185 11.8704 295.404Z" fill="#ACD92B"/>
<path d="M29.799 299.245C31.7967 299.245 33.4163 297.51 33.4163 295.369C33.4163 293.228 31.7967 291.492 29.799 291.492C27.8012 291.492 26.1816 293.228 26.1816 295.369C26.1816 297.51 27.8012 299.245 29.799 299.245Z" fill="#F2F2F2"/>
<path d="M34.1221 258.551C32.7298 256.801 30.1823 257.08 28.0747 257.51C25.8849 257.851 23.7472 258.503 21.7181 259.449C20.7048 259.929 19.7901 260.618 19.0267 261.478C18.2633 262.338 17.6664 263.351 17.2703 264.46C16.4283 267.227 17.3452 270.233 18.4449 272.894C20.562 278.012 23.3723 282.767 26.785 287.006L28.5094 287.861C31.1919 284.199 33.1636 279.998 34.3084 275.507C35.4531 271.015 35.7477 266.324 35.1749 261.709C35.1094 260.571 34.7444 259.476 34.1221 258.551Z" fill="#F2F2F2"/>
<path d="M29.799 299.245C31.7967 299.245 33.4163 297.51 33.4163 295.369C33.4163 293.228 31.7967 291.492 29.799 291.492C27.8012 291.492 26.1816 293.228 26.1816 295.369C26.1816 297.51 27.8012 299.245 29.799 299.245Z" fill="#D3F279"/>
<path d="M34.1221 258.551C32.7298 256.801 30.1823 257.08 28.0747 257.51C25.8849 257.851 23.7472 258.503 21.7181 259.449C20.7048 259.929 19.7901 260.618 19.0267 261.478C18.2633 262.338 17.6664 263.351 17.2703 264.46C16.4283 267.227 17.3452 270.233 18.4449 272.894C20.562 278.012 23.3723 282.767 26.785 287.006L28.5094 287.861C31.1919 284.199 33.1636 279.998 34.3084 275.507C35.4531 271.015 35.7477 266.324 35.1749 261.709C35.1094 260.571 34.7444 259.476 34.1221 258.551Z" fill="#D3F279"/>
<path d="M532.857 482.492L523.144 482.491L518.522 442.338H532.859L532.857 482.492Z" fill="#A0616A"/>
<path d="M503.538 497.851C503.543 499.017 503.977 500.135 504.745 500.96C505.514 501.785 506.556 502.253 507.644 502.26H525.93L526.497 501.002L529.083 495.282L530.085 501.002L530.307 502.26H537.204L537.106 500.993L535.266 477.357L532.861 477.198L522.465 476.538L519.911 476.371V483.429C517.974 485.637 502.766 493.988 503.538 497.851Z" fill="#2F2E41"/>
<path d="M494.925 474.416L485.758 477.86L468.998 441.608L482.527 436.524L494.925 474.416Z" fill="#A0616A"/>
<path d="M472.001 499.308C472.365 500.407 473.119 501.307 474.1 501.813C475.08 502.32 476.207 502.391 477.236 502.012L494.492 495.527L494.638 494.139L495.313 487.824L498.025 492.866L498.622 493.975L505.131 491.529L504.647 490.368L495.612 468.716L493.293 469.42L483.28 472.483L480.818 473.231L482.998 479.891C481.851 482.663 470.079 495.936 472.001 499.308Z" fill="#2F2E41"/>
<path d="M487.373 161.026L493.396 190.199L537.436 194.469L541.484 169.067L487.373 161.026Z" fill="#A0616A"/>
<path d="M540.377 181.524L490.818 180.637L489.752 196.141L451.482 319.426L444.682 349.737L464.173 462.283L497.181 462.261C497.181 462.261 496.496 432.692 495.179 431.467C493.861 430.241 491.111 431.485 493.15 425.171C495.189 418.857 496.694 416.818 494.281 414.28C491.869 411.742 488.952 413.871 490.743 407.825C492.533 401.78 507.14 319.242 507.14 319.242V467.221H541.101C541.101 467.221 548.211 460.26 544.938 456.635C541.666 453.011 539.01 452.299 541.666 447.318C544.321 442.338 550.085 443.593 545.211 437.273C541.339 432.252 550.601 293.792 554.572 237.089C555.645 221.765 551.08 206.599 541.854 194.836L540.377 181.524Z" fill="#2F2E41"/>
<path d="M514.86 66.2619L536.781 65.0518L546.963 82.2931C546.963 82.2931 566.12 85.7255 564.792 109.918C563.464 134.11 541.483 155.339 541.483 155.339L542.423 151.886L540.791 156.883L541 159.689L543.227 162.661L543.456 165.734L541.483 170.596L544.166 175.251L487.774 169.396L485.712 161.346L488.72 157.023L487.039 151.384L489.565 145.961L490.883 144.784C490.883 144.784 476.472 121.583 493.015 104.108L499.654 92.012L507.084 82.2986L514.86 66.2619Z" fill="#9FBF43"/>
<path d="M520.316 56.0841C531.796 56.0841 541.103 46.1104 541.103 33.8072C541.103 21.504 531.796 11.5303 520.316 11.5303C508.836 11.5303 499.529 21.504 499.529 33.8072C499.529 46.1104 508.836 56.0841 520.316 56.0841Z" fill="#A0616A"/>
<path d="M536.104 65.899C534.411 64.3832 533.233 62.3107 532.752 60.0035C532.368 62.8048 532.468 65.6581 533.048 68.4205C531.923 69.3275 530.831 70.1892 529.798 70.9692C529.017 68.8149 527.944 66.795 526.616 64.9739C526.489 67.84 526.371 70.7152 526.252 73.5814C524.933 74.5389 523.543 75.3792 522.097 76.0938L522.714 75.3047C527.149 68.3026 515.673 55.414 520.108 48.421C521.352 46.4619 515.732 30.9793 511.45 30.2809C507.641 29.6641 507.802 30.8432 504.112 31.7049C503.728 29.9922 503.134 28.342 502.343 26.798C502.553 28.5184 502.505 30.264 502.199 31.9679C500.887 32.0223 499.855 31.1266 498.458 30.8976C489.546 29.4374 490.452 19.1066 492.931 15.8323C495.42 12.5671 503.68 11.5875 507.489 10.5263C507.836 10.1635 508.623 10.3902 508.97 10.0456C516.269 2.887 526.03 1.70148 534.815 4.87432C535.605 5.16611 536.371 5.52377 537.109 5.944C544.565 10.1313 550.946 15.8947 550.483 24.9023C550.266 29.1213 549.373 29.778 550.483 32.1584C550.756 32.7425 548.368 38.2423 552.388 38.8284C556.408 39.4144 554.595 42.7403 555.561 43.9495C559.305 48.6338 545.889 62.2962 536.104 65.899Z" fill="#2F2E41"/>
<path d="M347.894 375.736C343.532 356.103 344.259 336.766 351.728 317.821C351.807 316.648 352.317 315.558 353.145 314.788C353.973 314.018 355.053 313.631 356.147 313.713L396.961 316.817C398.055 316.901 399.073 317.447 399.791 318.335C400.51 319.222 400.87 320.379 400.794 321.552L396.959 379.467C396.88 380.639 396.371 381.73 395.543 382.5C394.714 383.27 393.635 383.657 392.541 383.575L351.727 380.471C350.633 380.387 349.615 379.841 348.897 378.953C348.178 378.066 347.817 376.909 347.894 375.736Z" fill="#BDF222"/>
<path d="M352.183 358.481C348.692 348.806 350.924 335.501 354.648 321.248C354.722 320.15 355.199 319.128 355.975 318.407C356.75 317.686 357.761 317.324 358.786 317.401L393.862 320.068C394.887 320.147 395.84 320.658 396.513 321.49C397.186 322.321 397.524 323.405 397.452 324.503L394.04 376.04C393.966 377.137 393.489 378.159 392.713 378.88C391.937 379.601 390.926 379.963 389.902 379.887L368.172 378.234C363.61 377.882 359.364 375.604 356.366 371.901C353.369 368.198 351.864 363.372 352.183 358.481Z" fill="#ACD92B"/>
<path d="M369.359 367.869C371.356 367.869 372.976 366.134 372.976 363.993C372.976 361.852 371.356 360.116 369.359 360.116C367.361 360.116 365.741 361.852 365.741 363.993C365.741 366.134 367.361 367.869 369.359 367.869Z" fill="#D3F279"/>
<path d="M383.411 330.078C382.549 327.973 380.035 327.451 377.902 327.211C375.713 326.861 373.491 326.824 371.293 327.103C370.194 327.248 369.132 327.625 368.17 328.213C367.207 328.8 366.363 329.586 365.685 330.524C364.134 332.913 364.202 336.075 364.539 338.963C365.188 344.518 366.598 349.94 368.724 355.054L370.145 356.406C373.7 353.729 376.719 350.317 379.024 346.371C381.329 342.424 382.875 338.023 383.569 333.427C383.813 332.317 383.758 331.156 383.411 330.078Z" fill="#D3F279"/>
<path d="M566.414 171.441L565.595 103.137C565.553 100.243 564.45 97.4834 562.525 95.4532C560.601 93.423 558.009 92.2851 555.308 92.2852C553.911 92.2852 552.529 92.5901 551.245 93.1813C549.962 93.7726 548.804 94.6377 547.843 95.7241C546.881 96.8105 546.137 98.0953 545.654 99.5002C545.171 100.905 544.96 102.401 545.034 103.896L547.914 174.819L547.969 217.994C546.271 218.765 544.837 220.077 543.86 221.753C542.883 223.428 542.411 225.386 542.508 227.359C542.605 229.332 543.267 231.225 544.403 232.781C545.539 234.337 547.094 235.48 548.858 236.056C550.622 236.631 552.508 236.611 554.26 235.998C556.013 235.385 557.547 234.208 558.654 232.628C559.761 231.048 560.387 229.141 560.447 227.167C560.508 225.192 559.999 223.245 558.991 221.591L566.414 171.441Z" fill="#A0616A"/>
<path d="M620.806 503.07H592.718L592.598 502.836C592.239 502.138 591.892 501.398 591.568 500.638C588.675 494 587.452 486.409 586.373 479.71L585.56 474.662C585.462 474.05 585.536 473.421 585.773 472.855C586.01 472.289 586.4 471.812 586.891 471.484C587.383 471.157 587.955 470.994 588.534 471.017C589.112 471.04 589.671 471.247 590.139 471.612C594.408 474.941 598.678 478.266 602.95 481.588C604.567 482.85 606.415 484.309 608.184 485.887C608.354 484.998 608.533 484.107 608.711 483.229C608.835 482.622 609.124 482.068 609.542 481.639C609.961 481.209 610.489 480.923 611.06 480.818C611.631 480.712 612.218 480.791 612.747 481.045C613.275 481.299 613.721 481.716 614.027 482.244L617.313 487.902C619.71 492.034 621.826 496.106 621.395 500.497C621.397 500.551 621.393 500.604 621.384 500.657C621.297 501.378 621.137 502.087 620.907 502.771L620.806 503.07Z" fill="#9FBF43"/>
<path d="M648.998 503.721L382.094 504C381.828 503.999 381.573 503.884 381.385 503.682C381.197 503.48 381.092 503.206 381.092 502.92C381.092 502.635 381.197 502.361 381.385 502.159C381.573 501.956 381.828 501.842 382.094 501.84L648.998 501.562C649.264 501.563 649.519 501.678 649.706 501.88C649.894 502.082 650 502.356 650 502.641C650 502.927 649.894 503.201 649.706 503.403C649.519 503.605 649.264 503.72 648.998 503.721Z" fill="#9FBF43"/>
</g>
<defs>
<clipPath id="clip0_20_438">
<rect width="650" height="504" fill="white"/>
</clipPath>
</defs>
</svg>
