<svg width="407" height="282" viewBox="0 0 407 282" fill="none" xmlns="http://www.w3.org/2000/svg">
<g clip-path="url(#clip0_20_335)">
<path d="M153.381 55.0573C150.281 43.7695 175.282 34.09 181.847 43.1801C182.76 41.8878 186.133 41.1028 187.681 41.4992C189.229 41.8957 190.531 42.8868 191.801 43.8462C193.548 45.1861 195.358 46.5736 196.429 48.5003C197.509 50.419 197.675 53.0355 196.223 54.7005C195.072 56.0246 191.674 56.8809 189.944 57.2298C188.737 57.4756 187.721 57.6738 186.848 57.8165C186.07 56.6827 185.673 55.2793 185.816 53.9077C184.641 54.6847 183.847 56.0167 183.72 57.428C183.696 57.7214 193.476 93.6622 193.476 93.6622C192.468 94.2568 191.222 94.8119 189.785 95.3193C187.348 91.6483 185.348 87.3192 184.03 82.7919C183.728 85.5908 183.776 88.6274 184.141 91.7117C184.331 93.353 184.617 95.0021 184.982 96.6513C173.361 99.1568 155.881 98.3322 148.276 87.676C148.275 87.6319 148.274 87.5878 148.273 87.5437C148.218 85.5497 145.494 85.0542 144.766 86.9113C144.581 87.3815 144.411 87.7884 144.26 88.1121C142.045 80.1992 144.911 71.0416 153.381 55.0573Z" fill="#2F2E41"/>
<path d="M311.349 144.569C308.6 147.826 303.727 148.241 300.466 145.494C300.15 145.228 299.856 144.937 299.586 144.624L262.885 156.235L257.174 146.885L300.865 133.413C304.293 130.887 309.122 131.615 311.651 135.039C313.767 137.904 313.643 141.844 311.349 144.569Z" fill="#FFB6B6"/>
<path d="M181.375 115.557C181.375 115.557 197.628 97.2977 204.708 105.054C211.788 112.81 233.875 146.798 233.875 146.798L285.436 135.933L290.422 149.524L231.878 168.473C227.476 169.897 222.653 168.42 219.808 164.776L181.375 115.557Z" fill="#9FBF43"/>
<path d="M216.675 282.001H136.062L135.989 281.372L135.941 280.953L135.249 275.086L134.268 266.731L133.891 263.52C133.865 263.358 133.838 263.201 133.817 263.038C133.487 260.948 133.298 258.848 133.23 256.753C133.13 253.872 133.262 250.996 133.571 248.157V248.141C133.739 246.606 133.954 245.087 134.221 243.584C134.557 241.651 134.961 239.749 135.428 237.89C135.962 235.732 136.571 233.631 137.237 231.604C138.003 229.231 138.842 226.958 139.707 224.81C139.801 224.579 139.896 224.349 139.985 224.124L139.99 224.118C144.553 213.008 149.734 205.418 149.734 205.418H208.462C208.462 205.418 211.179 217.324 212.526 227.157C212.741 228.712 212.92 230.21 213.051 231.604C213.287 234.176 213.355 236.386 213.15 237.89C213.025 238.822 212.794 239.482 212.437 239.786C209.207 242.541 212.904 248.387 212.904 248.387C212.904 248.387 215.673 252.614 213.261 254.993C212.783 255.464 212.511 256.072 212.379 256.753C212.17 257.879 212.353 259.188 212.642 260.346C212.93 261.509 213.329 262.52 213.549 263.038C213.649 263.269 213.712 263.4 213.712 263.4L214.121 266.632L214.519 269.743L215.196 275.086L215.4 276.029L216.454 280.953L216.544 281.372L216.675 282.001Z" fill="#2F2E41"/>
<path d="M175.956 90.5762L151.308 92.7688L146.765 106.889L141.815 107.605C133.355 108.828 128.32 117.69 131.607 125.572L135.963 136.016C135.963 136.016 129.565 155.742 137.423 164.031L140.767 200.535L133.224 224.6L221.4 227.443L206.381 197.257L205.935 178.515C205.935 178.515 215.533 144.639 206.635 133.863L203.163 103.214L185.075 100.504L175.956 90.5762Z" fill="#9FBF43"/>
<path d="M192.643 72.4607C195.183 61.5189 188.361 50.5922 177.406 48.0554C166.451 45.5185 155.512 52.3321 152.972 63.2739C150.432 74.2158 157.254 85.1425 168.209 87.6793C179.164 90.2162 190.103 83.4026 192.643 72.4607Z" fill="#FFB6B6"/>
<path d="M142.267 56.6433C139.168 45.3555 164.168 35.676 170.734 44.7661C171.646 43.4737 175.02 42.6887 176.568 43.0852C178.116 43.4816 179.418 44.4727 180.688 45.4321C182.434 46.772 184.244 48.1596 185.316 50.0862C186.396 52.005 186.562 54.6215 185.11 56.2865C183.959 57.6106 180.561 58.4669 178.83 58.8157C177.624 59.0615 176.608 59.2597 175.735 59.4025C174.957 58.2687 174.56 56.8653 174.703 55.4936C173.528 56.2706 172.734 57.6026 172.607 59.014C172.583 59.3073 182.363 95.2481 182.363 95.2481C181.355 95.8428 180.108 96.3978 178.672 96.9052C176.235 93.2342 174.234 88.9052 172.917 84.3779C172.615 87.1767 172.663 90.2134 173.028 93.2976C173.218 94.9389 173.504 96.5881 173.869 98.2372C162.248 100.743 144.768 99.9181 137.163 89.262C137.162 89.2179 137.161 89.1738 137.159 89.1296C137.105 87.1357 134.381 86.6402 133.652 88.4973C133.468 88.9674 133.298 89.3743 133.147 89.698C130.932 81.7852 133.797 72.6275 142.267 56.6433Z" fill="#2F2E41"/>
<path d="M316.325 281.371H42.5641L0.0839844 281.895L298.002 264.13C307.94 263.537 316.325 271.427 316.325 281.371Z" fill="#335B80"/>
<path d="M383.37 280.952V282H0V0H1.04889V280.952H383.37Z" fill="#D3F279"/>
<path d="M342.349 65.226H272.571C270.962 65.226 269.652 63.923 269.652 62.3217C269.652 60.7203 270.962 59.418 272.571 59.418H342.349C343.959 59.418 345.267 60.7203 345.267 62.3217C345.267 63.923 343.959 65.226 342.349 65.226Z" fill="#9FBF43"/>
<path d="M307.434 74.5928C307.173 73.9508 306.272 73.9508 306.011 74.593C304.192 79.0727 301.602 84.0894 298.785 87.9233C298.334 88.5371 298.956 89.3573 299.672 89.0983L305.712 86.916V124.256H307.733V86.916L313.775 89.0986C314.491 89.3576 315.113 88.5374 314.662 87.9235C311.845 84.0896 309.254 79.0727 307.434 74.5928Z" fill="#3F3D56"/>
<path d="M405.201 86.571H362.181C361.189 86.571 360.381 85.7677 360.381 84.7804C360.381 83.7932 361.189 82.9902 362.181 82.9902H405.201C406.193 82.9902 407 83.7932 407 84.7804C407 85.7677 406.193 86.571 405.201 86.571Z" fill="#BAEB2F"/>
<path d="M383.675 92.3456C383.514 91.9498 382.959 91.9499 382.798 92.3458C381.676 95.1076 380.079 98.2006 378.342 100.564C378.064 100.943 378.448 101.448 378.89 101.289L382.613 99.9433V122.965H383.859V99.9432L387.584 101.289C388.026 101.449 388.409 100.943 388.131 100.564C386.394 98.2007 384.797 95.1076 383.675 92.3456Z" fill="#BAEB2F"/>
<path d="M383.698 145.178C388.861 145.178 393.046 140.998 393.046 135.841C393.046 130.684 388.861 126.504 383.698 126.504C378.535 126.504 374.35 130.684 374.35 135.841C374.35 140.998 378.535 145.178 383.698 145.178Z" fill="#BAEB2F"/>
<path d="M267.272 33.6648H224.251C223.259 33.6648 222.452 32.8615 222.452 31.8742C222.452 30.8869 223.259 30.084 224.251 30.084H267.272C268.264 30.084 269.071 30.8869 269.071 31.8742C269.071 32.8615 268.264 33.6648 267.272 33.6648Z" fill="#BAEB2F"/>
<path d="M245.746 39.4394C245.585 39.0436 245.029 39.0436 244.869 39.4395C243.747 42.2014 242.15 45.2943 240.413 47.658C240.135 48.0364 240.518 48.5421 240.96 48.3824L244.684 47.037V70.0583H245.93V47.037L249.655 48.3826C250.097 48.5423 250.48 48.0366 250.202 47.6582C248.465 45.2944 246.868 42.2014 245.746 39.4394Z" fill="#BAEB2F"/>
<path d="M245.769 92.2716C250.931 92.2716 255.117 88.0913 255.117 82.9346C255.117 77.778 250.931 73.5977 245.769 73.5977C240.606 73.5977 236.42 77.778 236.42 82.9346C236.42 88.0913 240.606 92.2716 245.769 92.2716Z" fill="#BAEB2F"/>
<path d="M137.388 263.853C139.594 260.206 138.422 255.464 134.771 253.26C134.418 253.047 134.047 252.862 133.664 252.708L132.89 214.264L122.191 211.863L123.445 257.517C122.15 261.571 124.39 265.905 128.449 267.198C131.845 268.28 135.54 266.897 137.388 263.853Z" fill="#FFB6B6"/>
<path d="M144.831 112.177C144.831 112.177 131.72 109.034 127.524 117.939C123.329 126.844 122.972 165.594 122.972 165.594L120.707 244.18L137.338 243.448L150.6 146.749L144.831 112.177Z" fill="#9FBF43"/>
<path d="M138.946 275.45C139.241 275.819 139.689 276.034 140.163 276.031H225.301C226.167 276.03 226.867 275.329 226.866 274.465C226.866 274.357 226.855 274.25 226.833 274.145L225.511 267.875C225.4 267.356 225.033 266.928 224.536 266.739C224.359 266.669 224.17 266.634 223.98 266.634H141.479C141.289 266.634 141.1 266.669 140.923 266.739C140.426 266.928 140.059 267.356 139.948 267.875L138.626 274.145C138.531 274.606 138.648 275.085 138.946 275.45Z" fill="#466A8C"/>
<path d="M106.352 135.086V233.177C106.354 235.78 108.466 237.889 111.072 237.892H256.605C259.211 237.89 261.323 235.78 261.325 233.177V135.086C261.319 132.486 259.209 130.38 256.605 130.377H111.072C108.468 130.38 106.358 132.486 106.352 135.086Z" fill="#5B7A97"/>
<path d="M202.037 216.916C201.864 216.858 201.681 216.832 201.497 216.832H167.45C166.449 216.832 165.63 217.644 165.63 218.644V272.368H203.312V218.644C203.312 217.853 202.798 217.152 202.037 216.916ZM188.381 243.337C188.37 245.558 186.561 247.35 184.337 247.339C182.129 247.324 180.346 245.543 180.336 243.337V237.104C180.357 234.888 182.177 233.107 184.395 233.128C186.587 233.149 188.36 234.92 188.381 237.104V243.337Z" fill="#466A8C"/>
</g>
<defs>
<clipPath id="clip0_20_335">
<rect width="407" height="282" fill="white"/>
</clipPath>
</defs>
</svg>
