<svg width="190" height="150" viewBox="0 0 190 150" fill="none" xmlns="http://www.w3.org/2000/svg">
<g clip-path="url(#clip0_20_31)">
<path d="M37.9642 112.315C37.8113 112.05 37.1498 112.334 37.0282 112.093C36.907 111.853 37.5216 111.487 37.8728 110.65C37.9361 110.499 38.3351 109.549 38.0397 109.256C37.4798 108.7 34.9176 110.994 34.0209 110.243C33.8241 110.078 33.6866 109.75 33.0911 109.216C32.8541 109.003 32.7108 108.907 32.5722 108.943C32.3755 108.993 32.3599 109.265 32.1489 109.798C31.8325 110.599 31.6454 110.55 31.461 111.189C31.3242 111.663 31.3554 111.938 31.1944 111.992C30.9666 112.068 30.7568 111.565 30.468 111.61C30.1733 111.656 29.9952 112.241 29.9389 112.68C29.8333 113.502 30.1263 114.045 30.2888 114.615C30.4653 115.236 30.57 116.179 30.1624 117.514L26.1279 129.229C27.0186 126.825 29.5976 120.235 30.6813 117.786C30.9941 117.079 31.3395 116.362 32.0488 116.079C32.7316 115.807 33.6694 115.97 34.865 115.673C35.0046 115.638 35.3921 115.536 35.4408 115.302C35.4812 115.107 35.2533 114.999 35.2883 114.817C35.3352 114.573 35.7834 114.57 36.3342 114.289C36.7226 114.09 36.9645 113.854 37.1726 113.651C37.2353 113.59 38.1678 112.669 37.9642 112.315Z" fill="#D3F279"/>
<path d="M22.0914 118.484C21.9207 118.484 21.8653 118.901 21.7154 118.893C21.566 118.885 21.569 118.468 21.272 118.05C21.2185 117.974 20.8809 117.498 20.656 117.563C20.2298 117.686 20.583 119.643 19.9667 119.88C19.8315 119.932 19.6352 119.907 19.2091 120.054C19.0395 120.113 18.9525 120.158 18.9295 120.238C18.8968 120.352 19.0216 120.438 19.2148 120.699C19.5046 121.09 19.4276 121.171 19.6785 121.448C19.8647 121.654 20.0049 121.718 19.984 121.815C19.9545 121.952 19.6545 121.913 19.5927 122.072C19.5295 122.234 19.7568 122.493 19.9493 122.648C20.3105 122.939 20.6535 122.947 20.9721 123.03C21.3183 123.119 21.7976 123.339 22.3158 123.93L26.7308 129.351C25.843 128.207 23.4489 125.001 22.5953 123.746C22.349 123.384 22.1072 123.002 22.177 122.562C22.2443 122.138 22.5923 121.711 22.7959 121.02C22.8197 120.939 22.8831 120.714 22.7853 120.622C22.7045 120.545 22.5871 120.629 22.5106 120.559C22.408 120.465 22.5359 120.237 22.5608 119.878C22.5783 119.624 22.5357 119.433 22.4991 119.27C22.488 119.22 22.3185 118.483 22.0914 118.484Z" fill="#D3F279"/>
<path d="M25.4959 119.271L25.3931 118.325L25.44 118.253C25.6574 117.922 25.7682 117.598 25.7696 117.29C25.7698 117.241 25.7676 117.193 25.7654 117.143C25.7565 116.945 25.7454 116.7 25.8695 116.414C25.9391 116.255 26.1345 115.886 26.4284 115.931C26.5075 115.943 26.5673 115.98 26.6127 116.024C26.6194 116.013 26.6263 116.002 26.6336 115.99C26.7251 115.846 26.7976 115.785 26.8674 115.725C26.921 115.68 26.9764 115.633 27.0633 115.521C27.1014 115.472 27.1311 115.429 27.1561 115.393C27.2321 115.284 27.3314 115.154 27.5065 115.156C27.6935 115.165 27.7914 115.325 27.8564 115.43C27.9723 115.619 28.0248 115.754 28.0596 115.844C28.0722 115.877 28.0866 115.914 28.0939 115.925C28.1542 116.017 28.6441 115.931 28.8287 115.9C29.2433 115.829 29.6021 115.767 29.7499 116.037C29.8558 116.23 29.7772 116.485 29.509 116.815C29.4255 116.918 29.3366 116.996 29.2577 117.057C29.3231 117.097 29.3816 117.159 29.4053 117.256C29.4612 117.485 29.2699 117.715 28.8372 117.939C28.7297 117.996 28.585 118.07 28.3822 118.107C28.2867 118.123 28.2007 118.128 28.1271 118.13C28.1256 118.174 28.1156 118.221 28.0897 118.27C28.0137 118.414 27.8555 118.482 27.617 118.466C27.3547 118.452 27.1386 118.4 26.948 118.355C26.7816 118.316 26.6382 118.282 26.5257 118.29C26.3169 118.308 26.156 118.48 25.9672 118.703L25.4959 119.271Z" fill="#D3F279"/>
<path d="M25.9728 113.638L25.111 113.981L25.0318 113.952C24.6654 113.819 24.3334 113.791 24.0445 113.868C23.9986 113.88 23.9533 113.895 23.9071 113.909C23.7242 113.968 23.4968 114.042 23.1969 113.99C23.0297 113.961 22.6337 113.86 22.602 113.556C22.5927 113.474 22.6127 113.405 22.6423 113.348C22.6303 113.344 22.6183 113.34 22.6053 113.336C22.447 113.281 22.3708 113.225 22.2973 113.17C22.2409 113.128 22.1827 113.085 22.056 113.027C22.0005 113.001 21.9526 112.982 21.9124 112.967C21.7907 112.919 21.6433 112.853 21.6011 112.677C21.5622 112.489 21.687 112.351 21.7695 112.259C21.9168 112.096 22.0308 112.009 22.1064 111.952C22.1341 111.931 22.1651 111.907 22.174 111.897C22.2444 111.813 22.04 111.347 21.964 111.171C21.792 110.775 21.6431 110.433 21.8585 110.218C22.0126 110.063 22.2718 110.077 22.6497 110.26C22.7674 110.318 22.8632 110.386 22.9407 110.45C22.9618 110.374 23.0049 110.3 23.0897 110.252C23.2908 110.138 23.5549 110.271 23.8756 110.645C23.9556 110.738 24.0626 110.863 24.1479 111.056C24.188 111.147 24.2137 111.232 24.2345 111.304C24.276 111.295 24.3231 111.293 24.3756 111.306C24.5299 111.346 24.6344 111.486 24.6794 111.728C24.7327 111.993 24.739 112.221 24.7449 112.423C24.7503 112.599 24.7553 112.75 24.7912 112.86C24.8604 113.064 25.0628 113.181 25.3204 113.312L25.9728 113.638Z" fill="#D3F279"/>
<path d="M25.4959 110.851L25.3931 109.905L25.44 109.833C25.6574 109.502 25.7682 109.178 25.7696 108.87C25.7698 108.822 25.7676 108.773 25.7654 108.723C25.7565 108.526 25.7454 108.28 25.8695 107.994C25.9391 107.835 26.1345 107.466 26.4284 107.511C26.5075 107.523 26.5673 107.56 26.6127 107.604C26.6194 107.593 26.6263 107.582 26.6336 107.57C26.7251 107.427 26.7976 107.365 26.8674 107.305C26.921 107.26 26.9764 107.213 27.0633 107.101C27.1014 107.052 27.1311 107.01 27.1561 106.973C27.2321 106.864 27.3314 106.734 27.5065 106.736C27.6935 106.745 27.7914 106.905 27.8564 107.01C27.9723 107.199 28.0248 107.334 28.0596 107.424C28.0722 107.457 28.0866 107.494 28.0939 107.506C28.1542 107.597 28.6441 107.511 28.8287 107.48C29.2433 107.409 29.6021 107.348 29.7499 107.617C29.8558 107.81 29.7772 108.065 29.509 108.395C29.4255 108.498 29.3366 108.576 29.2577 108.637C29.3231 108.677 29.3816 108.739 29.4053 108.836C29.4612 109.065 29.2699 109.295 28.8372 109.519C28.7297 109.576 28.585 109.651 28.3822 109.687C28.2867 109.704 28.2007 109.708 28.1271 109.71C28.1256 109.754 28.1156 109.801 28.0897 109.85C28.0137 109.994 27.8555 110.063 27.617 110.046C27.3547 110.032 27.1386 109.98 26.948 109.935C26.7816 109.896 26.6382 109.862 26.5257 109.87C26.3169 109.888 26.156 110.06 25.9672 110.283L25.4959 110.851Z" fill="#D3F279"/>
<path d="M26.4354 129.214L26.243 129.089L26.0188 129.116C26.0152 129.094 26.0031 129.045 25.9847 128.968C25.8843 128.545 25.5782 127.258 25.323 125.231C25.1448 123.816 25.044 122.361 25.0231 120.906C25.0023 119.449 25.0692 118.346 25.1229 117.459C25.1634 116.79 25.2126 116.154 25.2609 115.533C25.3894 113.876 25.5107 112.311 25.4205 110.578C25.4005 110.191 25.3586 109.386 24.9022 108.529C24.6373 108.032 24.2726 107.591 23.8179 107.218L24.1006 106.852C24.6026 107.264 25.0061 107.752 25.3001 108.304C25.8063 109.254 25.8519 110.132 25.8739 110.553C25.9656 112.317 25.8431 113.897 25.7132 115.57C25.6653 116.188 25.6161 116.822 25.5758 117.488C25.5226 118.367 25.4564 119.46 25.477 120.899C25.4974 122.336 25.5971 123.773 25.7728 125.17C26.025 127.172 26.3266 128.44 26.4256 128.856C26.4784 129.079 26.4895 129.125 26.4354 129.214Z" fill="#D3F279"/>
<path d="M22.9853 107.961C22.9666 107.961 22.9478 107.96 22.9288 107.959C22.5423 107.938 22.1844 107.699 21.8649 107.251C21.7151 107.04 21.6384 106.799 21.4855 106.319C21.4618 106.245 21.3465 105.869 21.2765 105.353C21.2306 105.015 21.2364 104.874 21.3013 104.749C21.3734 104.61 21.4899 104.514 21.6211 104.448C21.6153 104.403 21.62 104.357 21.6388 104.31C21.7162 104.115 21.9218 104.141 22.033 104.153C22.0893 104.161 22.1596 104.17 22.2354 104.166C22.3546 104.16 22.4186 104.124 22.5157 104.069C22.6085 104.016 22.724 103.951 22.8953 103.915C23.233 103.842 23.516 103.941 23.6093 103.973C24.1001 104.142 24.3421 104.535 24.6222 104.99C24.6781 105.082 24.8697 105.414 24.9963 105.87C25.0876 106.199 25.0747 106.345 25.0472 106.454C24.9914 106.677 24.8595 106.805 24.5247 107.087C24.175 107.383 23.9995 107.531 23.8488 107.621C23.498 107.83 23.2778 107.961 22.9853 107.961Z" fill="#D3F279"/>
<path d="M167.238 112.616C167.085 112.35 166.423 112.635 166.302 112.394C166.18 112.154 166.795 111.787 167.146 110.951C167.21 110.8 167.609 109.85 167.313 109.556C166.753 109.001 164.191 111.295 163.294 110.544C163.098 110.379 162.96 110.05 162.364 109.516C162.128 109.304 161.984 109.208 161.846 109.244C161.649 109.294 161.633 109.566 161.422 110.099C161.106 110.899 160.919 110.851 160.734 111.49C160.598 111.964 160.629 112.239 160.468 112.293C160.24 112.369 160.03 111.866 159.741 111.911C159.447 111.957 159.269 112.542 159.212 112.98C159.107 113.803 159.4 114.346 159.562 114.916C159.739 115.536 159.843 116.479 159.436 117.814L155.401 129.53C156.292 127.126 158.871 120.536 159.955 118.087C160.268 117.38 160.613 116.663 161.322 116.38C162.005 116.108 162.943 116.27 164.138 115.973C164.278 115.939 164.666 115.837 164.714 115.602C164.755 115.408 164.527 115.3 164.562 115.118C164.609 114.874 165.057 114.871 165.608 114.589C165.996 114.391 166.238 114.155 166.446 113.952C166.509 113.891 167.441 112.97 167.238 112.616Z" fill="#F2F2F2"/>
<path d="M151.365 118.784C151.194 118.785 151.139 119.202 150.989 119.194C150.839 119.186 150.842 118.769 150.545 118.35C150.492 118.275 150.154 117.799 149.929 117.863C149.503 117.986 149.856 119.944 149.24 120.181C149.105 120.233 148.909 120.208 148.482 120.355C148.313 120.414 148.226 120.458 148.203 120.539C148.17 120.653 148.295 120.739 148.488 121C148.778 121.391 148.701 121.471 148.952 121.749C149.138 121.955 149.278 122.019 149.257 122.116C149.228 122.253 148.928 122.214 148.866 122.373C148.803 122.535 149.03 122.794 149.223 122.949C149.584 123.24 149.927 123.248 150.245 123.331C150.592 123.42 151.071 123.639 151.589 124.231L156.004 129.652C155.116 128.508 152.722 125.302 151.869 124.047C151.622 123.685 151.381 123.303 151.45 122.863C151.518 122.439 151.866 122.011 152.069 121.321C152.093 121.24 152.157 121.015 152.059 120.922C151.978 120.846 151.861 120.93 151.784 120.86C151.681 120.766 151.809 120.538 151.834 120.178C151.852 119.925 151.809 119.734 151.773 119.57C151.761 119.521 151.592 118.784 151.365 118.784Z" fill="#F2F2F2"/>
<path d="M154.769 119.572L154.667 118.626L154.713 118.554C154.931 118.222 155.042 117.898 155.043 117.591C155.043 117.542 155.041 117.493 155.039 117.444C155.03 117.246 155.019 117.001 155.143 116.715C155.213 116.556 155.408 116.187 155.702 116.232C155.781 116.244 155.841 116.281 155.886 116.325C155.893 116.314 155.9 116.303 155.907 116.291C155.999 116.147 156.071 116.086 156.141 116.026C156.194 115.981 156.25 115.933 156.337 115.822C156.375 115.773 156.404 115.73 156.43 115.694C156.506 115.585 156.605 115.455 156.78 115.457C156.967 115.466 157.065 115.626 157.13 115.731C157.246 115.919 157.298 116.055 157.333 116.145C157.346 116.178 157.36 116.215 157.367 116.226C157.428 116.318 157.918 116.232 158.102 116.201C158.517 116.13 158.876 116.068 159.023 116.338C159.129 116.53 159.051 116.785 158.782 117.116C158.699 117.218 158.61 117.296 158.531 117.358C158.597 117.398 158.655 117.46 158.679 117.556C158.735 117.786 158.543 118.015 158.111 118.24C158.003 118.296 157.858 118.371 157.656 118.407C157.56 118.424 157.474 118.428 157.401 118.431C157.399 118.474 157.389 118.522 157.363 118.571C157.287 118.715 157.129 118.783 156.89 118.767C156.628 118.753 156.412 118.701 156.221 118.656C156.055 118.617 155.912 118.583 155.799 118.591C155.59 118.608 155.429 118.781 155.241 119.004L154.769 119.572Z" fill="#F2F2F2"/>
<path d="M155.246 113.939L154.384 114.281L154.305 114.253C153.939 114.12 153.607 114.092 153.318 114.169C153.272 114.181 153.227 114.195 153.181 114.21C152.998 114.269 152.77 114.342 152.47 114.291C152.303 114.262 151.907 114.161 151.875 113.856C151.866 113.775 151.886 113.706 151.916 113.649C151.904 113.645 151.892 113.641 151.879 113.637C151.72 113.582 151.644 113.526 151.571 113.471C151.514 113.429 151.456 113.386 151.329 113.328C151.274 113.302 151.226 113.283 151.186 113.267C151.064 113.219 150.917 113.153 150.875 112.978C150.836 112.79 150.96 112.651 151.043 112.56C151.19 112.397 151.304 112.31 151.38 112.252C151.407 112.231 151.439 112.208 151.447 112.198C151.518 112.114 151.313 111.647 151.237 111.471C151.065 111.076 150.917 110.734 151.132 110.518C151.286 110.364 151.545 110.378 151.923 110.561C152.041 110.618 152.137 110.687 152.214 110.75C152.235 110.675 152.278 110.601 152.363 110.553C152.564 110.439 152.828 110.571 153.149 110.946C153.229 111.039 153.336 111.164 153.421 111.357C153.461 111.448 153.487 111.532 153.508 111.605C153.549 111.596 153.597 111.594 153.649 111.607C153.803 111.646 153.908 111.787 153.953 112.029C154.006 112.294 154.012 112.522 154.018 112.724C154.024 112.899 154.029 113.051 154.065 113.161C154.134 113.365 154.336 113.482 154.594 113.613L155.246 113.939Z" fill="#F2F2F2"/>
<path d="M154.769 111.152L154.667 110.206L154.713 110.134C154.931 109.802 155.042 109.479 155.043 109.171C155.043 109.122 155.041 109.073 155.039 109.024C155.03 108.826 155.019 108.581 155.143 108.295C155.213 108.136 155.408 107.767 155.702 107.812C155.781 107.824 155.841 107.861 155.886 107.905C155.893 107.894 155.9 107.883 155.907 107.871C155.999 107.727 156.071 107.666 156.141 107.606C156.194 107.561 156.25 107.514 156.337 107.402C156.375 107.353 156.404 107.31 156.43 107.274C156.506 107.165 156.605 107.035 156.78 107.037C156.967 107.046 157.065 107.206 157.13 107.311C157.246 107.499 157.298 107.635 157.333 107.725C157.346 107.758 157.36 107.795 157.367 107.806C157.428 107.898 157.918 107.812 158.102 107.781C158.517 107.71 158.876 107.648 159.023 107.918C159.129 108.111 159.051 108.365 158.782 108.696C158.699 108.798 158.61 108.877 158.531 108.938C158.597 108.978 158.655 109.04 158.679 109.136C158.735 109.366 158.543 109.596 158.111 109.82C158.003 109.876 157.858 109.951 157.656 109.987C157.56 110.004 157.474 110.008 157.401 110.011C157.399 110.055 157.389 110.102 157.363 110.151C157.287 110.295 157.129 110.363 156.89 110.347C156.628 110.333 156.412 110.281 156.221 110.236C156.055 110.197 155.912 110.163 155.799 110.171C155.59 110.188 155.429 110.361 155.241 110.584L154.769 111.152Z" fill="#F2F2F2"/>
<path d="M155.709 129.514L155.516 129.39L155.292 129.417C155.289 129.395 155.276 129.346 155.258 129.269C155.158 128.846 154.852 127.559 154.596 125.531C154.418 124.116 154.317 122.661 154.297 121.207C154.276 119.75 154.343 118.646 154.396 117.76C154.437 117.091 154.486 116.454 154.534 115.834C154.663 114.177 154.784 112.612 154.694 110.879C154.674 110.492 154.632 109.686 154.176 108.83C153.911 108.333 153.546 107.891 153.091 107.519L153.374 107.152C153.876 107.564 154.28 108.053 154.574 108.605C155.08 109.555 155.125 110.432 155.147 110.854C155.239 112.618 155.117 114.198 154.987 115.871C154.939 116.489 154.89 117.123 154.849 117.789C154.796 118.667 154.73 119.761 154.75 121.199C154.771 122.637 154.871 124.074 155.046 125.471C155.298 127.473 155.6 128.741 155.699 129.157C155.752 129.38 155.763 129.426 155.709 129.514Z" fill="#F2F2F2"/>
<path d="M152.259 108.262C152.24 108.262 152.221 108.261 152.202 108.26C151.816 108.238 151.458 108 151.138 107.551C150.988 107.34 150.912 107.1 150.759 106.62C150.735 106.546 150.62 106.17 150.55 105.653C150.504 105.316 150.51 105.175 150.575 105.05C150.647 104.911 150.763 104.814 150.895 104.749C150.889 104.704 150.893 104.658 150.912 104.611C150.99 104.416 151.195 104.442 151.306 104.454C151.363 104.461 151.433 104.471 151.509 104.467C151.628 104.461 151.692 104.424 151.789 104.369C151.882 104.317 151.997 104.252 152.169 104.216C152.506 104.143 152.789 104.242 152.883 104.274C153.374 104.443 153.616 104.836 153.896 105.291C153.951 105.383 154.143 105.715 154.27 106.171C154.361 106.5 154.348 106.646 154.321 106.755C154.265 106.978 154.133 107.106 153.798 107.388C153.448 107.684 153.273 107.832 153.122 107.922C152.771 108.131 152.551 108.262 152.259 108.262Z" fill="#F2F2F2"/>
<path d="M93.0525 58.4135C103.962 58.4135 112.807 49.2984 112.807 38.0544C112.807 26.8104 103.962 17.6953 93.0525 17.6953C82.1426 17.6953 73.2983 26.8104 73.2983 38.0544C73.2983 49.2984 82.1426 58.4135 93.0525 58.4135Z" fill="#85CCA2"/>
<path d="M169.374 129.089C169.374 129.228 169.265 129.341 169.13 129.341H0V128.838H169.13C169.265 128.838 169.374 128.95 169.374 129.089Z" fill="#BAEB2F"/>
<path d="M143.89 129.07C143.89 140.48 145.052 148.831 132.996 149.729C120.05 150.693 122.102 140.48 122.102 129.07C122.102 117.661 120.359 106.316 132.996 108.412C138.936 109.397 143.89 117.661 143.89 129.07Z" fill="#3F3D56"/>
<path d="M125.589 143.441C126.551 143.441 127.332 137.007 127.332 129.07C127.332 121.133 126.551 114.699 125.589 114.699C124.626 114.699 123.846 121.133 123.846 129.07C123.846 137.007 124.626 143.441 125.589 143.441Z" fill="#E6E6E6"/>
<path d="M56.6344 110.697C56.6344 120.766 57.6598 128.135 47.0208 128.928C35.5964 129.779 37.4071 120.766 37.4071 110.697C37.4071 100.629 35.869 90.6169 47.0208 92.4664C52.2628 93.3358 56.6344 100.629 56.6344 110.697Z" fill="#3F3D56"/>
<path d="M40.4835 123.38C41.333 123.38 42.0217 117.702 42.0217 110.698C42.0217 103.694 41.333 98.0156 40.4835 98.0156C39.634 98.0156 38.9453 103.694 38.9453 110.698C38.9453 117.702 39.634 123.38 40.4835 123.38Z" fill="#E6E6E6"/>
<path d="M73.1531 128.922C73.1531 140.331 74.3151 148.682 62.2593 149.581C49.3136 150.545 51.3655 140.331 51.3655 128.922C51.3655 117.513 49.6224 106.168 62.2593 108.264C68.1994 109.249 73.1531 117.513 73.1531 128.922Z" fill="#3F3D56"/>
<path d="M54.8514 143.293C55.8141 143.293 56.5944 136.859 56.5944 128.922C56.5944 120.985 55.8141 114.551 54.8514 114.551C53.8888 114.551 53.1084 120.985 53.1084 128.922C53.1084 136.859 53.8888 143.293 54.8514 143.293Z" fill="#E6E6E6"/>
<path d="M38.7286 86.5566V93.6385L36.8403 96.8859L37.4213 108.263L37.8914 108.562L37.5666 97.0356C40.8763 95.7657 41.9586 98.1048 41.6336 102.724L41.0526 110.509L50.3487 116.496L51.5107 104.221L55.8682 102.125L60.6615 122.934H140.97C144.281 122.934 146.926 120.094 146.792 116.685L145.779 90.8979L143.044 88.0796L140.511 57.8808C139.879 50.3499 133.683 44.6179 126.35 44.7807L76.1126 45.8966C73.3872 45.9571 70.6945 46.5226 68.1635 47.5661L56.0135 52.5749L48.1711 60.6575L47.0079 80.1196L44.0426 79.8538C41.9096 79.6627 39.9642 81.1155 39.4763 83.2641L38.7286 86.5566Z" fill="#8FA8BF"/>
<path d="M64.7283 114.55C66.3327 114.55 67.6333 113.21 67.6333 111.556C67.6333 109.903 66.3327 108.562 64.7283 108.562C63.1239 108.562 61.8232 109.903 61.8232 111.556C61.8232 113.21 63.1239 114.55 64.7283 114.55Z" fill="#3F3D56"/>
<path d="M71.4099 114.55C73.0143 114.55 74.3149 113.21 74.3149 111.556C74.3149 109.903 73.0143 108.562 71.4099 108.562C69.8055 108.562 68.5049 109.903 68.5049 111.556C68.5049 113.21 69.8055 114.55 71.4099 114.55Z" fill="#3F3D56"/>
<path d="M136.482 114.55C138.087 114.55 139.387 113.21 139.387 111.556C139.387 109.903 138.087 108.562 136.482 108.562C134.878 108.562 133.577 109.903 133.577 111.556C133.577 113.21 134.878 114.55 136.482 114.55Z" fill="#3F3D56"/>
<path d="M143.164 114.55C144.768 114.55 146.069 113.21 146.069 111.556C146.069 109.903 144.768 108.562 143.164 108.562C141.559 108.562 140.259 109.903 140.259 111.556C140.259 113.21 141.559 114.55 143.164 114.55Z" fill="#3F3D56"/>
<path d="M138.63 83.433H70.335C69.8129 83.433 69.3269 83.2187 68.9666 82.8292C68.6063 82.4398 68.4214 81.9293 68.446 81.3919L69.4438 59.6481C69.491 58.62 70.3102 57.8043 71.3085 57.7911L135.795 56.9356C136.748 56.9263 137.573 57.654 137.696 58.6367L140.506 81.236C140.575 81.7913 140.409 82.3509 140.05 82.7713C139.691 83.1918 139.174 83.433 138.63 83.433Z" fill="white"/>
<path d="M60.7999 82.3648H56.3686C55.8429 82.3648 55.3367 82.1367 54.9799 81.7388C54.623 81.3408 54.442 80.8028 54.4833 80.2625L55.7588 63.5798C55.8287 62.6638 56.494 61.9331 57.3766 61.8033L61.9557 61.1291C62.529 61.0452 63.1 61.2314 63.5212 61.6414C63.9427 62.0516 64.1563 62.6278 64.1075 63.2228L62.6843 80.5798C62.6009 81.5973 61.7907 82.3648 60.7999 82.3648Z" fill="white"/>
<path d="M50.6092 81.9416C50.5634 81.9416 50.5173 81.9398 50.4712 81.9366L49.9509 81.8983C49.437 81.8603 48.9711 81.6159 48.6391 81.2098C48.3072 80.8034 48.1527 80.2888 48.204 79.7601L49.6353 65.0077C49.7202 64.1344 50.366 63.4236 51.2063 63.2792C51.7789 63.1801 52.3542 63.3543 52.7848 63.7555C53.2154 64.156 53.4412 64.7282 53.4045 65.325L52.4933 80.116C52.4611 80.6385 52.2327 81.1159 51.85 81.4603C51.5023 81.7735 51.0661 81.9416 50.6092 81.9416Z" fill="white"/>
<path d="M43.4039 112.04L42.6503 95.0898C42.6503 95.0898 40.9073 92.6946 39.7453 93.2934C38.5833 93.8922 36.8574 97.2221 36.8574 97.2221C36.8574 97.2221 40.2255 96.9946 40.1307 100.683C40.0358 104.371 40.7077 110.338 40.7077 110.338L43.4039 112.04Z" fill="#CCCCCC"/>
<path d="M50.4194 116.468L50.7844 103.822L54.4797 99.3241C54.4797 99.3241 59.4183 98.2243 59.3136 103.992C59.209 109.759 60.8067 123.083 60.8067 123.083L57.1955 120.745C57.1955 120.745 56.3039 106.466 53.6894 104.969C51.0749 103.472 51.9464 104.67 51.9464 104.67L50.4194 116.468Z" fill="#CCCCCC"/>
<path d="M46.5706 84.0509L43.7075 82.3648H44.0201C44.4667 82.3648 44.8287 81.9916 44.8287 81.5314V74.2162C44.8287 73.7559 44.4667 73.3828 44.0201 73.3828H40.9893C40.5427 73.3828 40.1807 73.7559 40.1807 74.2162V81.5314C40.1807 81.9916 40.5427 82.3648 40.9893 82.3648H42.5365L46.2823 84.5708L46.5706 84.0509Z" fill="#3F3D56"/>
<path d="M50.4392 95.0121L48.2057 94.3501C47.666 94.1902 47.1027 94.5114 46.9475 95.0676C46.7923 95.6238 47.104 96.2044 47.6437 96.3643L49.8772 97.0263C50.4169 97.1862 50.9802 96.865 51.1353 96.3088C51.2905 95.7526 50.9788 95.172 50.4392 95.0121Z" fill="#3F3D56"/>
<path d="M141.429 73.7572L131.879 73.3323C131.318 73.3073 130.844 73.7558 130.819 74.334C130.795 74.9122 131.23 75.4012 131.791 75.4261L141.341 75.851C141.903 75.876 142.377 75.4275 142.401 74.8493C142.425 74.2711 141.99 73.7821 141.429 73.7572Z" fill="#3F3D56"/>
<path d="M150.435 93.5169L140.885 93.0921C140.324 93.0671 139.85 93.5156 139.825 94.0938C139.801 94.672 140.236 95.1609 140.797 95.1859L150.347 95.6108C150.908 95.6357 151.383 95.1872 151.407 94.609C151.431 94.0308 150.996 93.5419 150.435 93.5169Z" fill="#3F3D56"/>
<path d="M111.499 116.346C123.692 116.346 133.577 106.159 133.577 93.5922C133.577 81.0253 123.692 70.8379 111.499 70.8379C99.3056 70.8379 89.4209 81.0253 89.4209 93.5922C89.4209 106.159 99.3056 116.346 111.499 116.346Z" fill="#3F3D56"/>
<path d="M111.499 107.065C118.719 107.065 124.572 101.033 124.572 93.5921C124.572 86.1512 118.719 80.1191 111.499 80.1191C104.28 80.1191 98.4268 86.1512 98.4268 93.5921C98.4268 101.033 104.28 107.065 111.499 107.065Z" fill="#E6E6E6"/>
<path d="M140.75 48.4042C140.861 49.7325 141.616 50.75 142.436 50.677C143.257 50.604 143.831 49.4682 143.72 48.1395C143.682 47.6081 143.522 47.0937 143.252 46.6392L142.712 41.0176L140.158 41.3349L140.961 46.8431C140.771 47.3386 140.699 47.8739 140.75 48.4042Z" fill="#FFB6B6"/>
<path d="M133.357 15.861C133.357 15.861 136.176 15.0429 137.259 16.4281C138.343 17.8134 142.384 31.4171 142.384 31.4171L143.638 46.0581L139.637 44.8103L138.08 33.2638L135.466 27.2759L133.357 15.861Z" fill="#D3F279"/>
<path d="M132.437 7.05273H123.848V15.4474H132.437V7.05273Z" fill="#2F2E41"/>
<path d="M128.051 11.3299C130.364 11.3299 132.239 9.39745 132.239 7.0136C132.239 4.62975 130.364 2.69727 128.051 2.69727C125.738 2.69727 123.863 4.62975 123.863 7.0136C123.863 9.39745 125.738 11.3299 128.051 11.3299Z" fill="#FFB6B6"/>
<path d="M126.069 0.0321634C123.392 0.459148 123.52 1.48423 122.663 2.01637C121.153 2.95388 120.557 5.66114 121.355 7.44762C121.568 7.92495 122.017 8.57611 121.799 9.2792C121.631 9.81892 121.149 10.1373 121.058 10.195C120.317 10.6669 120.801 10.1055 120.466 10.5002C120.096 10.936 120.669 11.5515 120.318 12.3318C120.006 13.0236 119.365 12.9652 119.281 13.4002C119.138 14.1493 120.786 15.6555 122.539 15.5371C124.101 15.4316 125.261 14.071 125.649 12.7897C125.91 11.9314 126.022 10.455 125.353 9.73709C125.259 9.6364 125.003 9.39257 124.761 8.97393C124.569 8.64264 124.317 8.20655 124.465 7.90551C124.622 7.58481 125.069 7.75361 125.353 7.44762C125.739 7.03265 125.281 6.33156 125.353 5.61605C125.476 4.40446 127.142 2.94726 128.907 3.17395C130.911 3.43111 131.645 5.67598 131.721 5.92131C131.879 6.42977 131.876 6.92168 131.869 7.90551C131.86 9.31738 131.855 10.2023 131.425 11.1108C130.807 12.4174 130.02 12.2762 129.796 13.2476C129.447 14.7621 131.089 16.2831 131.277 16.4528C132.67 17.711 134.773 18.0893 135.127 17.5213C135.447 17.0094 134.044 16.2131 134.091 14.6213C134.131 13.2418 135.214 12.8213 134.979 11.8739C134.721 10.8311 133.341 11.069 132.758 9.88971C132.214 8.78899 133.217 8.17828 133.054 5.92131C133.02 5.44387 132.874 4.07362 132.017 2.71605C131.64 2.11798 131.256 1.50971 130.536 1.18975C129.731 0.831551 127.485 -0.193691 126.069 0.0321634Z" fill="#2F2E41"/>
<path d="M124.292 3.84814C124.401 4.79329 125.778 5.25647 126.365 5.37445C126.614 5.42442 127.455 5.59326 128.29 5.22182C128.599 5.08452 128.712 4.96036 129.031 4.91656C129.463 4.85727 129.681 5.02667 130.364 5.22182C131.123 5.43882 131.503 5.54733 131.697 5.37445C132.013 5.09184 131.77 4.16732 131.4 3.54288C130.717 2.38825 129.466 2.03071 128.883 1.86393C128.216 1.67341 126.864 1.28676 125.625 2.01656C125.459 2.11414 124.182 2.88786 124.292 3.84814Z" fill="#2F2E41"/>
<path d="M144.678 88.7719L146.816 88.8239L148.007 78.9265L144.853 78.8496L144.678 88.7719Z" fill="#FFB6B6"/>
<path d="M152.012 93.3691C152.012 93.7412 151.756 94.043 151.44 94.043H147.197C147.197 94.043 146.779 92.3132 145.077 91.5687L144.959 94.043H142.771L143.036 90.0646C143.036 90.0646 142.45 87.9361 143.666 86.8481C144.882 85.7601 143.897 85.9115 143.897 85.9115L144.376 83.4492L147.683 83.8501L147.707 87.7153L149.312 91.552L151.667 92.7506C151.876 92.8572 152.012 93.1003 152.012 93.3691Z" fill="#2F2E41"/>
<path d="M134.96 69.386L137.05 68.9223L135.967 59.0117L132.882 59.6959L134.96 69.386Z" fill="#FFB6B6"/>
<path d="M143.132 72.0915C143.216 72.4533 143.035 72.8084 142.728 72.8844L138.602 73.9052C138.602 73.9052 137.804 72.3237 135.98 72.0094L136.426 74.4435L134.298 74.9701L133.655 71.0379C133.655 71.0379 132.603 69.1091 133.539 67.7586C134.475 66.4081 133.552 66.7923 133.552 66.7923L133.459 64.2829L136.766 63.877L137.665 67.6296L140.095 70.9741L142.656 71.5731C142.884 71.6264 143.071 71.8301 143.132 72.0915Z" fill="#2F2E41"/>
<path d="M130.963 11.8555L125.734 12.1549L124.281 15.1489L118.762 18.1428L119.633 32.9065L117.642 40.3322L117.89 42.3941L137.354 41.7953L136.192 19.6398L136.482 16.047L132.706 14.8495L130.963 11.8555Z" fill="#D3F279"/>
<path d="M118.035 39.5497C118.035 39.5497 113.678 47.485 118.035 48.6071C119.974 49.1063 122.027 49.4427 123.71 49.6623C125.724 49.9253 127.579 48.5001 127.912 46.4359L132.56 62.9028L137.208 61.7052L138.08 53.1335L143.728 58.954L143.018 82.3637L148.248 82.0643L153.767 56.6154C153.767 56.6154 154.058 54.819 149.7 52.4239C145.343 50.0287 137.499 42.2443 137.499 42.2443L124.136 38.0527L118.035 39.5497Z" fill="#2F2E41"/>
<path d="M127.186 44.791L119.633 39.7013L128.929 29.5217C128.929 29.5217 134.158 27.4259 135.611 35.5097C137.063 43.5934 137.935 50.779 137.935 50.779L127.186 44.791Z" fill="#2F2E41"/>
<path d="M111.602 29.5949L111.933 27.2751C112.174 25.5845 111.086 24.109 109.611 23.7459V22.7841C109.611 21.9573 108.96 21.2871 108.158 21.2871C107.356 21.2871 106.706 21.9573 106.706 22.7841V24.067L101.186 25.2737V23.6823C101.186 22.8555 100.536 22.1853 99.7337 22.1853C98.9315 22.1853 98.2812 22.8555 98.2812 23.6823V25.1947L97.7325 25.0472C96.0938 24.6066 94.7993 26.5443 95.8185 27.9383C95.8316 27.9563 95.845 27.9743 95.8587 27.9923C97.2192 29.7952 97.6079 31.3977 97.6079 31.3977L96.6361 36.8063L97.743 48.051C97.8856 49.5002 99.0959 50.5862 100.508 50.5323L111.255 50.1221C112.666 50.0682 113.796 48.8953 113.835 47.4403C113.971 42.2575 113.987 30.9775 111.602 29.5949Z" fill="#3F3D56"/>
<path d="M101.981 49.0237C101.83 49.0237 101.703 48.9039 101.691 48.7466L101.108 40.7339C101.096 40.569 101.216 40.4253 101.376 40.413C101.535 40.4002 101.676 40.5243 101.688 40.6892L102.271 48.7019C102.283 48.8668 102.163 49.0105 102.003 49.0228C101.995 49.0234 101.988 49.0237 101.981 49.0237Z" fill="#85CCA2"/>
<path d="M97.6074 31.6979C97.4657 31.6979 97.3416 31.5907 97.3205 31.4419C97.2972 31.2783 97.407 31.1263 97.5657 31.1023L111.605 28.9817C111.764 28.958 111.912 29.0708 111.935 29.2344C111.958 29.398 111.848 29.55 111.69 29.574L97.65 31.6947C97.6357 31.6969 97.6215 31.6979 97.6074 31.6979Z" fill="#85CCA2"/>
<path d="M15.1341 118.447C15.0362 118.277 14.6128 118.459 14.535 118.304C14.4574 118.151 14.8508 117.916 15.0756 117.381C15.1161 117.284 15.3715 116.676 15.1824 116.488C14.824 116.132 13.1839 117.601 12.61 117.12C12.484 117.015 12.396 116.804 12.0148 116.462C11.8631 116.326 11.7714 116.265 11.6826 116.288C11.5567 116.32 11.5467 116.494 11.4117 116.836C11.2092 117.348 11.0894 117.317 10.9714 117.726C10.8838 118.029 10.9038 118.205 10.8007 118.24C10.6549 118.288 10.5206 117.966 10.3357 117.995C10.1471 118.025 10.0331 118.399 9.99704 118.68C9.92945 119.206 10.117 119.554 10.221 119.919C10.334 120.316 10.401 120.92 10.1401 121.774L7.55762 129.273C8.12775 127.734 9.77856 123.516 10.4722 121.949C10.6725 121.496 10.8936 121.037 11.3476 120.856C11.7847 120.682 12.385 120.786 13.1503 120.596C13.2396 120.574 13.4877 120.508 13.5189 120.358C13.5447 120.234 13.3988 120.164 13.4212 120.048C13.4513 119.892 13.7382 119.89 14.0907 119.71C14.3393 119.583 14.4942 119.432 14.6274 119.302C14.6675 119.263 15.2644 118.673 15.1341 118.447Z" fill="#D3F279"/>
<path d="M4.97403 122.394C4.86479 122.395 4.82935 122.661 4.73337 122.656C4.63774 122.651 4.63965 122.384 4.44955 122.116C4.41527 122.068 4.19923 121.763 4.05527 121.805C3.7824 121.883 4.0085 123.137 3.61404 123.288C3.52747 123.322 3.40182 123.305 3.12904 123.4C3.02053 123.437 2.96483 123.466 2.9501 123.517C2.92919 123.59 3.00904 123.645 3.13273 123.812C3.31823 124.063 3.26894 124.114 3.42951 124.292C3.54871 124.424 3.63848 124.464 3.62511 124.526C3.60618 124.614 3.4142 124.589 3.37458 124.691C3.33416 124.795 3.47968 124.961 3.60288 125.06C3.83406 125.246 4.05361 125.251 4.25755 125.304C4.47918 125.362 4.78601 125.502 5.11769 125.88L7.94376 129.35C7.37546 128.618 5.84297 126.566 5.29663 125.763C5.13892 125.531 4.98414 125.287 5.02886 125.005C5.07192 124.733 5.29471 124.46 5.42503 124.018C5.44026 123.966 5.48085 123.822 5.41825 123.763C5.36651 123.714 5.29137 123.768 5.2424 123.723C5.17671 123.662 5.25857 123.517 5.2745 123.286C5.28573 123.124 5.25847 123.002 5.23502 122.897C5.22795 122.866 5.11945 122.394 4.97403 122.394Z" fill="#D3F279"/>
<path d="M7.15322 122.899L7.0874 122.294L7.11748 122.248C7.25663 122.036 7.32755 121.828 7.3284 121.632C7.32854 121.6 7.32712 121.569 7.3257 121.537C7.32003 121.411 7.31294 121.254 7.39237 121.071C7.43691 120.969 7.56202 120.733 7.75011 120.762C7.80075 120.769 7.83905 120.793 7.86813 120.821L7.88146 120.8C7.94004 120.707 7.98643 120.668 8.03111 120.63C8.06544 120.601 8.1009 120.571 8.1565 120.499C8.1809 120.468 8.19991 120.44 8.21594 120.417C8.26459 120.348 8.32814 120.264 8.4402 120.266C8.55991 120.271 8.62261 120.374 8.66417 120.441C8.73836 120.562 8.77197 120.648 8.79424 120.706C8.80233 120.727 8.81155 120.751 8.81623 120.758C8.85481 120.816 9.16843 120.762 9.28659 120.742C9.55199 120.696 9.78164 120.657 9.87625 120.829C9.94405 120.953 9.8937 121.116 9.72207 121.327C9.66859 121.393 9.61171 121.443 9.56121 121.482C9.60306 121.508 9.6405 121.547 9.65568 121.609C9.69143 121.756 9.56901 121.903 9.29199 122.047C9.22319 122.083 9.13057 122.131 9.00078 122.154C8.93964 122.165 8.88461 122.168 8.83751 122.169C8.83652 122.197 8.83014 122.228 8.81354 122.259C8.76489 122.351 8.66361 122.395 8.51098 122.384C8.34304 122.375 8.20473 122.342 8.08275 122.313C7.97622 122.288 7.88444 122.267 7.81239 122.272C7.67877 122.283 7.57579 122.393 7.45493 122.536L7.15322 122.899Z" fill="#D3F279"/>
<path d="M7.45882 119.293L6.9072 119.512L6.85649 119.494C6.62197 119.409 6.40942 119.391 6.22452 119.44C6.19512 119.447 6.16612 119.457 6.13657 119.466C6.01946 119.504 5.8739 119.551 5.68196 119.518C5.57489 119.5 5.32143 119.435 5.30117 119.24C5.29518 119.188 5.30797 119.143 5.32694 119.107L5.30325 119.099C5.20195 119.064 5.15314 119.028 5.10613 118.993C5.06998 118.966 5.03272 118.939 4.95166 118.901C4.91611 118.885 4.88549 118.873 4.85975 118.863C4.78182 118.832 4.68749 118.79 4.66044 118.678C4.63556 118.557 4.71543 118.469 4.76828 118.41C4.86252 118.305 4.9355 118.25 4.98391 118.213C5.00161 118.2 5.02151 118.185 5.02718 118.178C5.07228 118.125 4.94141 117.826 4.89278 117.713C4.78265 117.46 4.68736 117.241 4.82526 117.103C4.92387 117.004 5.08976 117.013 5.3317 117.131C5.40701 117.167 5.46836 117.211 5.51794 117.252C5.53148 117.203 5.55902 117.156 5.61335 117.125C5.74204 117.052 5.91112 117.137 6.1164 117.377C6.16761 117.436 6.2361 117.516 6.2907 117.64C6.31636 117.698 6.33279 117.752 6.34611 117.799C6.37271 117.793 6.40287 117.791 6.43644 117.8C6.53522 117.825 6.60207 117.915 6.6309 118.07C6.665 118.24 6.66907 118.386 6.67284 118.515C6.67627 118.627 6.67951 118.724 6.70246 118.795C6.74677 118.925 6.87635 119 7.0412 119.084L7.45882 119.293Z" fill="#D3F279"/>
<path d="M7.15322 117.509L7.0874 116.903L7.11748 116.857C7.25663 116.645 7.32755 116.438 7.3284 116.241C7.32854 116.21 7.32712 116.178 7.3257 116.147C7.32003 116.02 7.31294 115.863 7.39237 115.68C7.43691 115.578 7.56202 115.342 7.75011 115.371C7.80075 115.379 7.83905 115.402 7.86813 115.431L7.88146 115.409C7.94004 115.317 7.98643 115.277 8.03111 115.239C8.06544 115.21 8.1009 115.18 8.1565 115.109C8.1809 115.077 8.19991 115.05 8.21594 115.027C8.26459 114.957 8.32814 114.874 8.4402 114.875C8.55991 114.881 8.62261 114.983 8.66417 115.05C8.73836 115.171 8.77197 115.258 8.79424 115.315C8.80233 115.336 8.81155 115.36 8.81623 115.367C8.85481 115.426 9.16843 115.371 9.28659 115.351C9.55199 115.306 9.78164 115.266 9.87625 115.439C9.94405 115.562 9.8937 115.725 9.72207 115.937C9.66859 116.002 9.61171 116.052 9.56121 116.092C9.60306 116.117 9.6405 116.157 9.65568 116.219C9.69143 116.366 9.56901 116.513 9.29199 116.656C9.22319 116.692 9.13057 116.74 9.00078 116.764C8.93964 116.774 8.88461 116.777 8.83751 116.778C8.83652 116.806 8.83014 116.837 8.81354 116.868C8.76489 116.96 8.66361 117.004 8.51098 116.994C8.34304 116.985 8.20473 116.952 8.08275 116.923C7.97622 116.897 7.88444 116.876 7.81239 116.881C7.67877 116.892 7.57579 117.002 7.45493 117.145L7.15322 117.509Z" fill="#D3F279"/>
<path d="M7.7546 129.263L7.63147 129.184L7.48792 129.201C7.48565 129.187 7.47785 129.155 7.46608 129.106C7.40182 128.835 7.20593 128.011 7.04252 126.714C6.92848 125.808 6.86394 124.877 6.85061 123.945C6.83727 123.013 6.88011 122.307 6.91444 121.739C6.9404 121.311 6.97188 120.904 7.00281 120.507C7.08508 119.446 7.16267 118.444 7.10494 117.334C7.09217 117.087 7.06536 116.571 6.77316 116.023C6.60365 115.705 6.37017 115.422 6.0791 115.184L6.2601 114.949C6.58138 115.213 6.83969 115.526 7.02792 115.879C7.35189 116.487 7.38111 117.049 7.39516 117.319C7.45388 118.448 7.37544 119.459 7.29232 120.53C7.26168 120.926 7.23019 121.332 7.20438 121.758C7.17033 122.32 7.12792 123.02 7.14111 123.941C7.15416 124.861 7.21799 125.781 7.33048 126.675C7.4919 127.956 7.68495 128.768 7.74836 129.035C7.78212 129.177 7.78921 129.207 7.7546 129.263Z" fill="#D3F279"/>
<path d="M5.54605 115.659C5.53413 115.659 5.52207 115.659 5.50988 115.658C5.2625 115.644 5.03341 115.492 4.82887 115.205C4.73298 115.07 4.6839 114.916 4.58603 114.608C4.57085 114.561 4.49709 114.321 4.45227 113.99C4.4229 113.774 4.42659 113.683 4.46815 113.604C4.51425 113.515 4.58887 113.453 4.67284 113.411C4.66915 113.382 4.67213 113.353 4.68419 113.323C4.73369 113.198 4.86532 113.214 4.93653 113.222C4.97256 113.227 5.01752 113.233 5.06604 113.23C5.14235 113.226 5.18334 113.203 5.24547 113.168C5.30491 113.134 5.37881 113.093 5.48846 113.069C5.70463 113.023 5.88577 113.086 5.94549 113.107C6.25968 113.215 6.41458 113.466 6.59387 113.758C6.62961 113.816 6.75231 114.029 6.8333 114.321C6.89175 114.532 6.88352 114.625 6.86593 114.695C6.83018 114.838 6.74579 114.92 6.53145 115.1C6.30762 115.289 6.19528 115.384 6.09882 115.442C5.87428 115.575 5.73328 115.659 5.54605 115.659Z" fill="#D3F279"/>
<path d="M177.586 84.3382L177.719 73.6395L173.734 72.5098L173.855 84.3398L172.938 93.0817L172.962 93.0909C172.578 93.4892 172.266 94.125 172.133 94.8765C171.891 96.2479 172.335 97.4798 173.125 97.6281C173.915 97.7763 174.752 96.7848 174.994 95.4134C175.094 94.8505 175.076 94.3125 174.967 93.8619L175.003 93.8755L177.586 84.3382Z" fill="#A0616A"/>
<path d="M170.339 59.1887C170.339 59.1887 172.147 57.7634 173.424 59.8465C174.7 61.9295 178.211 72.4545 178.211 72.4545C178.211 72.4545 179.226 77.2784 178.984 77.9911C178.743 78.7037 178.423 84.9758 178.423 84.9758L173.436 84.0434L173.556 77.9911L168.804 70.1724L170.339 59.1887Z" fill="#D3F279"/>
<path d="M136.936 55.3025L143.925 63.2139L147.585 61.2357L139.661 52.6762L134.54 45.6434L134.517 45.6535C134.534 45.092 134.34 44.408 133.939 43.7655C133.208 42.5929 132.068 42.0052 131.392 42.4528C130.716 42.9003 130.762 44.2137 131.493 45.3862C131.793 45.8676 132.163 46.2481 132.54 46.5012L132.505 46.5162L136.936 55.3025Z" fill="#A0616A"/>
<path d="M159.289 68.58C159.289 68.58 158.912 70.8939 156.599 70.2699C154.287 69.646 144.75 64.4253 144.75 64.4253C144.75 64.4253 140.813 61.6147 140.517 60.924C140.222 60.2332 136.3 55.4257 136.3 55.4257L140.562 52.5977L144.483 57.105L153.135 59.4741L159.289 68.58Z" fill="#D3F279"/>
<path d="M160.614 53.1389C163.679 53.1389 166.165 50.5776 166.165 47.4181C166.165 44.2586 163.679 41.6973 160.614 41.6973C157.548 41.6973 155.063 44.2586 155.063 47.4181C155.063 50.5776 157.548 53.1389 160.614 53.1389Z" fill="#A0616A"/>
<path d="M170.352 147.637L166.906 147.637L165.268 133.941L170.352 133.942L170.352 147.637Z" fill="#A0616A"/>
<path d="M158.548 147.557C158.441 147.743 158.384 148.344 158.384 148.56C158.384 149.226 158.908 149.765 159.554 149.765H170.223C170.663 149.765 171.02 149.397 171.02 148.943V148.486C171.02 148.486 171.548 147.11 170.461 145.414C170.461 145.414 169.111 146.742 167.093 144.662L166.498 143.551L162.19 146.798L159.802 147.101C159.28 147.167 158.817 147.09 158.548 147.557Z" fill="#2F2E41"/>
<path d="M160.475 147.637L157.029 147.637L155.391 133.941L160.475 133.942L160.475 147.637Z" fill="#A0616A"/>
<path d="M148.671 147.557C148.564 147.743 148.507 148.344 148.507 148.56C148.507 149.226 149.031 149.765 149.677 149.765H160.346C160.786 149.765 161.143 149.397 161.143 148.943V148.486C161.143 148.486 161.671 147.11 160.585 145.414C160.585 145.414 159.234 146.742 157.216 144.662L156.621 143.551L152.313 146.798L149.925 147.101C149.403 147.167 148.94 147.09 148.671 147.557Z" fill="#2F2E41"/>
<path d="M172.795 88.2031L150.426 89.4007L155.365 141.496L160.303 141.197L162.046 109.76L162.773 98.5324L165.735 140.335L170.761 140.298L172.795 88.2031Z" fill="#2F2E41"/>
<path d="M166.169 54.6705L157.697 54.3711L152.024 60.1846V79.2294L149.809 91.1971C149.809 91.1971 164.708 89.7001 167.629 92.6941C170.551 95.6881 175.809 93.5923 175.809 93.5923L173.18 77.7584L172.011 59.4609L166.169 54.6705Z" fill="#D3F279"/>
<path d="M163.058 53.0235L158.336 51.8738L157.607 48.9231C157.607 48.9231 157.589 47.5322 156.952 47.3771C156.315 47.2219 155.191 46.255 155.191 46.255L156.28 44.4402C156.28 44.4402 153.656 44.148 154.444 43.6464C155.232 43.1449 155.346 43.3708 155.457 42.1599C155.689 39.6543 163.127 40.0201 163.705 41.3948C163.705 41.3948 164.661 41.6275 165.148 42.4393C165.634 43.2511 165.878 43.657 166.196 43.7346C166.515 43.8121 166.683 44.5464 166.683 44.5464C166.683 44.5464 167.807 45.5133 167.413 45.764C167.019 46.0148 166.718 47.3281 166.718 47.3281C166.718 47.3281 167.766 48.6234 165.421 51.5189L164.171 53.5907L163.058 53.0235Z" fill="#2F2E41"/>
<path d="M169.122 61.4367L169.453 59.1169C169.694 57.4263 168.606 55.9508 167.13 55.5877V54.6259C167.13 53.7991 166.48 53.1289 165.678 53.1289C164.876 53.1289 164.225 53.7991 164.225 54.6259V55.9088L158.706 57.1154V55.5241C158.706 54.6973 158.055 54.0271 157.253 54.0271C156.451 54.0271 155.801 54.6973 155.801 55.5241V57.0365L155.252 56.889C153.613 56.4484 152.319 58.3861 153.338 59.78C153.351 59.7981 153.365 59.8161 153.378 59.8341C154.739 61.637 155.127 63.2395 155.127 63.2395L154.156 68.6481L155.263 79.8928C155.405 81.342 156.615 82.428 158.028 82.3741L168.774 81.9639C170.186 81.91 171.316 80.7371 171.354 79.2821C171.491 74.0993 171.507 62.8193 169.122 61.4367Z" fill="#3F3D56"/>
<path d="M159.5 80.8655C159.35 80.8655 159.222 80.7457 159.211 80.5884L158.628 72.5757C158.616 72.4108 158.736 72.2671 158.896 72.2548C159.054 72.242 159.195 72.3661 159.207 72.531L159.79 80.5437C159.802 80.7086 159.682 80.8523 159.522 80.8646C159.515 80.8652 159.508 80.8655 159.5 80.8655Z" fill="#85CCA2"/>
<path d="M155.127 63.5397C154.985 63.5397 154.861 63.4325 154.84 63.2837C154.817 63.1201 154.927 62.9681 155.085 62.9441L169.125 60.8235C169.284 60.7998 169.431 60.9126 169.454 61.0762C169.478 61.2398 169.368 61.3918 169.209 61.4158L155.17 63.5365C155.155 63.5387 155.141 63.5397 155.127 63.5397Z" fill="#85CCA2"/>
<path d="M155.768 81.3455L150.281 67.6934L151.734 68.2922L157.577 80.3883L155.768 81.3455Z" fill="#3F3D56"/>
<path d="M190 149.748C190 149.886 189.891 149.999 189.756 149.999H20.6255V149.496H189.756C189.891 149.496 190 149.609 190 149.748Z" fill="#BAEB2F"/>
<path d="M130.051 43.0155C130.993 43.929 132.214 44.1684 132.778 43.5503C133.342 42.9323 133.035 41.691 132.092 40.7773C131.721 40.407 131.268 40.1338 130.773 39.9806L126.734 36.1621L125.036 38.1539L129.198 41.7068C129.377 42.207 129.669 42.6557 130.051 43.0155Z" fill="#FFB6B6"/>
<path d="M126.594 23.2318C126.594 23.2318 121.669 16.9088 119.779 17.3959C117.455 17.9947 118.036 20.3899 115.632 26.7959C115.03 28.4002 114.397 29.9551 115.612 31.1344L118.962 34.3861L126.104 40.5921L128.977 37.4924L123.269 29.9066L126.594 23.2318Z" fill="#D3F279"/>
</g>
<defs>
<clipPath id="clip0_20_31">
<rect width="190" height="150" fill="white"/>
</clipPath>
</defs>
</svg>
