<svg width="182" height="145" viewBox="0 0 182 145" fill="none" xmlns="http://www.w3.org/2000/svg">
<g clip-path="url(#clip0_20_186)">
<path d="M145.617 142.893L142.675 142.893L141.276 131.564L145.618 131.565L145.617 142.893Z" fill="#FFB6B6"/>
<path d="M135.538 142.827C135.446 142.981 135.398 143.478 135.398 143.657C135.398 144.208 135.845 144.654 136.396 144.654H145.507C145.883 144.654 146.188 144.35 146.188 143.974V143.596C146.188 143.596 146.639 142.457 145.711 141.055C145.711 141.055 144.558 142.153 142.835 140.433L142.326 139.514L138.648 142.199L136.609 142.45C136.163 142.505 135.767 142.441 135.538 142.827Z" fill="#2F2E41"/>
<path d="M132.242 142.893L129.3 142.893L127.9 131.564L132.242 131.565L132.242 142.893Z" fill="#FFB6B6"/>
<path d="M122.162 142.827C122.071 142.981 122.022 143.478 122.022 143.657C122.022 144.208 122.47 144.654 123.021 144.654H132.132C132.508 144.654 132.813 144.35 132.813 143.974V143.596C132.813 143.596 133.264 142.457 132.336 141.055C132.336 141.055 131.182 142.153 129.459 140.433L128.951 139.514L125.272 142.199L123.233 142.45C122.787 142.505 122.392 142.441 122.162 142.827Z" fill="#2F2E41"/>
<path d="M150.338 72.168L129.865 72.713L127.778 77.6181L125.225 109.502L127.408 137.57H133.783V111.079L138.6 94.7861L140.511 136.752L147.092 137.57L149.792 108.684L152.249 81.1607L150.338 72.168Z" fill="#2F2E41"/>
<path d="M143.064 35.6523L135.967 35.9249L135.148 39.1949C135.148 39.1949 126.413 41.6475 126.959 44.9176C127.505 48.1877 130.235 62.6306 130.235 62.6306C130.235 62.6306 127.232 71.8959 129.143 72.9859C131.054 74.076 150.744 72.9859 150.744 72.9859C150.744 72.9859 152.345 68.8983 151.527 68.3533C150.708 67.8083 153.983 41.6475 153.437 41.1025C152.891 40.5575 143.883 37.8324 143.883 37.8324L143.064 35.6523Z" fill="#D3F279"/>
<path d="M156.986 62.9037L157.532 66.7188L151.527 80.3442L148.524 78.7091L151.8 65.9012L152.346 60.9961L156.986 62.9037Z" fill="#FFB6B6"/>
<path d="M151.254 41.375C151.254 41.375 154.256 40.0124 156.44 44.9176C158.624 49.8227 158.078 60.4505 158.078 60.4505C158.078 60.4505 158.897 61.268 158.351 61.8131C157.805 62.3581 156.767 61.0756 157.805 62.8087C158.351 63.7206 159.989 63.4481 158.351 63.7206C156.713 63.9931 157.287 63.2315 157.805 64.2656C158.078 64.8107 159.17 64.8107 158.078 65.0832C156.986 65.3557 151.492 64.8879 151.492 64.8879C151.492 64.8879 149.616 63.9931 150.708 63.4481C151.8 62.9031 152.345 62.7958 151.8 62.5769C151.254 62.3581 149.889 62.3581 150.708 61.5406C151.527 60.723 152.072 60.723 151.527 60.723C150.981 60.723 150.366 59.4098 150.366 59.4098L151.254 41.375Z" fill="#D3F279"/>
<path d="M151.184 82.6296C151.85 80.642 151.43 78.7111 150.248 78.3169C149.066 77.9226 147.569 79.2143 146.904 81.2019C146.238 83.1895 146.658 85.1204 147.84 85.5146C149.022 85.9089 150.519 84.6172 151.184 82.6296Z" fill="#FFB6B6"/>
<path d="M118.959 61.611L116.788 64.7973L103.154 70.8262L102.039 67.5983L113.104 60.3374L116.818 57.0801L118.959 61.611Z" fill="#FFB6B6"/>
<path d="M129.254 41.8477C129.254 41.8477 132.392 42.8605 130.695 47.954C128.998 53.0474 121.422 60.5335 121.422 60.5335C121.422 60.5335 121.475 61.6884 120.704 61.7239C119.933 61.7594 120.032 60.1139 119.629 62.0924C119.417 63.1335 120.811 64.0338 119.417 63.1335C118.022 62.2332 118.961 62.0565 118.645 63.169C118.479 63.7553 119.286 64.4898 118.295 63.9567C117.305 63.4236 113.561 59.3825 113.561 59.3825C113.561 59.3825 112.778 57.4594 113.953 57.7911C115.127 58.1228 115.603 58.4107 115.347 57.8818C115.092 57.3528 114.083 56.4348 115.24 56.3815C116.397 56.3282 116.8 56.6955 116.397 56.3282C115.994 55.961 116.426 54.5774 116.426 54.5774L129.254 41.8477Z" fill="#D3F279"/>
<path d="M101.358 72.2864C103.191 71.2651 104.185 69.5563 103.577 68.4699C102.97 67.3834 100.992 67.3306 99.1587 68.3519C97.3258 69.3732 96.3323 71.0819 96.9397 72.1684C97.5472 73.2549 99.5255 73.3077 101.358 72.2864Z" fill="#FFB6B6"/>
<path d="M139.826 34.3193C143.446 34.3193 146.381 31.3893 146.381 27.7749C146.381 24.1605 143.446 21.2305 139.826 21.2305C136.205 21.2305 133.27 24.1605 133.27 27.7749C133.27 31.3893 136.205 34.3193 139.826 34.3193Z" fill="#FFB6B6"/>
<path d="M134.589 22.5116C134.923 21.5672 135.848 20.9942 136.851 21.0165C136.894 21.0175 136.936 21.0171 136.978 21.0154C137.483 20.9947 137.968 20.8225 138.463 20.7215C139.386 20.5332 140.359 20.5962 141.25 20.902C141.527 20.9971 141.804 21.1166 142.097 21.1166C142.39 21.1167 142.709 20.9564 142.78 20.6729C142.797 20.9296 142.814 21.1862 142.831 21.4429C142.927 21.2351 143.022 21.0274 143.117 20.8197L143.308 21.6481L143.919 20.9557C143.865 21.2609 144.043 21.5685 144.284 21.7636C144.525 21.9587 144.824 22.0666 145.109 22.1882C146.342 22.7129 147.5 23.6418 147.855 24.9321C148.08 25.7472 147.962 26.6123 147.843 27.4493C147.738 28.1893 147.624 28.9548 147.221 29.5847C146.963 29.9885 146.59 30.3282 146.433 30.7809C146.287 31.2028 146.342 31.6858 146.134 32.0809C145.924 32.4778 145.492 32.7023 145.069 32.853C144.646 33.0039 144.196 33.1105 143.831 33.3729C143.467 33.6354 143.044 34.3913 142.25 34.3506L141.994 33.87C141.73 33.6556 142.706 33.8256 142.716 33.4863C142.726 33.147 141.542 32.9374 141.71 32.6422C141.967 32.1894 142.315 31.7954 142.605 31.3628C142.945 30.8568 143.211 30.2656 143.094 29.6481C143.049 29.4079 142.936 29.181 142.765 29.0065C142.27 28.5034 141.719 28.7245 141.183 28.7965C140.813 28.8461 140.372 28.7888 140.18 28.4698C139.956 28.0966 140.206 27.6218 140.176 27.1876C140.143 26.7275 139.794 26.3502 139.414 26.0879C139.034 25.8256 138.603 25.6345 138.261 25.3243C137.919 25.014 137.973 25.1749 138.122 24.7384C135.58 26.6414 135.956 23.3556 134.25 23.7663C134.331 23.3403 134.445 22.9206 134.589 22.5116Z" fill="#2F2E41"/>
<path d="M103.413 139.529C102.746 139.877 102.077 140.349 101.571 141.183C101.476 141.34 101.391 141.511 101.311 141.688C101.535 140.093 101.983 138.593 102.629 137.342C102.867 136.881 102.467 136.205 102.227 136.67C101.204 137.2 100.773 138.441 100.608 139.91C100.405 139.384 100.155 138.909 99.8631 138.514C99.744 138.353 99.578 138.319 99.4615 138.514C99.3619 138.681 99.3416 139.025 99.4615 139.187C99.0214 141.496 100.158 142.211 100.55 143.36C100.559 143.615 100.568 143.867 100.577 144.112C100.586 144.356 100.678 144.501 100.786 144.551C100.838 144.687 100.933 144.78 101.029 144.78C101.19 144.78 101.304 144.562 101.313 144.305C101.344 143.36 101.441 141.719 102.003 141.806C103.2 141.991 103.256 141.025 103.564 140.446C103.807 139.992 103.764 139.346 103.413 139.529Z" fill="#BAEB2F"/>
<path d="M163.616 139.529C164.284 139.877 164.953 140.349 165.459 141.183C165.554 141.34 165.639 141.511 165.719 141.688C165.494 140.093 165.047 138.593 164.401 137.342C164.163 136.881 164.563 136.205 164.803 136.67C165.826 137.2 166.257 138.441 166.422 139.91C166.625 139.384 166.875 138.909 167.167 138.514C167.286 138.353 167.452 138.319 167.568 138.514C167.668 138.681 167.688 139.025 167.568 139.187C168.009 141.496 166.872 142.211 166.48 143.36C166.471 143.615 166.462 143.867 166.453 144.112C166.444 144.356 166.352 144.501 166.244 144.551C166.192 144.687 166.097 144.78 166.001 144.78C165.84 144.78 165.726 144.562 165.717 144.305C165.686 143.36 165.589 141.719 165.027 141.806C163.83 141.991 163.774 141.025 163.465 140.446C163.223 139.992 163.266 139.346 163.616 139.529Z" fill="#BAEB2F"/>
<path d="M53.1172 144.624C53.1172 144.833 53.2856 145.001 53.4953 145.001H181.622C181.831 145.001 182 144.833 182 144.624C182 144.414 181.831 144.246 181.622 144.246H53.4953C53.2856 144.246 53.1172 144.414 53.1172 144.624Z" fill="#D3F279"/>
<path d="M69.232 145H13.1813C6.34688 145 0.786621 139.449 0.786621 132.626V12.3736C0.786618 5.55083 6.34687 0 13.1813 0H69.232C76.0662 0 81.6265 5.55083 81.6265 12.3736V132.626C81.6265 139.449 76.0662 145 69.232 145Z" fill="#3F3D56"/>
<path d="M81.6264 44.2324C81.3372 44.2324 81.1021 44.4672 81.1021 44.7559V61.5068C81.1021 61.7955 81.3372 62.0302 81.6264 62.0302C81.9156 62.0302 82.1508 61.7955 82.1508 61.5068V44.7559C82.1508 44.4672 81.9156 44.2324 81.6264 44.2324Z" fill="#3F3D56"/>
<path d="M80.4466 12.3746V132.625C80.4466 138.564 75.8166 143.422 69.9621 143.798H69.9595C69.873 143.804 69.7865 143.809 69.6973 143.812C69.5426 143.819 69.388 143.822 69.2307 143.822C69.2307 143.822 68.6539 143.78 67.5999 143.702C66.5355 143.623 64.986 143.505 63.0538 143.351C62.4744 143.306 61.8635 143.257 61.2185 143.204C59.9339 143.1 58.5233 142.984 57.0106 142.854C56.4076 142.804 55.7836 142.749 55.1465 142.694C51.8903 142.414 48.2434 142.087 44.3972 141.715C43.747 141.655 43.0916 141.592 42.4309 141.527C42.2579 141.508 42.0822 141.493 41.9066 141.474C39.1642 141.205 1.96631 134.028 1.96631 132.625V12.3746C1.96631 6.18992 6.98701 1.17773 13.1823 1.17773H19.8782C20.9479 1.17773 21.8079 2.01004 21.8996 3.0753C21.9075 3.14597 21.9154 3.21663 21.9285 3.2873C22.1225 4.35779 23.1057 5.10373 24.1963 5.10373H58.2166C59.3072 5.10373 60.2904 4.35779 60.4844 3.2873C60.4975 3.21663 60.5054 3.14597 60.5133 3.0753C60.605 2.01004 61.465 1.17773 62.5346 1.17773H69.2307C75.4259 1.17773 80.4466 6.18992 80.4466 12.3746Z" fill="#ACE6C3"/>
<path d="M0.524353 31.6699C0.235164 31.6699 0 31.9047 0 32.1934V36.3811C0 36.6698 0.235167 36.9046 0.524353 36.9046C0.813539 36.9046 1.04871 36.6698 1.04871 36.3811V32.1934C1.04871 31.9047 0.813539 31.6699 0.524353 31.6699Z" fill="#3F3D56"/>
<path d="M0.524353 44.2324C0.235164 44.2324 0 44.4672 0 44.7559V52.8696C0 53.1583 0.235167 53.3931 0.524353 53.3931C0.813539 53.3931 1.04871 53.1583 1.04871 52.8696V44.7559C1.04871 44.4672 0.813539 44.2324 0.524353 44.2324Z" fill="#3F3D56"/>
<path d="M0.524353 55.75C0.235164 55.75 0 55.9848 0 56.2735V64.3872C0 64.6759 0.235167 64.9106 0.524353 64.9106C0.813539 64.9106 1.04871 64.6759 1.04871 64.3872V56.2735C1.04871 55.9848 0.813539 55.75 0.524353 55.75Z" fill="#3F3D56"/>
<path d="M19.6957 3.00977H9.66789C9.61346 3.00977 9.56934 3.05382 9.56934 3.10815V4.22004C9.56934 4.27438 9.61346 4.31843 9.66789 4.31843H19.6957C19.7501 4.31843 19.7942 4.27438 19.7942 4.22004V3.10815C19.7942 3.05382 19.7501 3.00977 19.6957 3.00977Z" fill="#ACE6C3"/>
<path d="M64.1918 4.31847C64.771 4.31847 65.2405 3.84974 65.2405 3.27154C65.2405 2.69334 64.771 2.22461 64.1918 2.22461C63.6126 2.22461 63.1431 2.69334 63.1431 3.27154C63.1431 3.84974 63.6126 4.31847 64.1918 4.31847Z" fill="#ACE6C3"/>
<path d="M67.0756 4.31847C67.6547 4.31847 68.1243 3.84974 68.1243 3.27154C68.1243 2.69334 67.6547 2.22461 67.0756 2.22461C66.4964 2.22461 66.0269 2.69334 66.0269 3.27154C66.0269 3.84974 66.4964 4.31847 67.0756 4.31847Z" fill="#ACE6C3"/>
<path d="M69.9594 4.31847C70.5385 4.31847 71.0081 3.84974 71.0081 3.27154C71.0081 2.69334 70.5385 2.22461 69.9594 2.22461C69.3802 2.22461 68.9106 2.69334 68.9106 3.27154C68.9106 3.84974 69.3802 4.31847 69.9594 4.31847Z" fill="#ACE6C3"/>
<path d="M77.6115 138.15L80.0314 137.542L78.3788 126.389L74.8076 127.286L77.6115 138.15Z" fill="#FFB6B6"/>
<path d="M87.2497 140.875C87.3622 141.281 87.1652 141.689 86.8097 141.788L82.0376 143.108C82.0376 143.108 81.045 141.353 78.9052 141.072L79.5212 143.804L77.0594 144.485L76.1547 140.068C76.1547 140.068 74.8526 137.931 75.8913 136.367C76.9299 134.804 75.868 135.275 75.868 135.275L75.6614 132.444L79.5026 131.852L80.6987 136.055L83.6641 139.736L86.6744 140.309C86.9424 140.36 87.1684 140.583 87.2497 140.875Z" fill="#2F2E41"/>
<path d="M54.4346 136.212L56.7676 137.096L61.8081 127.006L58.3652 125.701L54.4346 136.212Z" fill="#FFB6B6"/>
<path d="M60.7742 143.954C60.634 144.351 60.2383 144.573 59.8903 144.45L55.2206 142.805C55.2206 142.805 55.4128 140.8 53.8196 139.346L52.7581 141.938L50.3491 141.09L52.1399 136.951C52.1399 136.951 52.2975 134.455 54.0457 133.766C55.794 133.078 54.6529 132.858 54.6529 132.858L56.1071 130.418L59.5963 132.127L58.1667 136.258L58.4878 140.97L60.6273 143.161C60.8177 143.355 60.8755 143.667 60.7742 143.954Z" fill="#2F2E41"/>
<path d="M64.5641 36.462H52.1825C52.2007 35.882 52.0766 35.302 51.8225 34.7825C51.8164 35.3594 51.6863 35.9364 51.4473 36.462H50.8845C50.0251 36.462 49.3262 35.7642 49.3262 34.9063V26.8744C49.3262 22.9414 52.4216 19.7003 56.3551 19.513C56.4731 19.5069 56.5881 19.5039 56.7061 19.5039C59.9104 19.5039 62.7728 21.5791 63.7471 24.6541C65.1784 23.9956 66.0347 27.7383 66.6035 33.683C67.0362 35.0604 66.0074 36.462 64.5641 36.462Z" fill="#2F2E41"/>
<path d="M88.8607 82.3817C89.4744 83.8343 89.2213 85.328 88.2953 85.7179C87.3694 86.1078 86.1212 85.2463 85.5074 83.7937C85.2387 83.1578 85.1362 82.5141 85.1835 81.9585L82.6602 75.7707L85.5941 74.6504L87.7702 80.8693C88.2017 81.2232 88.592 81.7458 88.8607 82.3817Z" fill="#FFB6B6"/>
<path d="M61.7318 33.7422L55.8135 34.9781L56.7212 37.6967L54.9058 58.4894L57.9316 65.1848L76.389 63.6745L71.8503 54.6125C71.8503 54.6125 73.6657 47.0608 71.2451 45.5505C68.8245 44.0401 64.8909 36.4884 64.8909 36.4884L61.7318 33.7422Z" fill="#D3F279"/>
<path d="M56.2153 36.1816L50.9726 38.3021L52.788 64.884L48.8545 87.8411L61.5629 89.9556C61.5629 89.9556 60.05 39.2083 59.1422 38.3021C58.2345 37.3959 56.2153 36.1816 56.2153 36.1816Z" fill="#2F2E41"/>
<path d="M66.4834 39.4973C66.4834 39.4973 69.8948 37.3425 71.738 38.938C73.5811 40.5334 87.7715 79.0994 87.7715 79.0994L83.9439 80.7597L75.166 62.3859L66.4834 39.4973Z" fill="#2F2E41"/>
<path d="M76.2561 104.476L79.7176 131.037L74.8763 131.339C74.8763 131.339 72.3588 124.482 69.4873 116.405C68.8761 114.692 68.2498 112.925 67.6295 111.155C66.9578 109.233 66.2891 107.312 65.6537 105.458C64.0833 100.884 62.7065 96.7218 61.9198 94.0032C61.7836 93.526 61.6626 93.094 61.5628 92.7134C59.4447 84.5938 58.2344 63.3736 58.2344 63.3736L75.784 61.8633L75.9716 62.0959L79.7176 66.7689L79.5421 67.7566L74.8763 93.8824L76.2561 104.476Z" fill="#2F2E41"/>
<path d="M74.876 93.8818L76.2558 104.475L70.0499 115.383L69.4871 116.404L60.9422 131.906L56.7212 129.517C56.7212 129.517 62.213 116.917 65.6534 105.457C66.0346 104.197 66.3886 102.95 66.7063 101.736C67.6413 98.1802 66.1103 91.6918 66.7094 89.9036C68.7336 83.8683 75.3299 71.7947 78.392 66.3242L79.5418 67.756L74.876 93.8818Z" fill="#2F2E41"/>
<path d="M64.8145 36.2598L70.9428 38.604L86.9795 85.4244L77.297 86.9348L72.7583 59.7487L64.8145 36.2598Z" fill="#2F2E41"/>
<path d="M49.4923 86.7982C49.3363 88.3671 48.3992 89.5585 47.3991 89.4594C46.3991 89.3603 45.7148 88.0082 45.8708 86.4393C45.9391 85.7526 46.1571 85.1382 46.4645 84.6727L47.2089 78.0332L50.3225 78.4483L49.2581 84.9495C49.4679 85.4663 49.5606 86.1114 49.4923 86.7982Z" fill="#FFB6B6"/>
<path d="M53.0902 38.3005C53.0902 38.3005 49.1567 37.3943 47.9463 39.5087C46.736 41.6232 46.1309 82.7043 46.1309 82.7043L50.2931 83.0064L52.485 62.7679L53.0902 38.3005Z" fill="#2F2E41"/>
<path d="M58.1107 33.0096C61.5845 33.0096 64.4005 30.1983 64.4005 26.7304C64.4005 23.2625 61.5845 20.4512 58.1107 20.4512C54.6369 20.4512 51.8208 23.2625 51.8208 26.7304C51.8208 30.1983 54.6369 33.0096 58.1107 33.0096Z" fill="#FFB6B6"/>
<path d="M66.0063 26.1908C66.0063 26.1908 62.9422 25.2846 61.1077 26.1908C58.5582 27.4501 52.0493 26.1908 52.0493 26.1908V23.3522C52.0493 21.6951 53.2854 20.2972 54.9325 20.0917L59.6296 19.5056C63.3166 19.0455 66.5732 21.9155 66.5732 25.6248C66.5732 25.9374 66.3194 26.1908 66.0063 26.1908Z" fill="#2F2E41"/>
<path d="M59.3113 36.4603H52.1825C52.2006 35.8803 52.0766 35.3003 51.8224 34.7808C51.8163 35.3577 51.6862 35.9347 51.4472 36.4603H51.1416V23.7734H56.588L59.3113 36.4603Z" fill="#2F2E41"/>
</g>
<defs>
<clipPath id="clip0_20_186">
<rect width="182" height="145" fill="white"/>
</clipPath>
</defs>
</svg>
