<svg width="48" height="48" viewBox="0 0 48 48" fill="none" xmlns="http://www.w3.org/2000/svg">
<path d="M24 41.9508L21.95 40.1008C18.4244 36.8634 15.5097 34.0707 13.2058 31.7227C10.9019 29.3748 9.06667 27.2758 7.7 25.4258C6.33333 23.5758 5.375 21.9008 4.825 20.4008C4.275 18.9008 4 17.3841 4 15.8508C4 12.8456 5.00833 10.336 7.025 8.32193C9.04167 6.30783 11.5333 5.30078 14.5 5.30078C16.4 5.30078 18.1583 5.75078 19.775 6.65078C21.3917 7.55078 22.8 8.85078 24 10.5508C25.4 8.75078 26.8833 7.42578 28.45 6.57578C30.0167 5.72578 31.7 5.30078 33.5 5.30078C36.4667 5.30078 38.9583 6.30783 40.975 8.32193C42.9917 10.336 44 12.8456 44 15.8508C44 17.3841 43.725 18.9008 43.175 20.4008C42.625 21.9008 41.6667 23.5758 40.3 25.4258C38.9333 27.2758 37.0981 29.3748 34.7942 31.7227C32.4903 34.0707 29.5756 36.8634 26.05 40.1008L24 41.9508ZM24 38.0008C27.3745 34.9009 30.1515 32.2426 32.3309 30.0259C34.5103 27.8091 36.2417 25.8674 37.525 24.2008C38.8083 22.5341 39.7083 21.0485 40.225 19.744C40.7417 18.4395 41 17.1442 41 15.858C41 13.6532 40.3 11.8424 38.9 10.4258C37.5 9.00911 35.7037 8.30078 33.5112 8.30078C31.7938 8.30078 30.2042 8.82578 28.7425 9.87578C27.2808 10.9258 26.1 12.4008 25.2 14.3008H22.75C21.8833 12.4341 20.7192 10.9674 19.2575 9.90078C17.7958 8.83411 16.2062 8.30078 14.4887 8.30078C12.2962 8.30078 10.5 9.00911 9.1 10.4258C7.7 11.8424 7 13.656 7 15.8666C7 17.156 7.25833 18.4591 7.775 19.7758C8.29167 21.0924 9.19167 22.5924 10.475 24.2758C11.7583 25.9591 13.5 27.9008 15.7 30.1008C17.9 32.3008 20.6667 34.9341 24 38.0008Z" fill="#5B7A97"/>
</svg>
