<svg width="48" height="48" viewBox="0 0 48 48" fill="none" xmlns="http://www.w3.org/2000/svg">
<g clip-path="url(#clip0_20_6)">
<path d="M1.5 36C1.075 36 0.71875 35.8563 0.43125 35.5688C0.14375 35.2813 0 34.925 0 34.5V33.35C0 32.0345 0.6875 30.9807 2.0625 30.1884C3.4375 29.3961 5.25 29 7.5 29C7.9 29 8.29167 29.0125 8.675 29.0375C9.05833 29.0625 9.43333 29.1 9.8 29.15C9.53333 29.7167 9.33333 30.2981 9.2 30.8944C9.06667 31.4907 9 32.1259 9 32.8V36H1.5ZM13.5 36C13.075 36 12.7188 35.8563 12.4313 35.5688C12.1438 35.2813 12 34.925 12 34.5V32.8C12 30.6333 13.1083 28.875 15.325 27.525C17.5417 26.175 20.4333 25.5 24 25.5C27.6 25.5 30.5 26.175 32.7 27.525C34.9 28.875 36 30.6333 36 32.8V34.5C36 34.925 35.8563 35.2813 35.5688 35.5688C35.2813 35.8563 34.925 36 34.5 36H13.5ZM39 36V32.8C39 32.1259 38.9333 31.4907 38.8 30.8944C38.6667 30.2981 38.4667 29.7121 38.2 29.1363C38.5667 29.0788 38.9417 29.0417 39.325 29.025C39.7083 29.0083 40.1014 29 40.5041 29C42.7347 29 44.5417 29.3961 45.925 30.1884C47.3083 30.9807 48 32.0345 48 33.35V34.5C48 34.925 47.8563 35.2813 47.5688 35.5688C47.2813 35.8563 46.925 36 46.5 36H39ZM24 28.5C21.3 28.5 19.125 28.9083 17.475 29.725C15.825 30.5417 15 31.5667 15 32.8V33H33V32.75C33 31.55 32.175 30.5417 30.525 29.725C28.875 28.9083 26.7 28.5 24 28.5ZM7.49555 27.5C6.53185 27.5 5.70833 27.1569 5.025 26.4706C4.34167 25.7843 4 24.9593 4 23.9956C4 23.0319 4.34315 22.2083 5.02945 21.525C5.71572 20.8417 6.54072 20.5 7.50445 20.5C8.46815 20.5 9.29167 20.8431 9.975 21.5294C10.6583 22.2157 11 23.0407 11 24.0044C11 24.9681 10.6568 25.7917 9.97055 26.475C9.28428 27.1583 8.45928 27.5 7.49555 27.5ZM40.4956 27.5C39.5319 27.5 38.7083 27.1569 38.025 26.4706C37.3417 25.7843 37 24.9593 37 23.9956C37 23.0319 37.3432 22.2083 38.0295 21.525C38.7157 20.8417 39.5407 20.5 40.5045 20.5C41.4682 20.5 42.2917 20.8431 42.975 21.5294C43.6583 22.2157 44 23.0407 44 24.0044C44 24.9681 43.6569 25.7917 42.9706 26.475C42.2843 27.1583 41.4593 27.5 40.4956 27.5ZM24 24C22.3333 24 20.9167 23.4167 19.75 22.25C18.5833 21.0833 18 19.6667 18 18C18 16.3333 18.5833 14.9167 19.75 13.75C20.9167 12.5833 22.3333 12 24 12C25.6667 12 27.0833 12.5833 28.25 13.75C29.4167 14.9167 30 16.3333 30 18C30 19.6667 29.4167 21.0833 28.25 22.25C27.0833 23.4167 25.6667 24 24 24ZM24 15C23.15 15 22.4375 15.2875 21.8625 15.8625C21.2875 16.4375 21 17.15 21 18C21 18.85 21.2875 19.5625 21.8625 20.1375C22.4375 20.7125 23.15 21 24 21C24.85 21 25.5625 20.7125 26.1375 20.1375C26.7125 19.5625 27 18.85 27 18C27 17.15 26.7125 16.4375 26.1375 15.8625C25.5625 15.2875 24.85 15 24 15Z" fill="#5B7A97"/>
</g>
<defs>
<clipPath id="clip0_20_6">
<rect width="48" height="48" fill="white"/>
</clipPath>
</defs>
</svg>
