<svg width="48" height="48" viewBox="0 0 48 48" fill="none" xmlns="http://www.w3.org/2000/svg">
<path d="M13.6002 42.0004V16.4004L24.8502 4.50039C25.3035 4.03372 25.84 3.75872 26.4595 3.67539C27.0791 3.59206 27.676 3.71706 28.2502 4.05039C28.8169 4.38372 29.2419 4.84206 29.5252 5.42539C29.8085 6.00872 29.8785 6.61706 29.7352 7.25039L27.8002 16.4004H42.7502C43.5502 16.4004 44.2502 16.7004 44.8502 17.3004C45.4502 17.9004 45.7502 18.6004 45.7502 19.4004V23.4923C45.7502 23.731 45.7752 23.9754 45.8252 24.2254C45.8752 24.4754 45.8502 24.7171 45.7502 24.9504L39.4502 39.4504C39.1543 40.1587 38.661 40.7608 37.9704 41.2566C37.2799 41.7525 36.5565 42.0004 35.8002 42.0004H13.6002ZM16.6002 17.6504V39.0004H36.4502L42.7502 24.0504V19.4004H24.1002L26.7502 6.95039L16.6002 17.6504ZM6.9502 42.0004C6.1252 42.0004 5.41895 41.7066 4.83145 41.1191C4.24395 40.5316 3.9502 39.8254 3.9502 39.0004V19.4004C3.9502 18.5754 4.24395 17.8691 4.83145 17.2816C5.41895 16.6941 6.1252 16.4004 6.9502 16.4004H13.6002V19.4004H6.9502V39.0004H13.6002V42.0004H6.9502Z" fill="#466A8C"/>
</svg>
