<svg width="429" height="342" viewBox="0 0 429 342" fill="none" xmlns="http://www.w3.org/2000/svg">
<g clip-path="url(#clip0_20_10)">
<path d="M286.644 74.9117C286.581 74.9225 286.487 74.9384 286.373 74.9573C284.141 75.3269 270.644 77.41 257.036 72.2247C251.271 70.028 253.238 69.4806 240.399 61.8435C225.347 52.8899 221.484 52.9524 220.363 48.7775C218.125 40.4409 230.076 27.3355 237.987 28.1984C240.069 28.4256 242.3 29.6676 245.769 28.8254C246.531 28.6404 249.867 27.8304 251.494 25.0677C252.945 22.6032 251.716 20.8254 252.3 18.8041C253.831 13.4986 266.599 10.8508 277.794 12.7216C284.232 13.7976 289.24 16.7352 298.993 22.5664C315.968 32.7157 324.455 37.7904 326.363 45.5654C328.171 52.9346 323.831 56.11 326.987 63.9985C329.926 71.3437 334.594 70.8531 336.2 76.7951C338.784 86.3569 329.191 96.851 325.195 101.222C320.814 106.015 316.624 108.646 311.061 112.138C304.079 116.521 300.588 118.713 296.39 118.49C288.78 118.086 266.168 119.462 265.873 113.162C265.762 110.801 238.337 112.734 251.841 87.3174C253.497 84.1998 285.946 87.5298 286.375 85.7389" fill="#2F2E41"/>
<path d="M299.778 91.1758L323.102 125.979L256.149 139.523L260.413 95.9511L299.778 91.1758Z" fill="#FFB6B6"/>
<path opacity="0.1" d="M299.778 91.1758L323.102 125.979L256.149 139.523L260.413 95.9511L299.778 91.1758Z" fill="black"/>
<path d="M251.134 116.949L323.347 113.939L355.441 131.497L353.937 244.367L387.536 308.077L218.036 275.971L231.075 227.813L225.057 126.481L251.134 116.949Z" fill="#1F4366"/>
<path d="M1.94477 336.221C-0.360676 332.586 -0.632944 328.094 1.2166 324.206L28.7011 266.439C30.7523 262.127 35.162 259.342 39.935 259.342H387.086C391.726 259.342 395.948 261.895 398.103 266.006L427.562 322.181C429.599 326.065 429.465 330.625 427.204 334.382C424.944 338.138 420.977 340.391 416.594 340.409L12.4994 342H12.4488C8.16504 342 4.24087 339.842 1.94477 336.221Z" fill="white"/>
<path d="M1.94477 336.221C-0.360676 332.586 -0.632944 328.094 1.2166 324.206L28.7011 266.439C30.7523 262.127 35.162 259.342 39.935 259.342H387.086C391.726 259.342 395.948 261.895 398.103 266.006L427.562 322.181C429.599 326.065 429.465 330.625 427.204 334.382C424.944 338.138 420.977 340.391 416.594 340.409L12.4994 342H12.4488C8.16504 342 4.24087 339.842 1.94477 336.221ZM39.935 260.648C35.6629 260.648 31.7162 263.142 29.8803 267L2.39579 324.768C0.740295 328.247 0.983868 332.267 3.04744 335.522C5.10273 338.763 8.61457 340.694 12.449 340.694H12.4943L416.589 339.102C420.512 339.087 424.062 337.07 426.085 333.708C428.109 330.346 428.229 326.264 426.406 322.789L396.947 266.612C395.017 262.934 391.239 260.648 387.086 260.648H39.935Z" fill="#3F3D56"/>
<path d="M354.765 319.916L211.506 310.063C209.39 309.918 207.704 308.491 207.208 306.429C206.713 304.367 207.567 302.33 209.385 301.239L241.064 282.225C241.868 281.742 242.791 281.507 243.726 281.552L367.645 287.187C369.283 287.261 370.746 288.156 371.559 289.581C372.372 291.006 372.398 292.721 371.628 294.17L359.291 317.402C358.463 318.961 356.839 319.927 355.091 319.927C354.983 319.927 354.874 319.923 354.765 319.916Z" fill="#3F3D56"/>
<path d="M210.264 304.316L352.934 314.098L364.218 289.768L241.884 284.969L210.264 304.316Z" fill="white"/>
<path d="M280.471 102.9C304.148 102.9 323.343 83.6994 323.343 60.0137C323.343 36.328 304.148 17.127 280.471 17.127C256.793 17.127 237.598 36.328 237.598 60.0137C237.598 83.6994 256.793 102.9 280.471 102.9Z" fill="#FFB6B6"/>
<path d="M294.279 62.7887C294.216 62.7994 294.122 62.8154 294.008 62.8342C291.776 63.2039 278.279 65.287 264.671 60.1017C258.906 57.905 260.873 57.3575 248.034 49.7204C232.982 40.7668 229.119 40.8294 227.998 36.6545C225.76 28.3178 237.711 15.2125 245.622 16.0753C247.704 16.3025 249.935 17.5446 253.404 16.7024C254.166 16.5174 257.503 15.7074 259.129 12.9447C260.58 10.4802 259.351 8.70234 259.935 6.68108C261.466 1.37554 274.235 -1.2722 285.429 0.598571C291.867 1.67458 296.875 4.61213 306.628 10.4433C323.603 20.5927 332.09 25.6674 333.998 33.4423C335.806 40.8116 331.467 43.9869 334.623 51.8755C337.561 59.2207 342.229 58.7301 343.835 64.6721C346.42 74.2338 336.827 84.7279 332.83 89.0994C328.449 93.8923 324.259 96.5228 318.696 100.015C311.714 104.398 308.223 106.59 304.026 106.367C296.416 105.963 288.847 99.0638 288.552 92.7643C288.441 90.4035 289.426 89.6955 291.862 81.5795C292.878 78.1982 293.582 75.4068 294.01 73.6159" fill="#2F2E41"/>
<path d="M323.664 292.566C326.422 292.675 328.521 295.147 328.674 297.826C328.832 300.606 326.899 303.167 324.578 304.49C321.858 306.041 318.464 306.29 315.402 306.023C312.648 305.783 309.651 304.926 307.879 302.651C306.387 300.736 305.839 297.844 307.107 295.671C308.365 293.517 311.039 292.922 313.276 293.786C315.644 294.701 317.132 296.855 317.147 299.4C317.164 302.222 315.535 304.829 313.249 306.389C310.784 308.071 307.681 308.612 304.746 308.606C301.549 308.598 298.365 307.927 295.423 306.68C292.668 305.512 289.914 303.828 287.944 301.54C286.096 299.394 284.99 296.417 286.016 293.635C286.857 291.352 288.982 289.953 291.415 290.147C293.643 290.324 295.897 291.617 296.885 293.676C298.001 296 297.5 298.787 296.08 300.864C294.441 303.263 291.849 304.611 288.971 304.805C285.909 305.013 282.876 303.924 280.356 302.241C278.023 300.682 275.973 298.688 273.468 297.391C272.263 296.767 270.951 296.371 269.586 296.372C267.848 296.374 266.178 296.945 264.488 297.277C263.055 297.557 261.579 297.721 260.165 297.263C258.956 296.871 257.824 296.153 257.062 295.123C256.341 294.149 256.088 292.928 256.496 291.772C256.817 290.865 258.271 291.255 257.947 292.172C257.201 294.287 259.762 295.841 261.554 296.035C262.915 296.182 264.318 295.789 265.63 295.482C266.998 295.162 268.396 294.835 269.81 294.87C274.819 294.993 278.131 299.276 282.17 301.6C286.416 304.044 292.634 304.214 295.235 299.359C296.179 297.595 296.374 295.251 295.077 293.604C293.996 292.231 292.076 291.41 290.335 291.676C288.15 292.01 287.061 294.092 287.141 296.162C287.238 298.696 289.003 300.754 290.886 302.272C295.076 305.649 300.634 307.37 305.994 307.068C308.509 306.926 311.181 306.271 313.135 304.596C314.823 303.149 315.975 300.796 315.57 298.541C315.219 296.59 313.583 295.11 311.606 294.914C309.585 294.713 308.005 296.149 307.914 298.169C307.813 300.442 309.163 302.338 311.118 303.373C313.334 304.545 316.019 304.691 318.474 304.563C321.08 304.427 323.797 303.74 325.621 301.755C327.177 300.061 327.767 297.548 326.333 295.588C325.7 294.723 324.748 294.114 323.664 294.071C322.699 294.033 322.694 292.528 323.664 292.566Z" fill="#6C63FF"/>
<path d="M255.098 290.952L255.865 286.208L298.428 204.831C299.132 203.483 300.803 202.96 302.15 203.666C303.498 204.371 304.02 206.041 303.315 207.389L260.772 288.73L257.293 292.101C256.882 292.498 256.289 292.583 255.782 292.318C255.276 292.053 255.007 291.517 255.098 290.952Z" fill="#3F3D56"/>
<path d="M284.11 239.179C288.912 240.084 293.428 242.125 297.279 245.133L297.496 245.18L297.54 244.964L343.927 252.232L340.567 190.512L375.723 171.25L367.413 275.579C365.613 282.242 358.701 286.133 352.074 284.214L293.024 267.223L293.172 266.497L292.965 266.441C288.246 267.714 283.291 267.838 278.514 266.802C266.53 264.376 258.067 256.224 259.612 248.596C261.157 240.967 272.122 236.751 284.11 239.179Z" fill="#FFB6B6"/>
<path d="M315.825 142.534L355.442 131.498C355.442 131.498 376.253 146.798 378.76 163.353C379.058 165.321 379.886 257.033 379.011 259.418C372.531 277.085 336.887 248.883 336.887 248.883L315.825 142.534Z" fill="#1F4366"/>
<path d="M143.986 307.369L139.879 303.847C139.267 303.323 138.524 302.975 137.729 302.843L46.2173 287.585C44.1286 287.237 42.5858 285.728 42.1906 283.647C41.7956 281.566 42.6781 279.596 44.494 278.506L77.141 258.912C78.2321 258.257 79.5162 258.051 80.7584 258.331L196.787 284.554C199.043 285.064 200.548 286.887 200.622 289.199C200.696 291.511 199.31 293.427 197.091 294.08L148.578 308.354C148.118 308.49 147.648 308.556 147.183 308.556C146.025 308.556 144.892 308.146 143.986 307.369Z" fill="#3F3D56"/>
<path d="M99.9159 193.577C104.452 195.394 108.487 198.271 111.683 201.968L111.887 202.056L111.972 201.852L156.075 217.967L203.166 141.695L229.198 157.835L174.599 245.42C171.543 251.608 164.009 254.087 157.878 250.921L103.234 222.816L103.519 222.132L103.328 222.037C98.4512 222.372 93.5656 221.534 89.0796 219.593C77.792 214.892 71.0673 205.256 74.0591 198.07C77.0509 190.885 88.625 188.872 99.9159 193.577Z" fill="#FFB6B6"/>
<path d="M253.681 155.464L232.853 124.307C232.853 124.307 208.068 129.214 197.858 142.482C196.581 144.14 152.743 207.74 152.461 210.516C150.484 229.945 200.868 239.049 200.868 239.049L253.681 155.464Z" fill="#1F4366"/>
<path d="M141.719 308.306L36.819 293.802C33.3081 293.317 30.4104 290.801 29.4363 287.392L5.34358 203.039C4.5272 200.18 5.13667 197.219 7.01574 194.916C8.89482 192.612 11.6711 191.422 14.6356 191.648L120.322 199.748C124.146 200.041 127.356 202.735 128.31 206.45L151.616 297.207C152.359 300.103 151.616 303.164 149.626 305.396C147.913 307.317 145.483 308.391 142.951 308.391C142.542 308.391 142.13 308.363 141.719 308.306Z" fill="#3F3D56"/>
<path d="M118.337 135.528C118.95 136.203 121.175 135.515 125.6 134.113C128.964 133.047 129.482 132.659 129.802 132.381C130.927 131.404 131.222 130.376 132.336 125.834C134.336 117.682 134.398 116.872 135.425 115.142C135.778 114.547 136.671 113.126 136.454 112.95C136.23 112.769 135.263 114.249 133.476 114.808C131.735 115.353 130.951 114.48 129.465 114.703C127.543 114.99 126.4 116.816 124.608 119.772C123.021 122.389 122.821 123.442 120.596 128.643C119.966 130.116 119.458 131.256 119.068 132.157C114.7 136.236 110.367 140.369 106.073 144.537C106.156 144.411 106.234 144.291 106.301 144.188C108.203 141.267 108.462 139.701 108.434 138.527C108.389 136.626 107.482 135.178 105.668 132.36C103.891 129.598 102.207 127.775 100.179 125.6C97.5192 122.75 96.1896 121.325 95.6601 121.418C91.8781 122.088 90.8667 147.849 95.6252 152.456C94.9573 152.933 94.4042 153.433 94.0042 153.925C89.9308 149.401 82.9528 144.346 75.2228 143.724C70.4572 143.34 67.8271 144.836 67.0092 145.35C63.2293 147.725 60.9817 152.478 62.1105 153.82C63.163 155.07 66.203 152.227 72.161 152.384C76.3183 152.493 79.5657 154.002 81.4936 154.897C85.5379 156.776 87.0171 158.624 89.9989 159.889C88.6011 161.041 87.4936 162.479 86.7982 163.821C86.5572 164.069 86.3173 164.319 86.0766 164.567C82.9999 162.833 79.5352 161.561 75.9035 161.268C71.1379 160.885 68.5077 162.381 67.6898 162.894C65.1423 164.495 63.2961 167.173 62.7053 169.162C62.3191 169.24 61.9617 169.328 61.6346 169.424C60.4797 166.813 57.0429 164.06 53.8474 162.672C48.3466 160.284 41.2013 160.917 40.4367 163.188C40.4124 163.261 40.4062 163.332 40.3955 163.403C40.9984 158.537 41.8171 153.704 42.84 148.906C42.8747 149.043 42.9183 149.182 42.9763 149.328C44.3342 152.739 48.0035 156.014 53.005 157.713C56.9305 159.046 58.5748 158.355 58.9924 158.162C59.3914 157.977 61.1148 157.238 61.537 155.766C62.3199 153.038 57.5258 144.976 54.5019 147.681C44.7861 156.369 43.4528 149.334 43.0066 148.149C43.8326 144.356 44.7834 140.585 45.8498 136.836C45.8681 136.858 45.8841 136.881 45.9032 136.904C48.0259 139.479 52.1109 141.294 56.9115 141.374C60.6792 141.437 61.9102 140.382 62.2181 140.098C62.5121 139.828 63.7981 138.709 63.7549 137.318C63.6748 134.739 59.0894 132.639 55.4206 132.275C52.0398 131.94 48.3993 132.975 46.5934 134.286C47.4331 131.478 48.3362 128.683 49.2997 125.899C51.767 126.907 55.2621 126.771 58.6955 125.236C61.527 123.97 62.0776 122.754 62.2084 122.436C62.3335 122.132 62.9026 120.849 62.3861 119.827C61.4284 117.932 57.2779 117.964 54.4153 118.971C53.2363 119.386 52.1158 120.024 51.1555 120.745C52.8628 116.183 54.7239 111.653 56.7254 107.156L54.7194 106.654C52.1626 112.399 49.9334 118.218 48.0175 124.101C47.7793 122.376 47.1823 120.538 46.3963 119.044C44.0851 114.653 39.1484 111.358 37.4789 112.427C37.1449 112.641 37.0044 112.989 36.8773 113.404C35.8539 116.74 36.6246 121.35 39.3198 125.586C41.435 128.91 43.0642 129.377 43.4886 129.483C43.8469 129.572 45.2303 129.954 46.3673 129.462C45.6026 132.083 44.8956 134.715 44.2508 137.36C43.475 135.433 41.9461 133.38 40.3291 131.96C36.6005 128.686 30.8123 127.376 29.6355 128.972C29.4002 129.291 29.3934 129.666 29.4229 130.099C29.6602 133.58 32.0285 137.61 36.0599 140.601C39.2242 142.949 40.9124 142.802 41.3464 142.748C41.6019 142.717 42.374 142.64 43.1183 142.303C42.4273 145.516 41.8234 148.745 41.3013 151.987C40.2572 148.36 36.7105 143.835 33.3633 145.275C27.4235 147.829 20.4414 143.905 19.6729 145.621C19.4729 146.068 19.6385 146.528 19.8298 147.027C21.3687 151.047 25.6187 154.941 31.4544 157.009C36.0346 158.633 37.9723 157.848 38.4647 157.628C38.7911 157.482 39.8681 157.032 40.6704 156.197C40.0937 160.363 39.6516 164.55 39.3402 168.755C38.1018 166.05 34.6136 163.201 31.3482 161.732C25.6201 159.154 18.1283 159.719 17.2962 162.087C17.1298 162.561 17.2611 163.018 17.4573 163.531C19.0369 167.656 23.3991 171.653 29.3889 173.776C34.09 175.442 36.0788 174.637 36.5843 174.411C36.9535 174.246 38.2578 173.701 39.0895 172.666C38.983 174.61 38.9007 176.557 38.8487 178.509C38.8339 179.064 38.8252 179.62 38.8144 180.176C38.7469 180.285 38.688 180.396 38.6489 180.513C38.4884 180.99 38.5976 181.448 38.786 181.949C38.7818 182.302 38.7796 182.655 38.7773 183.008C37.7293 182.058 36.4791 180.629 34.9754 178.593C33.6186 176.756 32.3302 178.104 31.5025 179.668C30.205 179.379 28.9674 179.558 27.994 180.467C21.4668 186.567 14.1459 183.331 14.0424 185.149C14.0125 185.674 14.2935 186.091 14.6477 186.544C17.4976 190.186 23.0925 192.843 29.7393 193.123C34.956 193.343 36.6983 191.925 37.1346 191.543C37.2879 191.409 37.6315 191.12 38.0035 190.713C38.3023 190.952 38.593 191.168 38.8847 191.366C38.9994 194.857 39.2047 198.345 39.5091 201.826C39.2616 201.848 39.025 201.889 38.8487 201.907C36.3218 202.164 35.4704 198.754 31.6533 197.508C30.3856 197.094 27.9435 196.643 26.6565 197.508C26.4711 197.633 25.8388 198.101 24.8576 198.508C24.2776 198.748 23.8346 198.859 23.6584 198.908C22.0922 199.336 20.6417 200.512 19.661 201.307C17.8174 202.801 16.8958 203.548 16.463 204.906C16.3268 205.333 15.9437 206.534 16.463 207.705C16.7083 208.258 17.2777 209.08 19.4611 209.904C20.7587 210.394 24.5436 211.822 29.0549 210.304C30.0822 209.958 29.2981 210.082 33.2522 208.105C36.3632 206.549 38.1827 205.805 38.4489 204.306C38.5426 203.779 38.4482 203.136 38.8487 202.906C39.0713 202.779 39.3404 202.841 39.609 202.937C39.8707 205.736 40.1976 208.53 40.5938 211.319H37.034C32.3072 211.319 28.0666 213.95 25.9677 218.187L12.6522 245.059C11.8116 246.755 11.3672 248.652 11.3672 250.546V319.644C11.3672 326.457 16.908 332 23.7186 332H54.7988C61.6094 332 67.1501 326.457 67.1501 319.644V256.018C67.1501 254.467 66.8629 252.948 66.2963 251.504L53.6061 219.16C52.0668 215.238 48.7333 212.463 44.7484 211.604C46.0266 210.088 47.3067 208.574 48.5969 207.064C50.2213 207.848 52.0083 208.491 53.9296 208.943C59.0125 210.139 60.9899 209.073 61.4901 208.78C61.9679 208.5 64.0387 207.364 64.3897 205.468C64.4273 205.265 64.4418 205.059 64.4391 204.852C69.6457 209.086 72.3616 211.173 74.3459 210.477C76.0519 209.879 77.0258 207.919 77.5835 206.159C78.1659 206.24 78.7836 206.323 79.4419 206.411C86.5726 207.364 90.166 207.805 91.5405 206.116C93.4429 203.777 91.6373 199.269 91.1396 198.026C90.0579 195.325 88.3939 193.682 87.3602 192.682C86.018 191.384 82.1924 187.684 76.1697 187.19C74.8604 187.083 73.6842 187.165 72.4859 187.416C72.0684 187.034 71.6278 186.66 71.1426 186.304C70.2181 185.627 69.3052 185.125 68.3225 184.733C69.8299 183.081 71.3415 181.434 72.8601 179.794C73.1005 179.903 73.3288 180.009 73.5385 180.107C78.5136 182.418 79.6067 184.681 84.3912 185.873C86.5619 186.414 89.0193 187.026 89.6276 186.106C90.7084 184.471 86.1209 177.745 79.0318 173.194C79.5098 172.688 79.989 172.184 80.4681 171.679C81.1164 171.95 81.6875 172.216 82.1742 172.442C87.1493 174.753 88.2424 177.017 93.027 178.208C95.1974 178.749 97.6549 179.361 98.2634 178.441C99.2276 176.982 95.6793 171.469 89.8682 167.065C91.4645 166.558 93.5811 165.996 96.322 166.068C100.479 166.177 103.727 167.686 105.655 168.582C110.63 170.893 111.723 173.157 116.507 174.348C118.678 174.889 121.135 175.501 121.744 174.581C123.35 172.15 112.438 158.459 99.3837 157.408C98.3705 157.327 97.4596 157.333 96.6362 157.394C96.5225 157.206 96.399 157.012 96.2688 156.815C100.686 156.957 109.311 155.694 116.653 160.85C118.77 162.337 122.882 165.834 129.765 168.708C131.965 169.626 133.071 170.078 133.375 169.701C134.466 168.351 125.398 157.241 112.641 151.768C107.583 149.598 104.458 149.393 102.236 149.721C102.578 149.331 102.912 148.927 103.233 148.523C108.201 143.649 113.231 138.826 118.306 134.069C118.061 134.829 118.069 135.233 118.337 135.528ZM54.59 196.185C48.9794 194.368 42.1854 195.344 40.4138 197.411C40.1641 195.579 39.947 193.744 39.7681 191.906C42.3242 193.334 44.9914 193.716 50.0509 194.392C52.2058 194.68 54.0326 194.92 55.5778 195.069C55.7853 195.632 56.0067 196.139 56.2635 196.623C56.2933 196.679 56.3252 196.733 56.3556 196.788L56.3108 196.839C55.7346 196.589 55.1574 196.369 54.59 196.185ZM39.6832 171.569C39.8432 171.038 39.8465 170.473 39.7243 169.89C39.8989 167.778 40.1168 165.672 40.3746 163.572C40.368 163.894 40.4699 164.215 40.6087 164.564C42.1685 168.483 46.3831 172.244 52.1281 174.195C53.1997 174.559 54.119 174.789 54.9109 174.929C54.5625 175.536 54.2956 176.128 54.1187 176.676C52.1601 175.102 49.639 173.957 46.7785 175.171C46.0001 175.502 45.5381 176.711 45.1367 178.156C42.4942 178.202 40.286 178.753 39.2343 179.686C39.24 179.297 39.238 178.909 39.2484 178.519C39.3077 176.297 39.4171 174.083 39.5714 171.875C39.6135 171.776 39.6514 171.675 39.6832 171.569ZM39.2418 182.997C39.3556 183.23 39.4804 183.462 39.6099 183.694C39.4924 183.607 39.372 183.514 39.2485 183.413C39.2452 183.275 39.2444 183.136 39.2418 182.997ZM43.7536 211.433C43.446 211.392 43.1355 211.363 42.822 211.345C42.0987 207.753 41.4307 204.163 40.8717 200.566C42.3419 202.9 44.7414 205.037 47.7979 206.658C46.4416 208.246 45.0966 209.838 43.7536 211.433ZM67.4344 184.415C65.5211 183.8 63.2758 183.506 60.1684 183.145C59.3809 182.05 58.5692 181.244 57.9691 180.663C57.6441 180.349 57.1452 179.725 56.4987 178.996C58.1737 178.458 60.6735 177.5 64.2059 177.593C67.4163 177.677 70.0806 178.596 72.017 179.422C70.4832 181.08 68.957 182.745 67.4344 184.415ZM78.2783 172.724C76.3981 171.587 74.359 170.614 72.2124 169.93C72.421 169.929 72.6253 169.922 72.8416 169.928C75.5036 169.998 77.7899 170.642 79.5981 171.331C79.1581 171.795 78.7174 172.259 78.2783 172.724Z" fill="#D3F279"/>
</g>
<defs>
<clipPath id="clip0_20_10">
<rect width="429" height="342" fill="white"/>
</clipPath>
</defs>
</svg>
